<svg xmlns="http://www.w3.org/2000/svg">
	<symbol id="ci" viewBox="0 0 16 14" fill="none" >
		<path d="M0 2.35714H16C16 1.33281 15.2028 0.5 14.2222 0.5H1.77778C0.797222 0.5 0 1.33281 0 2.35714ZM0 3.28571V11.6429C0 12.6672 0.797222 13.5 1.77778 13.5H14.2222C15.2028 13.5 16 12.6672 16 11.6429V3.28571H0ZM1.77778 11.3324C1.77778 10.4763 2.44167 9.78571 3.25833 9.78571H6.51944C7.33889 9.78571 8 10.4792 8 11.3324C8 11.5036 7.86667 11.6429 7.70278 11.6429H2.075C1.91111 11.6429 1.77778 11.5036 1.77778 11.3324ZM4.88889 5.14286C5.36038 5.14286 5.81257 5.33852 6.14597 5.6868C6.47937 6.03508 6.66667 6.50745 6.66667 7C6.66667 7.49254 6.47937 7.96492 6.14597 8.3132C5.81257 8.66148 5.36038 8.85714 4.88889 8.85714C4.41739 8.85714 3.96521 8.66148 3.63181 8.3132C3.29841 7.96492 3.11111 7.49254 3.11111 7C3.11111 6.50745 3.29841 6.03508 3.63181 5.6868C3.96521 5.33852 4.41739 5.14286 4.88889 5.14286ZM9.77778 5.60714C9.77778 5.35179 9.97778 5.14286 10.2222 5.14286H13.7778C14.0222 5.14286 14.2222 5.35179 14.2222 5.60714C14.2222 5.8625 14.0222 6.07143 13.7778 6.07143H10.2222C9.97778 6.07143 9.77778 5.8625 9.77778 5.60714ZM9.77778 7.46429C9.77778 7.20893 9.97778 7 10.2222 7H13.7778C14.0222 7 14.2222 7.20893 14.2222 7.46429C14.2222 7.71964 14.0222 7.92857 13.7778 7.92857H10.2222C9.97778 7.92857 9.77778 7.71964 9.77778 7.46429ZM9.77778 9.32143C9.77778 9.06607 9.97778 8.85714 10.2222 8.85714H13.7778C14.0222 8.85714 14.2222 9.06607 14.2222 9.32143C14.2222 9.57679 14.0222 9.78571 13.7778 9.78571H10.2222C9.97778 9.78571 9.77778 9.57679 9.77778 9.32143Z" fill="var(--color-primary)"/>
	</symbol>

	<symbol id="checkbox" viewBox="0 0 35 35" fill="none" >
		<rect x="1.5" y="1.5" width="32" height="32" rx="3.5" stroke="var(--color-primary)" stroke-width="3"/>
	</symbol>

	<symbol id="checked" viewBox="0 0 35 35" fill="none" >
		<path d="M29.6154 0H5.38462C3.95701 0.00155889 2.58831 0.569366 1.57884 1.57884C0.569366 2.58831 0.00155889 3.95701 0 5.38462V29.6154C0.00155889 31.043 0.569366 32.4117 1.57884 33.4212C2.58831 34.4306 3.95701 34.9984 5.38462 35H29.6154C31.043 34.9984 32.4117 34.4306 33.4212 33.4212C34.4306 32.4117 34.9984 31.043 35 29.6154V5.38462C34.9984 3.95701 34.4306 2.58831 33.4212 1.57884C32.4117 0.569366 31.043 0.00155889 29.6154 0ZM26.6076 11.635L15.2999 25.0965C15.1758 25.2443 15.0215 25.3636 14.8473 25.4465C14.6731 25.5294 14.4831 25.5739 14.2903 25.5769H14.2675C14.0789 25.5769 13.8923 25.5371 13.72 25.4603C13.5476 25.3835 13.3934 25.2713 13.2672 25.131L8.42103 19.7464C8.29796 19.6159 8.20222 19.462 8.13944 19.294C8.07666 19.1259 8.04812 18.947 8.05547 18.7677C8.06283 18.5885 8.10595 18.4125 8.18229 18.2501C8.25863 18.0878 8.36665 17.9423 8.50001 17.8223C8.63337 17.7023 8.78938 17.6101 8.95885 17.5513C9.12833 17.4924 9.30787 17.468 9.48691 17.4796C9.66595 17.4911 9.84088 17.5383 10.0014 17.6183C10.162 17.6984 10.3049 17.8098 10.4218 17.9459L14.2322 22.1796L24.5463 9.90349C24.7776 9.636 25.105 9.47031 25.4575 9.44222C25.81 9.41413 26.1595 9.52589 26.4303 9.75336C26.701 9.98083 26.8715 10.3057 26.9046 10.6578C26.9378 11.0099 26.8311 11.3609 26.6076 11.635Z" fill="var(--color-primary)"/>
	</symbol>

	<symbol id="logo" viewBox="0 0 1200 1700" fill="none">
		<path d="M1027.7 1050.81L1027.24 1051.25L1026.94 1051.82L679.462 1653.63C644.168 1714.8 555.832 1714.8 520.538 1653.63L173.042 1051.82L172.719 1051.25L172.276 1050.81C65.7479 942.506 0 793.927 0 630.001C0 298.639 268.639 30 600 30C931.361 30 1200 298.639 1200 630.001C1200 793.927 1134.25 942.506 1027.7 1050.81Z" fill="#002C17"/>
		<path d="M1027.7 1020.81L1027.24 1021.25L1026.94 1021.82L679.462 1623.63C644.168 1684.8 555.832 1684.8 520.538 1623.63L173.042 1021.82L172.719 1021.25L172.276 1020.81C65.7479 912.504 0 763.926 0 600C0 268.639 268.639 0 600 0C931.361 0 1200 268.639 1200 600C1200 763.926 1134.25 912.504 1027.7 1020.81Z" fill="#198754"/>
		<path d="M1099.75 623.75C1099.75 899.891 875.891 1123.75 599.75 1123.75C323.609 1123.75 99.75 899.891 99.75 623.75C99.75 347.609 323.609 123.75 599.75 123.75C875.891 123.75 1099.75 347.609 1099.75 623.75Z" fill="#65000A"/>
		<path d="M1099.75 598.75C1099.75 874.891 875.891 1098.75 599.75 1098.75C323.609 1098.75 99.75 874.891 99.75 598.75C99.75 322.609 323.609 98.75 599.75 98.75C875.891 98.75 1099.75 322.609 1099.75 598.75Z" fill="#DC3545"/>
		<path d="M445.149 465.377L445.095 489.439C444.99 522.725 422.437 552.114 389.47 561.867L311.318 584.95C261.098 599.817 210.614 563.642 210.799 512.946L211.011 437.894C211.038 418.787 215.967 399.972 228.37 385.025C267.512 337.826 377.571 236.672 602.009 236.009C813.647 235.426 923.123 306.847 967.565 346.519C984.924 362.022 992.027 384.495 992 407.419L991.734 490.367C991.602 536.612 948.936 572.123 901.658 565.339L823.665 554.129C785.476 548.643 757.359 516.975 757.491 479.634V464.475C757.491 464.475 757.676 407.259 601.506 407.71C445.335 408.161 445.149 465.377 445.149 465.377ZM322.868 902.691C330.576 904.214 338.046 904.975 345.278 904.975C360.694 904.975 374.35 901.645 386.245 894.983C398.139 888.226 407.417 878.473 414.079 865.721C420.74 853.064 424.071 837.744 424.071 819.759V774.653C424.071 757.048 421.074 742.013 415.079 729.547C409.084 717.081 400.709 707.565 389.956 700.999C379.298 694.433 366.832 691.15 352.558 691.15C339.14 691.15 327.15 694.433 316.587 700.999C306.12 707.47 297.888 716.32 291.893 727.548C285.803 738.777 282.758 751.386 282.758 765.375C282.758 780.315 285.327 793.114 290.466 803.772C295.604 814.429 302.789 822.614 312.02 828.323C321.25 834.128 332.003 837.03 344.279 837.03C360.361 837.03 373.113 830.941 382.533 818.759L382.819 821.9C382.629 839.409 379.06 852.303 372.113 860.583C365.167 868.862 355.651 873.002 343.565 873.002C331.194 873.002 318.824 870.717 306.453 866.15L301.742 896.268C308.213 899.123 315.255 901.263 322.868 902.691ZM370.4 802.63C365.357 805.2 359.647 806.484 353.272 806.484C340.71 806.484 332.194 800.061 327.721 787.214C325.532 780.933 324.438 773.654 324.438 765.375C324.438 757.667 325.628 750.625 328.007 744.249C330.481 737.778 333.859 732.64 338.141 728.833C342.328 725.122 347.229 723.266 352.843 723.266C361.979 723.266 369.211 727.215 374.54 735.114C379.869 742.917 382.533 754.479 382.533 769.8V792.067C379.488 796.444 375.444 799.965 370.4 802.63ZM535.979 797.063V829.18H455.473V797.063H535.979ZM674.294 901.977V876.998L639.181 872.716V694.147L562.101 708.136V731.973H597.644V872.716L562.529 876.998V901.977H674.294ZM781.778 797.063V829.18H701.273V797.063H781.778ZM920.094 901.977V876.998L884.979 872.716V694.147L807.9 708.136V731.973H843.442V872.716L808.328 876.998V901.977H920.094Z" fill="#9A999E"/>
		<path d="M445.149 465.377L445.095 489.439C444.99 522.725 422.437 552.114 389.47 561.867L311.318 584.95C261.098 599.817 210.614 563.642 210.799 512.946L211.011 437.894C211.038 418.787 215.967 399.972 228.37 385.025C267.512 337.826 377.571 236.672 602.009 236.009C813.647 235.426 923.123 306.847 967.565 346.519C984.924 362.022 992.027 384.495 992 407.419L991.734 490.367C991.602 536.612 948.936 572.123 901.658 565.339L823.665 554.129C785.476 548.643 757.359 516.975 757.491 479.634V464.475C757.491 464.475 757.676 407.259 601.506 407.71C445.335 408.161 445.149 465.377 445.149 465.377ZM322.868 902.691C330.576 904.214 338.046 904.975 345.278 904.975C360.694 904.975 374.35 901.645 386.245 894.983C398.139 888.226 407.417 878.473 414.079 865.721C420.74 853.064 424.071 837.744 424.071 819.759V774.653C424.071 757.048 421.074 742.013 415.079 729.547C409.084 717.081 400.709 707.565 389.956 700.999C379.298 694.433 366.832 691.15 352.558 691.15C339.14 691.15 327.15 694.433 316.587 700.999C306.12 707.47 297.888 716.32 291.893 727.548C285.803 738.777 282.758 751.386 282.758 765.375C282.758 780.315 285.327 793.114 290.466 803.772C295.604 814.429 302.789 822.614 312.02 828.323C321.25 834.128 332.003 837.03 344.279 837.03C360.361 837.03 373.113 830.941 382.533 818.759L382.819 821.9C382.629 839.409 379.06 852.303 372.113 860.583C365.167 868.862 355.651 873.002 343.565 873.002C331.194 873.002 318.824 870.717 306.453 866.15L301.742 896.268C308.213 899.123 315.255 901.263 322.868 902.691ZM370.4 802.63C365.357 805.2 359.647 806.484 353.272 806.484C340.71 806.484 332.194 800.061 327.721 787.214C325.532 780.933 324.438 773.654 324.438 765.375C324.438 757.667 325.628 750.625 328.007 744.249C330.481 737.778 333.859 732.64 338.141 728.833C342.328 725.122 347.229 723.266 352.843 723.266C361.979 723.266 369.211 727.215 374.54 735.114C379.869 742.917 382.533 754.479 382.533 769.8V792.067C379.488 796.444 375.444 799.965 370.4 802.63ZM535.979 797.063V829.18H455.473V797.063H535.979ZM674.294 901.977V876.998L639.181 872.716V694.147L562.101 708.136V731.973H597.644V872.716L562.529 876.998V901.977H674.294ZM781.778 797.063V829.18H701.273V797.063H781.778ZM920.094 901.977V876.998L884.979 872.716V694.147L807.9 708.136V731.973H843.442V872.716L808.328 876.998V901.977H920.094Z" stroke="#7C7C7C"/>
		<path d="M444.149 448.377L444.095 472.439C443.99 505.725 421.437 535.114 388.47 544.867L310.318 567.95C260.098 582.817 209.614 546.642 209.799 495.946L210.011 420.894C210.038 401.787 214.967 382.972 227.37 368.025C266.512 320.826 376.571 219.672 601.009 219.009C812.647 218.426 922.123 289.847 966.565 329.519C983.924 345.022 991.027 367.495 991 390.419L990.734 473.367C990.602 519.612 947.936 555.123 900.658 548.339L822.665 537.129C784.476 531.643 756.359 499.975 756.491 462.634V447.475C756.491 447.475 756.676 390.259 600.506 390.71C444.335 391.161 444.149 448.377 444.149 448.377Z" fill="white"/>
		<path fill-rule="evenodd" clip-rule="evenodd" d="M321.868 885.691C329.576 887.214 337.046 887.975 344.278 887.975C359.694 887.975 373.35 884.644 385.245 877.983C397.139 871.226 406.417 861.473 413.079 848.721C419.74 836.064 423.071 820.744 423.071 802.759V757.653C423.071 740.048 420.074 725.013 414.079 712.547C408.084 700.081 399.709 690.565 388.956 683.999C378.298 677.433 365.832 674.15 351.558 674.15C338.14 674.15 326.15 677.433 315.587 683.999C305.12 690.47 296.888 699.32 290.893 710.548C284.803 721.777 281.758 734.386 281.758 748.375C281.758 763.315 284.327 776.114 289.466 786.772C294.604 797.429 301.789 805.614 311.02 811.323C320.25 817.128 331.003 820.03 343.279 820.03C359.361 820.03 372.113 813.941 381.533 801.759L381.819 804.9C381.629 822.409 378.06 835.303 371.113 843.583C364.167 851.862 354.651 856.002 342.565 856.002C330.194 856.002 317.824 853.717 305.453 849.15L300.742 879.268C307.213 882.123 314.255 884.263 321.868 885.691ZM369.4 785.63C364.357 788.2 358.647 789.484 352.272 789.484C339.71 789.484 331.194 783.061 326.721 770.214C324.532 763.933 323.438 756.654 323.438 748.375C323.438 740.667 324.628 733.625 327.007 727.249C329.481 720.778 332.859 715.64 337.141 711.833C341.328 708.122 346.229 706.266 351.843 706.266C360.979 706.266 368.211 710.215 373.54 718.114C378.869 725.917 381.533 737.479 381.533 752.8V775.067C378.488 779.444 374.444 782.965 369.4 785.63Z" fill="white"/>
		<path d="M534.979 812.18V780.063H454.473V812.18H534.979Z" fill="white"/>
		<path d="M673.294 884.977V859.998L638.181 855.716V677.147L561.101 691.136V714.973H596.644V855.716L561.529 859.998V884.977H673.294Z" fill="white"/>
		<path d="M780.778 812.18V780.063H700.273V812.18H780.778Z" fill="white"/>
		<path d="M919.094 884.977V859.998L883.979 855.716V677.147L806.9 691.136V714.973H842.442V855.716L807.328 859.998V884.977H919.094Z" fill="white"/>
	</symbol>

	<symbol id="close" viewBox="0 0 37 36" fill="none" >
		<path d="M1.5397 1.00638C2.18428 0.361995 3.0584 0 3.96984 0C4.88127 0 5.75539 0.361995 6.39997 1.00638L18.5541 13.1605L30.7082 1.00638C31.3565 0.380257 32.2247 0.0338017 33.1259 0.0416332C34.0272 0.0494647 34.8893 0.410956 35.5266 1.04825C36.1639 1.68554 36.5254 2.54765 36.5332 3.44888C36.541 4.35012 36.1946 5.21838 35.5685 5.86665L23.4143 18.0208L35.5685 30.1749C36.1946 30.8231 36.541 31.6914 36.5332 32.5926C36.5254 33.4939 36.1639 34.356 35.5266 34.9933C34.8893 35.6305 34.0272 35.992 33.1259 35.9999C32.2247 36.0077 31.3565 35.6612 30.7082 35.0351L18.5541 22.881L6.39997 35.0351C5.7517 35.6612 4.88344 36.0077 3.98221 35.9999C3.08097 35.992 2.21887 35.6305 1.58158 34.9933C0.944282 34.356 0.58279 33.4939 0.574958 32.5926C0.567127 31.6914 0.913582 30.8231 1.5397 30.1749L13.6938 18.0208L1.5397 5.86665C0.89532 5.22207 0.533325 4.34795 0.533325 3.43651C0.533325 2.52508 0.89532 1.65096 1.5397 1.00638Z" fill="var(--color-primary)"/>
	</symbol>

	<symbol id="moon" viewBox="0 0 17 16" fill="none" >
		<path d="M16.2678 9.31134C16.1516 9.19489 16.0058 9.11228 15.8462 9.07238C15.6865 9.03248 15.519 9.0368 15.3617 9.08486C14.2624 9.41666 13.0936 9.44412 11.9799 9.16431C10.8662 8.8845 9.84926 8.30791 9.03742 7.49594C8.22559 6.68398 7.64925 5.66706 7.36981 4.5535C7.09036 3.43994 7.11827 2.27145 7.45056 1.1725C7.49904 1.0151 7.50368 0.847467 7.46399 0.687628C7.4243 0.527788 7.34177 0.38179 7.22529 0.265335C7.10881 0.14888 6.96278 0.066374 6.80291 0.026691C6.64303 -0.0129921 6.47536 -0.00835116 6.31792 0.0401146C4.66457 0.548175 3.21365 1.56473 2.17171 2.94506C1.26054 4.15588 0.704885 5.5966 0.5671 7.10556C0.429315 8.61452 0.714849 10.132 1.39166 11.4878C2.06848 12.8435 3.10979 13.9839 4.39876 14.7809C5.68772 15.5779 7.17334 16.0001 8.68892 16C10.4584 16.0052 12.1807 15.4299 13.5917 14.3625C14.9717 13.3198 15.9874 11.8684 16.4943 10.215C16.542 10.058 16.546 9.89097 16.5061 9.73182C16.4662 9.57266 16.3839 9.42733 16.2678 9.31134ZM12.5014 12.9153C11.28 13.8346 9.76767 14.2819 8.24265 14.1749C6.71764 14.0679 5.28258 13.4139 4.20157 12.3331C3.12057 11.2524 2.46637 9.81763 2.35937 8.29295C2.25237 6.76828 2.69976 5.25626 3.61922 4.03517C4.10303 3.39535 4.70263 2.85196 5.38689 2.43322C5.3733 2.62648 5.36651 2.8205 5.36651 3.01527C5.3689 5.17689 6.22886 7.24929 7.7577 8.77779C9.28654 10.3063 11.3594 11.1661 13.5215 11.1685C13.7163 11.1685 13.9104 11.1617 14.1037 11.1481C13.6851 11.8323 13.1415 12.4318 12.5014 12.9153Z" fill="var(--color-primary)"/>
	</symbol>

	<symbol id="delete" viewBox="0 0 35 35" fill="none" >
		<path d="M6.5625 35C5.35938 35 4.32907 34.6189 3.47157 33.8567C2.61407 33.0944 2.18605 32.1793 2.18751 31.1111V5.83334C1.56772 5.83334 1.04782 5.64667 0.62782 5.27334C0.20782 4.90001 -0.00145076 4.43852 7.56919e-06 3.88889C7.56919e-06 3.33797 0.210008 2.87584 0.630008 2.50251C1.05001 2.12917 1.56917 1.94315 2.18751 1.94445H10.9375C10.9375 1.39352 11.1475 0.931395 11.5675 0.558062C11.9875 0.184729 12.5067 -0.00128957 13.125 6.72818e-06H21.875C22.4948 6.72818e-06 23.0147 0.186674 23.4347 0.560007C23.8547 0.93334 24.064 1.39482 24.0625 1.94445H32.8125C33.4323 1.94445 33.9522 2.13112 34.3722 2.50445C34.7922 2.87778 35.0014 3.33927 35 3.88889C35 4.43982 34.79 4.90195 34.37 5.27528C33.95 5.64862 33.4308 5.83463 32.8125 5.83334V31.1111C32.8125 32.1806 32.3837 33.0964 31.5262 33.8586C30.6687 34.6208 29.6392 35.0013 28.4375 35H6.5625ZM17.5 21.1944L21.6562 24.8889C22.0573 25.2454 22.5677 25.4236 23.1875 25.4236C23.8073 25.4236 24.3177 25.2454 24.7187 24.8889C25.1198 24.5324 25.3203 24.0787 25.3203 23.5278C25.3203 22.9769 25.1198 22.5231 24.7187 22.1667L20.5625 18.4722L24.7187 14.7778C25.1198 14.4213 25.3203 13.9676 25.3203 13.4167C25.3203 12.8657 25.1198 12.412 24.7187 12.0556C24.3177 11.6991 23.8073 11.5208 23.1875 11.5208C22.5677 11.5208 22.0573 11.6991 21.6562 12.0556L17.5 15.75L13.3438 12.0556C12.9427 11.6991 12.4323 11.5208 11.8125 11.5208C11.1927 11.5208 10.6823 11.6991 10.2813 12.0556C9.88021 12.412 9.67969 12.8657 9.67969 13.4167C9.67969 13.9676 9.88021 14.4213 10.2813 14.7778L14.4375 18.4722L10.2813 22.1667C9.88021 22.5231 9.67969 22.9769 9.67969 23.5278C9.67969 24.0787 9.88021 24.5324 10.2813 24.8889C10.6823 25.2454 11.1927 25.4236 11.8125 25.4236C12.4323 25.4236 12.9427 25.2454 13.3438 24.8889L17.5 21.1944Z" fill="var(--color-primary)"/>
	</symbol>

	<symbol id="edit" viewBox="0 0 35 35" fill="none" >
		<path d="M31.2157 11.8425L23.0767 3.78767L25.7578 1.10274C26.4919 0.36758 27.3939 0 28.4638 0C29.5337 0 30.435 0.36758 31.1679 1.10274L33.849 3.78767C34.5831 4.52283 34.9661 5.41014 34.998 6.44959C35.0299 7.48904 34.6788 8.37571 33.9447 9.10959L31.2157 11.8425ZM28.4389 14.6712L8.13907 35H0V26.8493L20.2998 6.52055L28.4389 14.6712Z" fill="var(--color-primary)"/>
	</symbol>

	<symbol id="email" viewBox="0 0 16 14" fill="none" >
		<path d="M14.4 0.5H1.6C0.72 0.5 0.00799999 1.23125 0.00799999 2.125L0 11.875C0 12.7688 0.72 13.5 1.6 13.5H14.4C15.28 13.5 16 12.7688 16 11.875V2.125C16 1.23125 15.28 0.5 14.4 0.5ZM14.08 3.95312L8.424 7.54438C8.168 7.70688 7.832 7.70688 7.576 7.54438L1.92 3.95312C1.83978 3.90739 1.76954 3.8456 1.71351 3.77149C1.65749 3.69739 1.61685 3.61251 1.59406 3.52199C1.57127 3.43147 1.5668 3.3372 1.58093 3.24487C1.59505 3.15255 1.62747 3.0641 1.67623 2.98487C1.72498 2.90564 1.78906 2.83728 1.86458 2.78393C1.9401 2.73058 2.0255 2.69335 2.1156 2.67449C2.2057 2.65563 2.29863 2.65554 2.38876 2.67421C2.4789 2.69288 2.56437 2.72993 2.64 2.78312L8 6.1875L13.36 2.78312C13.4356 2.72993 13.5211 2.69288 13.6112 2.67421C13.7014 2.65554 13.7943 2.65563 13.8844 2.67449C13.9745 2.69335 14.0599 2.73058 14.1354 2.78393C14.2109 2.83728 14.275 2.90564 14.3238 2.98487C14.3725 3.0641 14.405 3.15255 14.4191 3.24487C14.4332 3.3372 14.4287 3.43147 14.4059 3.52199C14.3832 3.61251 14.3425 3.69739 14.2865 3.77149C14.2305 3.8456 14.1602 3.90739 14.08 3.95312Z" fill="var(--color-primary)"/>
	</symbol>

	<symbol id="search" viewBox="0 0 35 35" fill="none" >
		<path fill-rule="evenodd" clip-rule="evenodd" d="M27.8764 23.5677C30.3277 21.0679 31.8134 17.7935 31.8134 14.2092C31.8134 6.36168 24.6917 0 15.9067 0C7.12166 0 0 6.36168 0 14.2092C0 22.0568 7.12166 28.4184 15.9067 28.4184C18.4104 28.4184 20.779 27.9017 22.8861 26.9812C22.9864 27.1461 23.1065 27.3045 23.2468 27.4539L29.3816 33.9848C30.5109 35.1871 32.5176 35.3439 33.8635 34.3351C35.2094 33.3262 35.385 31.5337 34.2556 30.3314L28.1209 23.8005C28.0434 23.7179 27.9617 23.6403 27.8764 23.5677ZM15.9067 24.1557C9.75717 24.1557 4.772 19.7025 4.772 14.2092C4.772 8.71595 9.75717 4.26276 15.9067 4.26276C22.0562 4.26276 27.0414 8.71595 27.0414 14.2092C27.0414 19.7025 22.0562 24.1557 15.9067 24.1557Z" fill="var(--color-primary)"/>
	</symbol>

	<symbol id="exit" viewBox="0 0 19 18" fill="none" >
		<path fill-rule="evenodd" clip-rule="evenodd" d="M13.0733 0C12.8353 0.295981 12.6561 0.634727 12.5453 0.998H11.9133C11.1177 0.998 10.3546 1.31407 9.792 1.87668C9.2294 2.43929 8.91333 3.20235 8.91333 3.998C8.91333 4.79365 9.2294 5.55671 9.792 6.11932C10.3546 6.68193 11.1177 6.998 11.9133 6.998H12.5433C12.6833 7.454 12.9333 7.884 13.2933 8.244C13.5859 8.53687 13.936 8.76584 14.3215 8.91646C14.7071 9.06707 15.1197 9.13604 15.5333 9.119V16H17.5333C17.7985 16 18.0529 16.1054 18.2404 16.2929C18.428 16.4804 18.5333 16.7348 18.5333 17C18.5333 17.2652 18.428 17.5196 18.2404 17.7071C18.0529 17.8946 17.7985 18 17.5333 18H1.53333C1.26811 18 1.01375 17.8946 0.826218 17.7071C0.638682 17.5196 0.533325 17.2652 0.533325 17C0.533325 16.7348 0.638682 16.4804 0.826218 16.2929C1.01375 16.1054 1.26811 16 1.53333 16V2C1.53333 1.46957 1.74404 0.960859 2.11911 0.585786C2.49418 0.210714 3.00289 0 3.53333 0H13.0733ZM11.0333 10C10.6355 10 10.254 10.158 9.97266 10.4393C9.69136 10.7206 9.53333 11.1022 9.53333 11.5C9.53333 11.8978 9.69136 12.2794 9.97266 12.5607C10.254 12.842 10.6355 13 11.0333 13C11.4311 13 11.8127 12.842 12.094 12.5607C12.3753 12.2794 12.5333 11.8978 12.5333 11.5C12.5333 11.1022 12.3753 10.7206 12.094 10.4393C11.8127 10.158 11.4311 10 11.0333 10ZM16.1203 1.172L18.2403 3.292C18.4275 3.47949 18.5326 3.73358 18.5326 3.9985C18.5326 4.26342 18.4275 4.51751 18.2403 4.705L16.1203 6.828C16.0281 6.92357 15.9179 6.99983 15.7959 7.05233C15.6739 7.10482 15.5427 7.1325 15.4099 7.13374C15.2772 7.13499 15.1455 7.10978 15.0225 7.05959C14.8996 7.00939 14.7879 6.93522 14.6939 6.84139C14.6 6.74757 14.5257 6.63597 14.4753 6.51311C14.4249 6.39025 14.3995 6.25859 14.4006 6.12581C14.4016 5.99303 14.4291 5.86179 14.4815 5.73975C14.5338 5.61771 14.6099 5.50731 14.7053 5.415L15.1213 4.998H11.9133C11.6481 4.998 11.3938 4.89264 11.2062 4.70511C11.0187 4.51757 10.9133 4.26322 10.9133 3.998C10.9133 3.73278 11.0187 3.47843 11.2062 3.29089C11.3938 3.10336 11.6481 2.998 11.9133 2.998H15.1183L14.7063 2.586C14.5242 2.3974 14.4234 2.1448 14.4257 1.8826C14.4279 1.6204 14.5331 1.36959 14.7185 1.18418C14.9039 0.998773 15.1547 0.893604 15.4169 0.891326C15.6791 0.889048 15.9317 0.989842 16.1203 1.172Z" fill="var(--color-primary)"/>
	</symbol>

	<symbol id="sun" viewBox="0 0 21 20" fill="none" >
		<path d="M9.56558 2.25806V0.967742C9.56558 0.711081 9.66754 0.464932 9.84903 0.283445C10.0305 0.101958 10.2767 0 10.5333 0C10.79 0 11.0361 0.101958 11.2176 0.283445C11.3991 0.464932 11.5011 0.711081 11.5011 0.967742V2.25806C11.5011 2.51473 11.3991 2.76087 11.2176 2.94236C11.0361 3.12385 10.79 3.22581 10.5333 3.22581C10.2767 3.22581 10.0305 3.12385 9.84903 2.94236C9.66754 2.76087 9.56558 2.51473 9.56558 2.25806ZM16.0172 10C16.0172 11.0846 15.6956 12.1449 15.093 13.0467C14.4904 13.9485 13.634 14.6514 12.6319 15.0664C11.6299 15.4815 10.5272 15.5901 9.46347 15.3785C8.39971 15.1669 7.42258 14.6446 6.65564 13.8777C5.88871 13.1107 5.36642 12.1336 5.15483 11.0698C4.94323 10.0061 5.05183 8.90346 5.46689 7.90141C5.88195 6.89937 6.58483 6.0429 7.48665 5.44033C8.38847 4.83775 9.44872 4.51613 10.5333 4.51613C11.9873 4.51762 13.3813 5.09587 14.4094 6.12397C15.4375 7.15207 16.0157 8.54605 16.0172 10ZM14.0817 10C14.0817 9.29819 13.8736 8.61215 13.4837 8.02862C13.0938 7.44509 12.5396 6.99029 11.8912 6.72172C11.2429 6.45315 10.5294 6.38288 9.84107 6.51979C9.15275 6.65671 8.52049 6.99466 8.02424 7.49091C7.52799 7.98716 7.19003 8.61942 7.05312 9.30774C6.9162 9.99606 6.98647 10.7095 7.25504 11.3579C7.52361 12.0063 7.97842 12.5605 8.56195 12.9504C9.14548 13.3403 9.83152 13.5484 10.5333 13.5484C11.4741 13.5473 12.376 13.1731 13.0412 12.5079C13.7065 11.8427 14.0806 10.9408 14.0817 10ZM4.36478 5.20081C4.4548 5.29083 4.56166 5.36223 4.67928 5.41095C4.7969 5.45967 4.92295 5.48474 5.05026 5.48474C5.17757 5.48474 5.30363 5.45967 5.42124 5.41095C5.53886 5.36223 5.64573 5.29083 5.73574 5.20081C5.82576 5.11079 5.89717 5.00392 5.94589 4.8863C5.99461 4.76869 6.01968 4.64263 6.01968 4.51532C6.01968 4.38802 5.99461 4.26196 5.94589 4.14434C5.89717 4.02673 5.82576 3.91986 5.73574 3.82984L4.768 2.8621C4.5862 2.6803 4.33962 2.57816 4.08252 2.57816C3.82541 2.57816 3.57884 2.6803 3.39703 2.8621C3.21523 3.0439 3.1131 3.29047 3.1131 3.54758C3.1131 3.80469 3.21523 4.05126 3.39703 4.23306L4.36478 5.20081ZM4.36478 14.7976L3.39703 15.7653C3.30702 15.8553 3.23561 15.9622 3.18689 16.0798C3.13817 16.1974 3.1131 16.3235 3.1131 16.4508C3.1131 16.5781 3.13817 16.7042 3.18689 16.8218C3.23561 16.9394 3.30702 17.0463 3.39703 17.1363C3.57884 17.3181 3.82541 17.4202 4.08252 17.4202C4.20982 17.4202 4.33588 17.3952 4.4535 17.3464C4.57112 17.2977 4.67798 17.2263 4.768 17.1363L5.73574 16.1685C5.91755 15.9867 6.01968 15.7402 6.01968 15.4831C6.01968 15.226 5.91755 14.9794 5.73574 14.7976C5.55394 14.6158 5.30737 14.5136 5.05026 14.5136C4.79315 14.5136 4.54658 14.6158 4.36478 14.7976ZM16.0172 5.48387C16.1443 5.48397 16.2702 5.45902 16.3877 5.41045C16.5052 5.36189 16.6119 5.29065 16.7019 5.20081L17.6696 4.23306C17.7596 4.14305 17.831 4.03618 17.8798 3.91856C17.9285 3.80095 17.9536 3.67489 17.9536 3.54758C17.9536 3.42027 17.9285 3.29421 17.8798 3.1766C17.831 3.05898 17.7596 2.95212 17.6696 2.8621C17.5796 2.77208 17.4727 2.70067 17.3551 2.65195C17.2375 2.60323 17.1114 2.57816 16.9841 2.57816C16.8568 2.57816 16.7308 2.60323 16.6131 2.65195C16.4955 2.70067 16.3887 2.77208 16.2986 2.8621L15.3309 3.82984C15.1948 3.96519 15.1019 4.13798 15.0643 4.32624C15.0266 4.51449 15.0458 4.70969 15.1193 4.88701C15.1929 5.06434 15.3176 5.21577 15.4775 5.32206C15.6373 5.42834 15.8252 5.48466 16.0172 5.48387ZM16.7019 14.7992C16.5201 14.6174 16.2735 14.5153 16.0164 14.5153C15.7593 14.5153 15.5127 14.6174 15.3309 14.7992C15.1491 14.981 15.047 15.2276 15.047 15.4847C15.047 15.7418 15.1491 15.9884 15.3309 16.1702L16.2986 17.1379C16.4804 17.3197 16.727 17.4218 16.9841 17.4218C17.2412 17.4218 17.4878 17.3197 17.6696 17.1379C17.8514 16.9561 17.9536 16.7095 17.9536 16.4524C17.9536 16.1953 17.8514 15.9487 17.6696 15.7669L16.7019 14.7992ZM3.75913 10C3.75913 9.74334 3.65717 9.49719 3.47569 9.3157C3.2942 9.13422 3.04805 9.03226 2.79139 9.03226H1.50107C1.24441 9.03226 0.998257 9.13422 0.81677 9.3157C0.635283 9.49719 0.533325 9.74334 0.533325 10C0.533325 10.2567 0.635283 10.5028 0.81677 10.6843C0.998257 10.8658 1.24441 10.9677 1.50107 10.9677H2.79139C3.04805 10.9677 3.2942 10.8658 3.47569 10.6843C3.65717 10.5028 3.75913 10.2567 3.75913 10ZM10.5333 16.7742C10.2767 16.7742 10.0305 16.8762 9.84903 17.0576C9.66754 17.2391 9.56558 17.4853 9.56558 17.7419V19.0323C9.56558 19.2889 9.66754 19.5351 9.84903 19.7166C10.0305 19.898 10.2767 20 10.5333 20C10.79 20 11.0361 19.898 11.2176 19.7166C11.3991 19.5351 11.5011 19.2889 11.5011 19.0323V17.7419C11.5011 17.4853 11.3991 17.2391 11.2176 17.0576C11.0361 16.8762 10.79 16.7742 10.5333 16.7742ZM19.5656 9.03226H18.2753C18.0186 9.03226 17.7724 9.13422 17.591 9.3157C17.4095 9.49719 17.3075 9.74334 17.3075 10C17.3075 10.2567 17.4095 10.5028 17.591 10.6843C17.7724 10.8658 18.0186 10.9677 18.2753 10.9677H19.5656C19.8222 10.9677 20.0684 10.8658 20.2499 10.6843C20.4314 10.5028 20.5333 10.2567 20.5333 10C20.5333 9.74334 20.4314 9.49719 20.2499 9.3157C20.0684 9.13422 19.8222 9.03226 19.5656 9.03226Z" fill="var(--color-primary)"/>
	</symbol>

	<symbol id="user" viewBox="0 0 17 16" fill="none" >
		<path d="M8.53333 0C9.59419 0 10.6116 0.421427 11.3618 1.17157C12.1119 1.92172 12.5333 2.93913 12.5333 4C12.5333 5.06087 12.1119 6.07828 11.3618 6.82843C10.6116 7.57857 9.59419 8 8.53333 8C7.47246 8 6.45504 7.57857 5.7049 6.82843C4.95475 6.07828 4.53333 5.06087 4.53333 4C4.53333 2.93913 4.95475 1.92172 5.7049 1.17157C6.45504 0.421427 7.47246 0 8.53333 0ZM8.53333 10C12.9533 10 16.5333 11.79 16.5333 14V16H0.533325V14C0.533325 11.79 4.11333 10 8.53333 10Z" fill="var(--color-primary)"/>
	</symbol>

	<symbol id="eye_visible" viewBox="0 0 24 16" fill="none" >
		<path d="M12.2665 4.8C11.4178 4.8 10.6039 5.13714 10.0038 5.73726C9.40368 6.33737 9.06654 7.15131 9.06654 8C9.06654 8.84869 9.40368 9.66263 10.0038 10.2627C10.6039 10.8629 11.4178 11.2 12.2665 11.2C13.1152 11.2 13.9292 10.8629 14.5293 10.2627C15.1294 9.66263 15.4665 8.84869 15.4665 8C15.4665 7.15131 15.1294 6.33737 14.5293 5.73726C13.9292 5.13714 13.1152 4.8 12.2665 4.8ZM12.2665 13.3333C10.852 13.3333 9.49549 12.7714 8.4953 11.7712C7.49511 10.771 6.9332 9.41449 6.9332 8C6.9332 6.58551 7.49511 5.22896 8.4953 4.22876C9.49549 3.22857 10.852 2.66667 12.2665 2.66667C13.681 2.66667 15.0376 3.22857 16.0378 4.22876C17.038 5.22896 17.5999 6.58551 17.5999 8C17.5999 9.41449 17.038 10.771 16.0378 11.7712C15.0376 12.7714 13.681 13.3333 12.2665 13.3333ZM12.2665 0C6.9332 0 2.37854 3.31733 0.533203 8C2.37854 12.6827 6.9332 16 12.2665 16C17.5999 16 22.1545 12.6827 23.9999 8C22.1545 3.31733 17.5999 0 12.2665 0Z" fill="var(--color-primary)"/>
	</symbol>

	<symbol id="eye_hidden" viewBox="0 0 24 20" fill="none" >
		<path d="M11.7891 6.34096L15.1032 9.6446V9.47733C15.1032 8.64551 14.7727 7.84776 14.1845 7.25958C13.5964 6.6714 12.7986 6.34096 11.9668 6.34096H11.7891ZM7.29361 7.17733L8.91407 8.79778C8.8618 9.01733 8.83043 9.23687 8.83043 9.47733C8.83043 10.3091 9.16087 11.1069 9.74905 11.6951C10.3372 12.2833 11.135 12.6137 11.9668 12.6137C12.1968 12.6137 12.4268 12.5823 12.6463 12.5301L14.2668 14.1505C13.5663 14.4955 12.7927 14.7046 11.9668 14.7046C10.5804 14.7046 9.25086 14.1539 8.27056 13.1736C7.29025 12.1933 6.73952 10.8637 6.73952 9.47733C6.73952 8.65142 6.94862 7.87778 7.29361 7.17733ZM1.51225 1.39596L3.89589 3.7796L4.36634 4.25005C2.64134 5.60915 1.28225 7.38642 0.466797 9.47733C2.27543 14.0669 6.73952 17.3182 11.9668 17.3182C13.5873 17.3182 15.1345 17.0046 16.5459 16.4401L16.9954 16.8791L20.0482 19.9319L21.3759 18.6041L2.83998 0.0682373M11.9668 4.25005C13.3532 4.25005 14.6827 4.80078 15.663 5.78109C16.6433 6.76139 17.1941 8.09097 17.1941 9.47733C17.1941 10.1464 17.0582 10.7946 16.8177 11.3801L19.8809 14.4432C21.4491 13.1364 22.7036 11.4219 23.4668 9.47733C21.6582 4.88778 17.1941 1.63642 11.9668 1.63642C10.5032 1.63642 9.10225 1.89778 7.78498 2.36824L10.0536 4.61596C10.6495 4.38596 11.2873 4.25005 11.9668 4.25005Z" fill="var(--color-primary)"/>
	</symbol>

	<symbol id="use_add" viewBox="0 0 35 31" fill="none" >
		<path d="M5.25 8C5.25 6.01088 5.9875 4.10322 7.30025 2.6967C8.61301 1.29018 10.3935 0.5 12.25 0.5C14.1065 0.5 15.887 1.29018 17.1997 2.6967C18.5125 4.10322 19.25 6.01088 19.25 8C19.25 9.98912 18.5125 11.8968 17.1997 13.3033C15.887 14.7098 14.1065 15.5 12.25 15.5C10.3935 15.5 8.61301 14.7098 7.30025 13.3033C5.9875 11.8968 5.25 9.98912 5.25 8ZM0 28.7598C0 22.9883 4.36406 18.3125 9.75078 18.3125H14.7492C20.1359 18.3125 24.5 22.9883 24.5 28.7598C24.5 29.7207 23.7727 30.5 22.8758 30.5H1.62422C0.727344 30.5 0 29.7207 0 28.7598ZM27.5625 18.7812V15.0312H24.0625C23.3352 15.0312 22.75 14.4043 22.75 13.625C22.75 12.8457 23.3352 12.2188 24.0625 12.2188H27.5625V8.46875C27.5625 7.68945 28.1477 7.0625 28.875 7.0625C29.6023 7.0625 30.1875 7.68945 30.1875 8.46875V12.2188H33.6875C34.4148 12.2188 35 12.8457 35 13.625C35 14.4043 34.4148 15.0312 33.6875 15.0312H30.1875V18.7812C30.1875 19.5605 29.6023 20.1875 28.875 20.1875C28.1477 20.1875 27.5625 19.5605 27.5625 18.7812Z" fill="var(--color-primary)"/>
	</symbol>

	<symbol id="home" viewBox="0 0 17 16" fill="none" >
		<path d="M16.3258 8.25919L9.12663 0.253384C8.82346 -0.0844612 8.24113 -0.0844612 7.93796 0.253384L0.738767 8.25919C0.635144 8.37415 0.567126 8.51676 0.542984 8.66969C0.518843 8.82262 0.539617 8.97928 0.602782 9.12061C0.730768 9.40962 1.01714 9.59536 1.3331 9.59536H2.93292V15.1994C2.93292 15.4117 3.0172 15.6154 3.16721 15.7655C3.31722 15.9157 3.52068 16 3.73283 16H6.13256C6.34471 16 6.54817 15.9157 6.69819 15.7655C6.8482 15.6154 6.93248 15.4117 6.93248 15.1994V11.9971H10.1321V15.1994C10.1321 15.4117 10.2164 15.6154 10.3664 15.7655C10.5164 15.9157 10.7199 16 10.932 16H13.3318C13.5439 16 13.7474 15.9157 13.8974 15.7655C14.0474 15.6154 14.1317 15.4117 14.1317 15.1994V9.59536H15.7315C15.8864 9.59602 16.0382 9.55155 16.1683 9.46738C16.2984 9.38321 16.4012 9.26297 16.4642 9.12133C16.5272 8.97968 16.5477 8.82275 16.5231 8.66966C16.4985 8.51658 16.43 8.37396 16.3258 8.25919Z" fill="var(--color-primary)"/>
	</symbol>

	<symbol id="arrow" viewBox="0 0 15 25" fill="none">
		<path fill-rule="evenodd" clip-rule="evenodd" d="M0.909886 14.886C-0.303295 13.6729 -0.303295 11.7058 0.909886 10.4926L9.69676 1.7059C10.5852 0.81742 11.9214 0.551622 13.082 1.03246C14.2429 1.51329 15 2.64608 15 3.90256V21.476C15 22.7326 14.2429 23.8652 13.082 24.3461C11.9214 24.827 10.5852 24.5611 9.69676 23.6726L0.909886 14.886Z" fill="var(--color-primary)"/>
	</symbol>

	<symbol id="question" viewBox="0 0 38 38" fill="none">
		<path d="M19.0001 0.666687C29.1256 0.666687 37.3334 8.87452 37.3334 19C37.3372 23.8134 35.4479 28.4352 32.0734 31.8675C28.6989 35.2999 24.1099 37.2675 19.2971 37.3454C14.4844 37.4234 9.83404 35.6056 6.35008 32.2844C2.86612 28.9631 0.82806 24.405 0.675915 19.594L0.666748 19L0.674081 18.4867C0.945415 8.59952 9.04508 0.666687 19.0001 0.666687ZM19.0184 24.5L18.7856 24.5129C18.34 24.5659 17.9293 24.7804 17.6313 25.116C17.3334 25.4515 17.1688 25.8846 17.1688 26.3334C17.1688 26.7821 17.3334 27.2152 17.6313 27.5508C17.9293 27.8863 18.34 28.1009 18.7856 28.1539L19.0001 28.1667L19.2329 28.1539C19.6785 28.1009 20.0892 27.8863 20.3872 27.5508C20.6851 27.2152 20.8497 26.7821 20.8497 26.3334C20.8497 25.8846 20.6851 25.4515 20.3872 25.116C20.0892 24.7804 19.6785 24.5659 19.2329 24.5129L19.0184 24.5ZM19.0001 9.83335C18.551 9.83341 18.1176 9.99827 17.7821 10.2967C17.4465 10.5951 17.2321 11.0062 17.1796 11.4522L17.1667 11.6667V19L17.1796 19.2145C17.2326 19.6601 17.4472 20.0708 17.7827 20.3688C18.1182 20.6667 18.5514 20.8313 19.0001 20.8313C19.4488 20.8313 19.882 20.6667 20.2175 20.3688C20.553 20.0708 20.7676 19.6601 20.8206 19.2145L20.8334 19V11.6667L20.8206 11.4522C20.768 11.0062 20.5537 10.5951 20.2181 10.2967C19.8825 9.99827 19.4491 9.83341 19.0001 9.83335Z" fill="var(--color-primary)"/>
	</symbol>

	<symbol id="rol" viewBox="0 0 35 30" fill="none">
		<path d="M7.87623 9.375C9.03673 9.375 10.1497 8.88114 10.9703 8.00206C11.7909 7.12299 12.2519 5.9307 12.2519 4.6875C12.2519 3.4443 11.7909 2.25201 10.9703 1.37294C10.1497 0.49386 9.03673 0 7.87623 0C6.71573 0 5.60275 0.49386 4.78216 1.37294C3.96156 2.25201 3.50055 3.4443 3.50055 4.6875C3.50055 5.9307 3.96156 7.12299 4.78216 8.00206C5.60275 8.88114 6.71573 9.375 7.87623 9.375ZM28.0044 9.375C29.1649 9.375 30.2779 8.88114 31.0985 8.00206C31.9191 7.12299 32.3801 5.9307 32.3801 4.6875C32.3801 3.4443 31.9191 2.25201 31.0985 1.37294C30.2779 0.49386 29.1649 0 28.0044 0C26.8439 0 25.7309 0.49386 24.9103 1.37294C24.0897 2.25201 23.6287 3.4443 23.6287 4.6875C23.6287 5.9307 24.0897 7.12299 24.9103 8.00206C25.7309 8.88114 26.8439 9.375 28.0044 9.375ZM0 17.502C0 18.1875 0.525082 18.75 1.16503 18.75H12.8372C12.8481 18.75 12.859 18.75 12.8754 18.75C11.4205 17.373 10.5071 15.3633 10.5071 13.125C10.5071 12.6797 10.5454 12.2461 10.611 11.8184C9.86717 11.4492 9.04126 11.25 8.17159 11.25H5.83607C2.61447 11.25 0 14.0508 0 17.502ZM17.5027 18.75C18.8154 18.75 20.0133 18.2344 20.9322 17.3848C21.0689 17.168 21.2166 16.957 21.3697 16.7578C21.5174 16.5645 21.6815 16.4004 21.862 16.2715C22.4254 15.3691 22.7536 14.291 22.7536 13.125C22.7536 10.0195 20.4016 7.5 17.5027 7.5C14.6038 7.5 12.2519 10.0195 12.2519 13.125C12.2519 16.2305 14.6038 18.75 17.5027 18.75ZM21.0799 22.2773C20.5165 21.9316 20.0899 21.3281 19.9422 20.625H14.2921C10.2664 20.625 7.00109 24.123 7.00109 28.4355C7.00109 29.2969 7.65198 30 8.46148 30H24.8976C24.7828 29.6953 24.7226 29.3613 24.7226 29.0391V28.8633C24.6515 28.8223 24.5749 28.7754 24.5038 28.7285L24.3616 28.8164C23.4427 29.3848 22.1464 29.2852 21.3697 28.248C21.1236 27.9199 20.8994 27.5742 20.6915 27.2168L20.686 27.2051L20.6806 27.1934L20.5493 26.9531L20.5438 26.9414L20.5384 26.9297C20.3524 26.5664 20.1883 26.1914 20.0461 25.7988C19.5976 24.5566 20.1664 23.3027 21.0853 22.7344L21.233 22.6465C21.233 22.5996 21.233 22.5586 21.233 22.5117C21.233 22.4648 21.233 22.4238 21.233 22.377L21.0853 22.2891L21.0799 22.2773ZM29.1694 11.25H26.8394C25.9697 11.25 25.1438 11.4551 24.3999 11.8184C24.471 12.2402 24.5038 12.6797 24.5038 13.125C24.5038 14.1445 24.3124 15.1113 23.9733 15.9961C24.11 16.0488 24.2413 16.1133 24.3616 16.1895L24.5038 16.2773C24.5749 16.2305 24.646 16.1836 24.7226 16.1426V15.9668C24.7226 14.8301 25.4501 13.6758 26.6807 13.4707C27.1128 13.4004 27.5559 13.3594 28.0044 13.3594C28.4529 13.3594 28.8959 13.3945 29.328 13.4707C30.5587 13.6758 31.2861 14.8301 31.2861 15.9668V16.1426C31.3572 16.1836 31.4338 16.2305 31.5049 16.2773L31.6471 16.1895C32.566 15.6211 33.8623 15.7207 34.639 16.7578C34.7648 16.9219 34.8851 17.0977 35 17.2676C34.8851 13.9219 32.3199 11.25 29.1694 11.25ZM34.1631 20.8535C34.5077 20.6426 34.6828 20.2031 34.5351 19.7988C34.4202 19.4766 34.2835 19.166 34.1303 18.8672L34.0045 18.6328C33.835 18.334 33.649 18.0527 33.4466 17.7832C33.195 17.4492 32.752 17.3906 32.4074 17.6074L31.4174 18.2227C30.9306 17.7773 30.3727 17.4258 29.7546 17.1914V15.9609C29.7546 15.5332 29.4866 15.1523 29.0928 15.0879C28.7373 15.0293 28.3763 15 28.0044 15C27.6324 15 27.2714 15.0293 26.9159 15.0879C26.5221 15.1523 26.2541 15.5332 26.2541 15.9609V17.1914C25.6415 17.4258 25.0781 17.7773 24.5913 18.2227L23.5959 17.6074C23.2513 17.3965 22.8083 17.4551 22.5566 17.7832C22.3543 18.0527 22.1683 18.3398 21.9988 18.6387L21.8729 18.8672C21.7198 19.166 21.5831 19.4766 21.4682 19.7988C21.326 20.1973 21.4955 20.6367 21.8401 20.8477L22.8356 21.4629C22.7809 21.7969 22.7481 22.1426 22.7481 22.4941C22.7481 22.8457 22.7809 23.1914 22.8356 23.5195L21.8401 24.1348C21.4955 24.3457 21.3205 24.7852 21.4682 25.1836C21.5831 25.5059 21.7198 25.8105 21.8729 26.1094L22.0042 26.3496C22.1683 26.6484 22.3543 26.9297 22.5566 27.1992C22.8083 27.5332 23.2513 27.5918 23.5959 27.375L24.5913 26.7773C25.0781 27.2227 25.6415 27.5742 26.2541 27.8086V29.0391C26.2541 29.4668 26.5221 29.8477 26.9159 29.9121C27.2714 29.9707 27.6324 30 28.0044 30C28.3763 30 28.7373 29.9707 29.0928 29.9121C29.4866 29.8477 29.7546 29.4668 29.7546 29.0391V27.8086C30.3672 27.5742 30.9306 27.2227 31.4174 26.7773L32.4129 27.3926C32.7575 27.6035 33.2005 27.5449 33.4521 27.2168C33.6545 26.9473 33.8404 26.666 34.0045 26.3672L34.1358 26.1211C34.2889 25.8223 34.4257 25.5176 34.5406 25.1953C34.6828 24.7969 34.5132 24.3574 34.1686 24.1465L33.1732 23.5313C33.2278 23.1973 33.2607 22.8516 33.2607 22.5059C33.2607 22.1602 33.2278 21.8086 33.1732 21.4746L34.1686 20.8594L34.1631 20.8535ZM25.8165 22.5C25.8165 21.8784 26.047 21.2823 26.4573 20.8427C26.8676 20.4032 27.4241 20.1563 28.0044 20.1562C28.5846 20.1562 29.1411 20.4032 29.5514 20.8427C29.9617 21.2823 30.1922 21.8784 30.1922 22.5C30.1922 23.1216 29.9617 23.7177 29.5514 24.1573C29.1411 24.5968 28.5846 24.8438 28.0044 24.8438C27.4241 24.8438 26.8676 24.5968 26.4573 24.1573C26.047 23.7177 25.8165 23.1216 25.8165 22.5Z" fill="var(--color-primary)"/>
	</symbol>

	<symbol id="save" viewBox="0 0 16 16" fill="none" >
		<path d="M16 3.55556V14.2222C16 14.7111 15.8258 15.1298 15.4773 15.4782C15.1289 15.8267 14.7105 16.0006 14.2222 16H1.77778C1.28889 16 0.870223 15.8258 0.521779 15.4773C0.173335 15.1289 -0.000591083 14.7105 1.50915e-06 14.2222V1.77778C1.50915e-06 1.28889 0.174224 0.870223 0.522668 0.521779C0.871113 0.173335 1.28948 -0.000591083 1.77778 1.50915e-06H12.4444L16 3.55556ZM8 13.3333C8.74074 13.3333 9.37037 13.0741 9.88889 12.5556C10.4074 12.037 10.6667 11.4074 10.6667 10.6667C10.6667 9.92593 10.4074 9.2963 9.88889 8.77778C9.37037 8.25926 8.74074 8 8 8C7.25926 8 6.62963 8.25926 6.11111 8.77778C5.59259 9.2963 5.33333 9.92593 5.33333 10.6667C5.33333 11.4074 5.59259 12.037 6.11111 12.5556C6.62963 13.0741 7.25926 13.3333 8 13.3333ZM2.66667 6.22222H10.6667V2.66667H2.66667V6.22222Z" fill="var(--color-primary)"/>
	</symbol>

	<symbol id='facebook' viewBox="0 0 31 30" fill="none" >
		<path d="M30.5333 15.0919C30.5333 6.75561 23.817 -0.00189209 15.5333 -0.00189209C7.24579 -1.70898e-05 0.529541 6.75561 0.529541 15.0937C0.529541 22.6256 6.01579 28.8694 13.1858 30.0019V19.455H9.37954V15.0937H13.1895V11.7656C13.1895 7.98373 15.4302 5.89498 18.8558 5.89498C20.4983 5.89498 22.2139 6.18936 22.2139 6.18936V9.90186H20.322C18.4602 9.90186 17.8789 11.0662 17.8789 12.2606V15.0919H22.0377L21.3739 19.4531H17.877V30C25.047 28.8675 30.5333 22.6237 30.5333 15.0919Z" fill="var(--color-primary)"/>
	</symbol>

	<symbol id="youtube"  viewBox="0 0 31 19" fill="none" >
		<path d="M12.5332 13.25L20.3182 9.5L12.5332 5.75V13.25ZM29.8732 3.4625C30.0682 4.05 30.2032 4.8375 30.2932 5.8375C30.3982 6.8375 30.4432 7.7 30.4432 8.45L30.5332 9.5C30.5332 12.2375 30.2932 14.25 29.8732 15.5375C29.4982 16.6625 28.6282 17.3875 27.2782 17.7C26.5732 17.8625 25.2832 17.975 23.3032 18.05C21.3532 18.1375 19.5682 18.175 17.9182 18.175L15.5332 18.25C9.2482 18.25 5.3332 18.05 3.7882 17.7C2.4382 17.3875 1.5682 16.6625 1.1932 15.5375C0.998203 14.95 0.863203 14.1625 0.773203 13.1625C0.668203 12.1625 0.623203 11.3 0.623203 10.55L0.533203 9.5C0.533203 6.7625 0.773203 4.75 1.1932 3.4625C1.5682 2.3375 2.4382 1.6125 3.7882 1.3C4.4932 1.1375 5.7832 1.025 7.7632 0.95C9.7132 0.8625 11.4982 0.825 13.1482 0.825L15.5332 0.75C21.8182 0.75 25.7332 0.95 27.2782 1.3C28.6282 1.6125 29.4982 2.3375 29.8732 3.4625Z" fill="var(--color-primary)"/>
	</symbol>

	<symbol id="twitter" viewBox="0 0 500 453" fill="none" >
		<path d="M393.779 0.755127H470.449L302.948 192.198L500 452.709H345.687L224.841 294.711L86.5665 452.709H9.85028L189.009 247.939L0 0.755127H158.184L267.418 145.172L393.733 0.755127H393.779ZM366.871 406.818H409.354L135.123 44.2354H89.5332L366.871 406.818Z" fill="var(--color-primary)"/>
	</symbol>


	<symbol id="instagram" viewBox="0 0 26 26" fill="none" >
		<path d="M13.8182 0.501233C14.7304 0.497733 15.6425 0.5069 16.5544 0.528733L16.7969 0.537483C17.0769 0.547483 17.3532 0.559983 17.6869 0.574983C19.0169 0.637483 19.9244 0.847483 20.7207 1.15623C21.5457 1.47373 22.2407 1.90373 22.9357 2.59873C23.5712 3.22324 24.063 3.97867 24.3769 4.81248C24.6857 5.60873 24.8957 6.51748 24.9582 7.84748C24.9732 8.17998 24.9857 8.45748 24.9957 8.73748L25.0032 8.97998C25.0254 9.89147 25.035 10.8032 25.0319 11.715L25.0332 12.6475V14.285C25.0363 15.1972 25.0267 16.1093 25.0044 17.0212L24.9969 17.2637C24.9869 17.5437 24.9744 17.82 24.9594 18.1537C24.8969 19.4837 24.6844 20.3912 24.3769 21.1875C24.064 22.0222 23.5721 22.7782 22.9357 23.4025C22.3106 24.0379 21.5548 24.5297 20.7207 24.8437C19.9244 25.1525 19.0169 25.3625 17.6869 25.425C17.3532 25.44 17.0769 25.4525 16.7969 25.4625L16.5544 25.47C15.6425 25.4922 14.7304 25.5018 13.8182 25.4987L12.8857 25.5H11.2494C10.3373 25.5031 9.4251 25.4935 8.51319 25.4712L8.27069 25.4637C7.97395 25.453 7.67728 25.4405 7.38069 25.4262C6.05069 25.3637 5.14319 25.1512 4.34569 24.8437C3.51155 24.5304 2.75599 24.0385 2.13194 23.4025C1.49575 22.7778 1.00347 22.0219 0.689442 21.1875C0.380692 20.3912 0.170692 19.4837 0.108192 18.1537C0.0942705 17.8571 0.0817704 17.5605 0.0706919 17.2637L0.0644421 17.0212C0.0413966 16.1093 0.0309788 15.1972 0.033192 14.285V11.715C0.0297032 10.8032 0.0388709 9.89148 0.060692 8.97998L0.069442 8.73748C0.079442 8.45748 0.091942 8.17998 0.106942 7.84748C0.169442 6.51623 0.379442 5.60998 0.688192 4.81248C1.00241 3.97826 1.49565 3.22304 2.13319 2.59998C2.75681 1.96342 3.51189 1.4707 4.34569 1.15623C5.14319 0.847483 6.04944 0.637483 7.38069 0.574983L8.27069 0.537483L8.51319 0.531233C9.42467 0.508199 10.3364 0.497781 11.2482 0.499983L13.8182 0.501233ZM12.5332 6.75123C11.7051 6.73952 10.8829 6.89251 10.1144 7.20132C9.34594 7.51012 8.6465 7.96858 8.05675 8.55005C7.467 9.13152 6.99869 9.82441 6.67905 10.5884C6.35941 11.3525 6.19481 12.1724 6.19481 13.0006C6.19481 13.8288 6.35941 14.6488 6.67905 15.4128C6.99869 16.1768 7.467 16.8697 8.05675 17.4512C8.6465 18.0326 9.34594 18.4911 10.1144 18.7999C10.8829 19.1087 11.7051 19.2617 12.5332 19.25C14.1908 19.25 15.7805 18.5915 16.9526 17.4194C18.1247 16.2473 18.7832 14.6576 18.7832 13C18.7832 11.3424 18.1247 9.75267 16.9526 8.58057C15.7805 7.40846 14.1908 6.75123 12.5332 6.75123ZM12.5332 9.25123C13.0313 9.24206 13.5263 9.33223 13.9892 9.51649C14.4521 9.70076 14.8736 9.97541 15.2292 10.3244C15.5847 10.6734 15.8672 11.0898 16.06 11.5492C16.2528 12.0085 16.3522 12.5018 16.3523 13C16.3524 13.4982 16.2532 13.9914 16.0605 14.4509C15.8678 14.9103 15.5855 15.3268 15.2301 15.6759C14.8746 16.025 14.4532 16.2998 13.9903 16.4842C13.5275 16.6687 13.0326 16.759 12.5344 16.75C11.5399 16.75 10.5861 16.3549 9.88279 15.6516C9.17953 14.9484 8.78444 13.9945 8.78444 13C8.78444 12.0054 9.17953 11.0516 9.88279 10.3483C10.5861 9.64507 11.5399 9.24998 12.5344 9.24998L12.5332 9.25123ZM19.0957 4.87623C18.6924 4.89237 18.3111 5.06392 18.0314 5.35495C17.7518 5.64597 17.5957 6.0339 17.5957 6.43748C17.5957 6.84107 17.7518 7.22899 18.0314 7.52002C18.3111 7.81105 18.6924 7.98259 19.0957 7.99873C19.5101 7.99873 19.9075 7.83411 20.2005 7.54109C20.4936 7.24806 20.6582 6.85063 20.6582 6.43623C20.6582 6.02183 20.4936 5.6244 20.2005 5.33138C19.9075 5.03835 19.5101 4.87373 19.0957 4.87373V4.87623Z" fill="var(--color-primary)"/>
	</symbol>

	<symbol id="forgot_password" viewBox="0 0 500 657" fill="none">
		<path d="M250 0.321777C208.56 0.321777 168.817 16.7838 139.515 46.0863C110.212 75.3889 93.75 115.132 93.75 156.572V219.072H62.5C45.924 219.072 30.0268 225.657 18.3058 237.378C6.5848 249.099 0 264.996 0 281.572V594.072C0 610.648 6.5848 626.545 18.3058 638.266C30.0268 649.987 45.924 656.572 62.5 656.572H437.5C454.076 656.572 469.973 649.987 481.694 638.266C493.415 626.545 500 610.648 500 594.072V281.572C500 264.996 493.415 249.099 481.694 237.378C469.973 225.657 454.076 219.072 437.5 219.072H406.25V156.572C406.25 136.053 402.208 115.735 394.356 96.7775C386.504 77.8204 374.995 60.5955 360.485 46.0863C345.976 31.5772 328.751 20.0679 309.794 12.2156C290.837 4.3633 270.519 0.321777 250 0.321777ZM250 59.6968C303.438 59.6968 346.875 103.134 346.875 156.572V219.072H153.125V156.572C153.125 103.134 196.562 59.6968 250 59.6968ZM255.937 297.197C285.312 297.197 308.75 303.759 325.625 316.572C342.5 329.697 350.937 347.197 350.937 369.072C350.937 382.822 346.25 395.009 337.187 406.572C328.125 417.822 316.25 426.572 301.875 433.134C293.75 437.822 288.438 442.509 285.625 447.822C282.813 453.447 281.25 460.322 281.25 469.072H218.75C218.75 453.447 221.875 442.822 227.812 435.322C234.375 427.822 245 419.072 261.25 409.072C269.375 404.697 275.937 399.072 281.25 392.197C285.625 385.634 288.125 377.822 288.125 369.072C288.125 359.697 285.312 352.822 279.687 347.509C274.062 341.884 265.625 339.384 255.937 339.384C247.5 339.384 240.625 341.572 234.375 345.947C229.375 350.322 226.25 356.884 226.25 365.634H164.688C163.125 344.072 171.875 325.322 189.063 314.072C205.938 302.822 228.125 297.197 255.937 297.197ZM218.75 500.322H281.25V562.822H218.75V500.322Z" fill="var(--color-primary)"/>
	</symbol>

	<symbol id="name" viewBox="0 0 500 501" fill="none" >
		<path d="M187.5 0.80127C181.975 0.80127 176.676 2.99621 172.769 6.90322C168.862 10.8102 166.667 16.1093 166.667 21.6346C166.667 27.1599 168.862 32.459 172.769 36.366C176.676 40.273 181.975 42.4679 187.5 42.4679H229.167V459.135H187.5C181.975 459.135 176.676 461.33 172.769 465.237C168.862 469.144 166.667 474.443 166.667 479.968C166.667 485.493 168.862 490.792 172.769 494.699C176.676 498.606 181.975 500.801 187.5 500.801H312.5C318.025 500.801 323.324 498.606 327.231 494.699C331.138 490.792 333.333 485.493 333.333 479.968C333.333 474.443 331.138 469.144 327.231 465.237C323.324 461.33 318.025 459.135 312.5 459.135H270.833V42.4679H312.5C318.025 42.4679 323.324 40.273 327.231 36.366C331.138 32.459 333.333 27.1599 333.333 21.6346C333.333 16.1093 331.138 10.8102 327.231 6.90322C323.324 2.99621 318.025 0.80127 312.5 0.80127H187.5ZM83.3333 84.1346H187.5V417.468H83.3333C61.232 417.468 40.0358 408.688 24.4078 393.06C8.77973 377.432 0 356.236 0 334.135V167.468C0 145.367 8.77973 124.17 24.4078 108.542C40.0358 92.9143 61.232 84.1346 83.3333 84.1346ZM416.667 417.468H312.5V84.1346H416.667C438.768 84.1346 459.964 92.9143 475.592 108.542C491.22 124.17 500 145.367 500 167.468V334.135C500 356.236 491.22 377.432 475.592 393.06C459.964 408.688 438.768 417.468 416.667 417.468Z" fill="var(--color-primary)"/>
	</symbol>

</svg>
