<?xml version="1.0" encoding="utf-8"?>
<svg xmlns="http://www.w3.org/2000/svg">
	<symbol id="arrow" viewBox="0 0 501 793">
		<path
			fill-rule="evenodd"
			clip-rule="evenodd"
			d="M30.9018 469.669C-9.53758 429.232 -9.53758 363.662 30.9018 323.225L323.797 30.3334C353.414 0.717373 397.952 -8.14256 436.639 7.88532C475.336 23.9132 500.572 61.6726 500.572 103.556V689.335C500.572 731.222 475.336 768.978 436.639 785.008C397.952 801.038 353.414 792.174 323.797 762.558L30.9018 469.669Z"
			fill="currentColor"
		/>
	</symbol>
	<symbol id="assignment" viewBox="0 0 451 501">
		<path
			d="M50.9063 500.894C37.1563 500.894 25.3813 495.994 15.5813 486.194C5.78129 476.394 0.889626 464.627 0.906292 450.894V100.894C0.906292 87.1435 5.80629 75.3685 15.6063 65.5685C25.4063 55.7685 37.173 50.8769 50.9063 50.8936H155.906C161.323 35.8936 170.39 23.8102 183.106 14.6436C195.823 5.47689 210.09 0.893555 225.906 0.893555C241.74 0.893555 256.015 5.47689 268.731 14.6436C281.448 23.8102 290.506 35.8936 295.906 50.8936H400.906C414.656 50.8936 426.431 55.7936 436.231 65.5936C446.031 75.3936 450.923 87.1602 450.906 100.894V450.894C450.906 464.644 446.006 476.419 436.206 486.219C426.406 496.019 414.64 500.91 400.906 500.894H50.9063ZM100.906 400.894H275.906V350.894H100.906V400.894ZM100.906 300.894H350.906V250.894H100.906V300.894ZM100.906 200.894H350.906V150.894H100.906V200.894ZM225.906 82.1435C231.323 82.1435 235.798 80.3686 239.331 76.8186C242.865 73.2686 244.64 68.7935 244.656 63.3935C244.656 57.9769 242.881 53.5019 239.331 49.9686C235.781 46.4352 231.306 44.6602 225.906 44.6436C220.49 44.6436 216.015 46.4186 212.481 49.9686C208.948 53.5186 207.173 57.9936 207.156 63.3935C207.156 68.8102 208.931 73.2852 212.481 76.8186C216.031 80.3519 220.506 82.1269 225.906 82.1435Z"
			fill="currentColor"
		/>
	</symbol>
	<symbol id="box" viewBox="0 0 501 500">
		<g clip-path="url(#clip0_1177_13908)">
			<path
				d="M57.4706 29.5759L0.885742 142.857H233.029V0H105.462C85.1491 0 66.6224 11.4955 57.4706 29.5759ZM268.743 142.857H500.886L444.301 29.5759C435.149 11.4955 416.622 0 396.31 0H268.743V142.857ZM500.886 178.571H0.885742V428.571C0.885742 467.969 32.917 500 72.3143 500H429.457C468.855 500 500.886 467.969 500.886 428.571V178.571Z"
				fill="currentColor"
			/>
		</g>
		<defs>
			<clipPath id="clip0_1177_13908">
				<rect
					width="500"
					height="500"
					fill="white"
					transform="translate(0.885742)"
				/>
			</clipPath>
		</defs>
	</symbol>
	<symbol id="building" viewBox="0 0 438 501">
		<g clip-path="url(#clip0_1038_5112)">
			<path
				d="M425.875 469.644H406.344V24.3311C406.344 11.3867 395.851 0.893555 382.906 0.893555H54.7812C41.8369 0.893555 31.3438 11.3867 31.3438 24.3311V469.644H11.8125C5.34082 469.644 0.09375 474.891 0.09375 481.362V500.894H437.594V481.362C437.594 474.891 432.347 469.644 425.875 469.644ZM125.094 75.1123C125.094 68.6406 130.341 63.3936 136.812 63.3936H175.875C182.347 63.3936 187.594 68.6406 187.594 75.1123V114.175C187.594 120.646 182.347 125.894 175.875 125.894H136.812C130.341 125.894 125.094 120.646 125.094 114.175V75.1123ZM125.094 168.862C125.094 162.391 130.341 157.144 136.812 157.144H175.875C182.347 157.144 187.594 162.391 187.594 168.862V207.925C187.594 214.396 182.347 219.644 175.875 219.644H136.812C130.341 219.644 125.094 214.396 125.094 207.925V168.862ZM175.875 313.394H136.812C130.341 313.394 125.094 308.146 125.094 301.675V262.612C125.094 256.141 130.341 250.894 136.812 250.894H175.875C182.347 250.894 187.594 256.141 187.594 262.612V301.675C187.594 308.146 182.347 313.394 175.875 313.394ZM250.094 469.644H187.594V387.612C187.594 381.141 192.841 375.894 199.312 375.894H238.375C244.847 375.894 250.094 381.141 250.094 387.612V469.644ZM312.594 301.675C312.594 308.146 307.347 313.394 300.875 313.394H261.812C255.341 313.394 250.094 308.146 250.094 301.675V262.612C250.094 256.141 255.341 250.894 261.812 250.894H300.875C307.347 250.894 312.594 256.141 312.594 262.612V301.675ZM312.594 207.925C312.594 214.396 307.347 219.644 300.875 219.644H261.812C255.341 219.644 250.094 214.396 250.094 207.925V168.862C250.094 162.391 255.341 157.144 261.812 157.144H300.875C307.347 157.144 312.594 162.391 312.594 168.862V207.925ZM312.594 114.175C312.594 120.646 307.347 125.894 300.875 125.894H261.812C255.341 125.894 250.094 120.646 250.094 114.175V75.1123C250.094 68.6406 255.341 63.3936 261.812 63.3936H300.875C307.347 63.3936 312.594 68.6406 312.594 75.1123V114.175Z"
				fill="currentColor"
			/>
		</g>
		<defs>
			<clipPath id="clip0_1038_5112">
				<rect
					width="437.5"
					height="500"
					fill="white"
					transform="translate(0.09375 0.893555)"
				/>
			</clipPath>
		</defs>
	</symbol>
	<symbol id="calendar" viewBox="0 0 501 500">
		<g clip-path="url(#clip0_1100_12996)">
			<path
				d="M500.215 107.142C500.215 88.1975 492.689 70.0293 479.294 56.6338C465.898 43.2383 447.73 35.7128 428.786 35.7128H410.929V18.3578C410.929 8.7484 403.54 0.500604 393.931 0.0206918C391.516 -0.095639 389.104 0.279444 386.838 1.12322C384.573 1.96699 382.503 3.26188 380.753 4.92943C379.003 6.59697 377.61 8.60245 376.658 10.8244C375.706 13.0463 375.215 15.4383 375.214 17.8556V35.7128H125.214V18.3578C125.214 8.7484 117.825 0.500604 108.216 0.0206918C105.801 -0.095639 103.388 0.279444 101.123 1.12322C98.8579 1.96699 96.7876 3.26188 95.0376 4.92943C93.2876 6.59697 91.8944 8.60245 90.9424 10.8244C89.9904 13.0463 89.4994 15.4383 89.4991 17.8556V35.7128H71.6419C52.6978 35.7128 34.5297 43.2383 21.1341 56.6338C7.73865 70.0293 0.213135 88.1975 0.213135 107.142V120.534C0.213135 121.718 0.68348 122.854 1.5207 123.691C2.35792 124.528 3.49343 124.999 4.67744 124.999H495.751C496.935 124.999 498.07 124.528 498.907 123.691C499.744 122.854 500.215 121.718 500.215 120.534V107.142ZM0.213135 428.571C0.213135 447.515 7.73865 465.683 21.1341 479.079C34.5297 492.474 52.6978 500 71.6419 500H428.786C447.73 500 465.898 492.474 479.294 479.079C492.689 465.683 500.215 447.515 500.215 428.571V164.061C500.215 163.173 499.862 162.322 499.234 161.694C498.606 161.066 497.755 160.713 496.867 160.713H3.56136C2.67336 160.713 1.82172 161.066 1.19381 161.694C0.565895 162.322 0.213135 163.173 0.213135 164.061V428.571ZM384.143 196.428C389.441 196.428 394.619 197.999 399.024 200.942C403.429 203.885 406.862 208.068 408.89 212.963C410.917 217.857 411.448 223.243 410.414 228.439C409.381 233.635 406.829 238.408 403.083 242.154C399.337 245.9 394.565 248.451 389.369 249.484C384.173 250.518 378.787 249.988 373.893 247.96C368.998 245.933 364.815 242.5 361.871 238.095C358.928 233.69 357.357 228.511 357.357 223.213C357.357 216.109 360.179 209.296 365.203 204.273C370.226 199.25 377.039 196.428 384.143 196.428ZM384.143 285.714C389.441 285.714 394.619 287.285 399.024 290.228C403.429 293.171 406.862 297.354 408.89 302.249C410.917 307.143 411.448 312.529 410.414 317.725C409.381 322.921 406.829 327.694 403.083 331.44C399.337 335.186 394.565 337.737 389.369 338.771C384.173 339.804 378.787 339.274 373.893 337.246C368.998 335.219 364.815 331.786 361.871 327.381C358.928 322.976 357.357 317.797 357.357 312.499C357.357 305.395 360.179 298.582 365.203 293.559C370.226 288.536 377.039 285.714 384.143 285.714ZM294.857 196.428C300.155 196.428 305.333 197.999 309.738 200.942C314.143 203.885 317.576 208.068 319.604 212.963C321.631 217.857 322.162 223.243 321.128 228.439C320.095 233.635 317.543 238.408 313.797 242.154C310.051 245.9 305.279 248.451 300.083 249.484C294.887 250.518 289.501 249.988 284.607 247.96C279.712 245.933 275.529 242.5 272.585 238.095C269.642 233.69 268.071 228.511 268.071 223.213C268.071 216.109 270.893 209.296 275.917 204.273C280.94 199.25 287.753 196.428 294.857 196.428ZM294.857 285.714C300.155 285.714 305.333 287.285 309.738 290.228C314.143 293.171 317.576 297.354 319.604 302.249C321.631 307.143 322.162 312.529 321.128 317.725C320.095 322.921 317.543 327.694 313.797 331.44C310.051 335.186 305.279 337.737 300.083 338.771C294.887 339.804 289.501 339.274 284.607 337.246C279.712 335.219 275.529 331.786 272.585 327.381C269.642 322.976 268.071 317.797 268.071 312.499C268.071 305.395 270.893 298.582 275.917 293.559C280.94 288.536 287.753 285.714 294.857 285.714ZM294.857 375C300.155 375 305.333 376.571 309.738 379.514C314.143 382.457 317.576 386.64 319.604 391.535C321.631 396.429 322.162 401.815 321.128 407.011C320.095 412.207 317.543 416.98 313.797 420.726C310.051 424.472 305.279 427.023 300.083 428.056C294.887 429.09 289.501 428.56 284.607 426.532C279.712 424.505 275.529 421.072 272.585 416.667C269.642 412.262 268.071 407.083 268.071 401.785C268.071 394.681 270.893 387.868 275.917 382.845C280.94 377.822 287.753 375 294.857 375ZM205.571 285.714C210.869 285.714 216.047 287.285 220.452 290.228C224.857 293.171 228.29 297.354 230.318 302.249C232.345 307.143 232.876 312.529 231.842 317.725C230.809 322.921 228.257 327.694 224.511 331.44C220.765 335.186 215.993 337.737 210.797 338.771C205.601 339.804 200.215 339.274 195.32 337.246C190.426 335.219 186.243 331.786 183.299 327.381C180.356 322.976 178.785 317.797 178.785 312.499C178.785 305.395 181.607 298.582 186.631 293.559C191.654 288.536 198.467 285.714 205.571 285.714ZM205.571 375C210.869 375 216.047 376.571 220.452 379.514C224.857 382.457 228.29 386.64 230.318 391.535C232.345 396.429 232.876 401.815 231.842 407.011C230.809 412.207 228.257 416.98 224.511 420.726C220.765 424.472 215.993 427.023 210.797 428.056C205.601 429.09 200.215 428.56 195.32 426.532C190.426 424.505 186.243 421.072 183.299 416.667C180.356 412.262 178.785 407.083 178.785 401.785C178.785 394.681 181.607 387.868 186.631 382.845C191.654 377.822 198.467 375 205.571 375ZM116.285 285.714C121.583 285.714 126.761 287.285 131.166 290.228C135.571 293.171 139.004 297.354 141.032 302.249C143.059 307.143 143.59 312.529 142.556 317.725C141.523 322.921 138.971 327.694 135.225 331.44C131.479 335.186 126.707 337.737 121.511 338.771C116.315 339.804 110.929 339.274 106.034 337.246C101.14 335.219 96.9566 331.786 94.0134 327.381C91.0701 322.976 89.4991 317.797 89.4991 312.499C89.4991 305.395 92.3212 298.582 97.3445 293.559C102.368 288.536 109.181 285.714 116.285 285.714ZM116.285 375C121.583 375 126.761 376.571 131.166 379.514C135.571 382.457 139.004 386.64 141.032 391.535C143.059 396.429 143.59 401.815 142.556 407.011C141.523 412.207 138.971 416.98 135.225 420.726C131.479 424.472 126.707 427.023 121.511 428.056C116.315 429.09 110.929 428.56 106.034 426.532C101.14 424.505 96.9566 421.072 94.0134 416.667C91.0701 412.262 89.4991 407.083 89.4991 401.785C89.4991 394.681 92.3212 387.868 97.3445 382.845C102.368 377.822 109.181 375 116.285 375Z"
				fill="currentColor"
			/>
		</g>
		<defs>
			<clipPath id="clip0_1100_12996">
				<rect
					width="500.002"
					height="500"
					fill="white"
					transform="translate(0.213135)"
				/>
			</clipPath>
		</defs>
	</symbol>
	<symbol id="car" viewBox="0 0 715 501">
		<path
			d="M191.803 72.3221H250.62V179.465H124.839L158.768 94.7552C164.125 81.2507 177.183 72.3221 191.803 72.3221ZM304.192 179.465V72.3221H394.817C405.643 72.3221 415.911 77.2328 422.719 85.715L497.719 179.465H304.192ZM590.129 180.581L478.522 41.0721C458.21 15.6257 427.406 0.893555 394.817 0.893555H191.803C147.942 0.893555 108.544 27.5677 92.3614 68.1927L45.9329 184.376C19.3704 194.867 0.620361 220.648 0.620361 250.894V375.894C0.620361 395.648 16.5802 411.608 36.3346 411.608H73.4998C81.982 462.277 126.067 500.894 179.192 500.894C232.317 500.894 276.402 462.277 284.884 411.608H430.643C439.125 462.277 483.21 500.894 536.335 500.894C589.46 500.894 633.544 462.277 642.027 411.608H679.192C698.946 411.608 714.906 395.648 714.906 375.894V322.322C714.906 249.554 660.442 189.51 590.129 180.581ZM485.777 375.894C488.05 369.17 491.637 362.966 496.329 357.641C501.02 352.315 506.723 347.975 513.107 344.873C519.49 341.77 526.426 339.967 533.512 339.568C540.598 339.169 547.693 340.182 554.384 342.548C561.075 344.914 567.229 348.586 572.49 353.35C577.75 358.115 582.011 363.877 585.025 370.303C588.039 376.728 589.747 383.688 590.048 390.779C590.35 397.87 589.239 404.95 586.781 411.608C584.508 418.331 580.921 424.536 576.229 429.861C571.537 435.186 565.834 439.526 559.451 442.628C553.068 445.731 546.132 447.534 539.046 447.933C531.96 448.332 524.865 447.32 518.174 444.954C511.483 442.588 505.328 438.916 500.068 434.151C494.808 429.387 490.547 423.624 487.533 417.199C484.519 410.773 482.811 403.813 482.51 396.722C482.208 389.632 483.319 382.552 485.777 375.894ZM179.192 340.179C193.4 340.179 207.026 345.823 217.073 355.87C227.119 365.917 232.763 379.543 232.763 393.751C232.763 407.959 227.119 421.585 217.073 431.631C207.026 441.678 193.4 447.322 179.192 447.322C164.984 447.322 151.358 441.678 141.311 431.631C131.264 421.585 125.62 407.959 125.62 393.751C125.62 379.543 131.264 365.917 141.311 355.87C151.358 345.823 164.984 340.179 179.192 340.179Z"
			fill="currentColor"
		/>
	</symbol>
	<symbol id="cart" viewBox="0 0 501 500">
		<g clip-path="url(#clip0_1171_12825)">
			<path
				d="M400.886 400C373.136 400 350.886 422.25 350.886 450C350.886 463.261 356.154 475.979 365.531 485.355C374.907 494.732 387.625 500 400.886 500C414.147 500 426.864 494.732 436.241 485.355C445.618 475.979 450.886 463.261 450.886 450C450.886 436.739 445.618 424.021 436.241 414.645C426.864 405.268 414.147 400 400.886 400ZM0.885986 0V50H50.886L140.886 239.75L106.886 301C103.136 308 100.886 316.25 100.886 325C100.886 338.261 106.154 350.979 115.531 360.355C124.907 369.732 137.625 375 150.886 375H450.886V325H161.386C159.728 325 158.139 324.342 156.967 323.169C155.794 321.997 155.136 320.408 155.136 318.75C155.136 317.5 155.386 316.5 155.886 315.75L178.386 275H364.636C383.386 275 399.886 264.5 408.386 249.25L497.886 87.5C499.636 83.5 500.886 79.25 500.886 75C500.886 68.3696 498.252 62.0107 493.564 57.3223C488.875 52.6339 482.516 50 475.886 50H106.136L82.636 0M150.886 400C123.136 400 100.886 422.25 100.886 450C100.886 463.261 106.154 475.979 115.531 485.355C124.907 494.732 137.625 500 150.886 500C164.147 500 176.864 494.732 186.241 485.355C195.618 475.979 200.886 463.261 200.886 450C200.886 436.739 195.618 424.021 186.241 414.645C176.864 405.268 164.147 400 150.886 400Z"
				fill="currentColor"
			/>
		</g>
		<defs>
			<clipPath id="clip0_1171_12825">
				<rect
					width="500"
					height="500"
					fill="white"
					transform="translate(0.885986)"
				/>
			</clipPath>
		</defs>
	</symbol>
	<symbol id="checkbox" viewBox="0 0 501 500">
		<g clip-path="url(#clip0_915_10179)">
			<rect
				x="27"
				y="26.5"
				width="447"
				height="447"
				rx="43.5"
				stroke="currentColor"
				stroke-width="53"
			/>
		</g>
		<defs>
			<clipPath id="clip0_915_10179">
				<rect
					width="500"
					height="500"
					fill="white"
					transform="translate(0.5)"
				/>
			</clipPath>
		</defs>
	</symbol>
	<symbol id="checked" viewBox="0 0 501 501">
		<g clip-path="url(#clip0_915_10180)">
			<path
				d="M423.505 0.446777H77.3508C56.9564 0.469047 37.4036 8.58057 22.9826 23.0016C8.56153 37.4227 0.450004 56.9754 0.427734 77.3699V423.524C0.450004 443.918 8.56153 463.471 22.9826 477.892C37.4036 492.313 56.9564 500.425 77.3508 500.447H423.505C443.899 500.425 463.452 492.313 477.873 477.892C492.294 463.471 500.405 443.918 500.428 423.524V77.3699C500.405 56.9754 492.294 37.4227 477.873 23.0016C463.452 8.58057 443.899 0.469047 423.505 0.446777ZM380.536 166.661L218.997 358.968C217.225 361.079 215.021 362.784 212.532 363.968C210.044 365.152 207.33 365.788 204.574 365.831H204.25C201.554 365.83 198.889 365.263 196.427 364.165C193.965 363.068 191.762 361.465 189.959 359.461L120.728 282.538C118.97 280.673 117.602 278.476 116.705 276.075C115.809 273.674 115.401 271.118 115.506 268.557C115.611 265.996 116.227 263.482 117.318 261.163C118.408 258.844 119.951 256.766 121.856 255.051C123.762 253.337 125.99 252.02 128.411 251.179C130.832 250.339 133.397 249.99 135.955 250.155C138.513 250.319 141.012 250.993 143.305 252.137C145.599 253.282 147.64 254.873 149.31 256.817L203.745 317.298L351.089 141.925C354.394 138.104 359.07 135.737 364.106 135.336C369.142 134.934 374.134 136.531 378.003 139.781C381.871 143.03 384.306 147.671 384.78 152.701C385.254 157.731 383.729 162.746 380.536 166.661Z"
				fill="currentColor"
			/>
		</g>
		<defs>
			<clipPath id="clip0_915_10180">
				<rect
					width="500"
					height="500"
					fill="white"
					transform="translate(0.427734 0.446777)"
				/>
			</clipPath>
		</defs>
	</symbol>
	<symbol id="ci" viewBox="0 0 501 400">
		<path
			d="M0.5 57.1429H500.5C500.5 25.625 475.587 0 444.944 0H56.0556C25.4132 0 0.5 25.625 0.5 57.1429ZM0.5 85.7143V342.857C0.5 374.375 25.4132 400 56.0556 400H444.944C475.587 400 500.5 374.375 500.5 342.857V85.7143H0.5ZM56.0556 333.304C56.0556 306.964 76.8021 285.714 102.323 285.714H204.233C229.84 285.714 250.5 307.054 250.5 333.304C250.5 338.571 246.333 342.857 241.212 342.857H65.3438C60.2222 342.857 56.0556 338.571 56.0556 333.304ZM153.278 142.857C168.012 142.857 182.143 148.878 192.561 159.594C202.98 170.31 208.833 184.845 208.833 200C208.833 215.155 202.98 229.69 192.561 240.406C182.143 251.122 168.012 257.143 153.278 257.143C138.544 257.143 124.413 251.122 113.994 240.406C103.575 229.69 97.7222 215.155 97.7222 200C97.7222 184.845 103.575 170.31 113.994 159.594C124.413 148.878 138.544 142.857 153.278 142.857ZM306.056 157.143C306.056 149.286 312.306 142.857 319.944 142.857H431.056C438.694 142.857 444.944 149.286 444.944 157.143C444.944 165 438.694 171.429 431.056 171.429H319.944C312.306 171.429 306.056 165 306.056 157.143ZM306.056 214.286C306.056 206.429 312.306 200 319.944 200H431.056C438.694 200 444.944 206.429 444.944 214.286C444.944 222.143 438.694 228.571 431.056 228.571H319.944C312.306 228.571 306.056 222.143 306.056 214.286ZM306.056 271.429C306.056 263.571 312.306 257.143 319.944 257.143H431.056C438.694 257.143 444.944 263.571 444.944 271.429C444.944 279.286 438.694 285.714 431.056 285.714H319.944C312.306 285.714 306.056 279.286 306.056 271.429Z"
			fill="currentColor"
		/>
	</symbol>
	<symbol id="close" viewBox="0 0 501 501">
		<g clip-path="url(#clip0_915_10102)">
			<path
				d="M14.5498 14.4243C23.5022 5.47448 35.6428 0.446777 48.3016 0.446777C60.9604 0.446777 73.101 5.47448 82.0535 14.4243L250.86 183.231L419.668 14.4243C428.671 5.72812 440.73 0.916246 453.248 1.02502C465.765 1.13379 477.738 6.15451 486.59 15.0058C495.441 23.8571 500.462 35.8308 500.57 48.3479C500.679 60.8651 495.867 72.9242 487.171 81.928L318.364 250.735L487.171 419.542C495.867 428.546 500.679 440.605 500.57 453.122C500.462 465.639 495.441 477.613 486.59 486.464C477.738 495.315 465.765 500.336 453.248 500.445C440.73 500.554 428.671 495.742 419.668 487.046L250.86 318.239L82.0535 487.046C73.0497 495.742 60.9906 500.554 48.4734 500.445C35.9563 500.336 23.9826 495.315 15.1313 486.464C6.27999 477.613 1.25928 465.639 1.15051 453.122C1.04173 440.605 5.85361 428.546 14.5498 419.542L183.357 250.735L14.5498 81.928C5.59997 72.9755 0.572266 60.8349 0.572266 48.1761C0.572266 35.5173 5.59997 23.3767 14.5498 14.4243Z"
				fill="currentColor"
			/>
		</g>
		<defs>
			<clipPath id="clip0_915_10102">
				<rect
					width="500"
					height="500"
					fill="white"
					transform="translate(0.572266 0.446777)"
				/>
			</clipPath>
		</defs>
	</symbol>
	<symbol id="code" viewBox="0 0 621 500">
		<g clip-path="url(#clip0_1111_9473)">
			<path
				d="M0.213135 98.2143C0.213135 72.1662 11.4402 47.1851 31.4246 28.7663C51.4089 10.3475 78.5135 0 106.776 0H135.838C143.546 0 150.938 2.82205 156.388 7.84535C161.839 12.8686 164.901 19.6817 164.901 26.7857C164.901 33.8897 161.839 40.7028 156.388 45.7261C150.938 50.7494 143.546 53.5714 135.838 53.5714H106.776C80.0381 53.5714 58.3381 73.5714 58.3381 98.2143V125C58.3381 132.104 55.2762 138.917 49.8259 143.94C44.3757 148.964 36.9835 151.786 29.2756 151.786C21.5678 151.786 14.1756 148.964 8.72534 143.94C3.27506 138.917 0.213135 132.104 0.213135 125V98.2143ZM455.526 26.7857C455.526 19.6817 458.588 12.8686 464.038 7.84535C469.488 2.82205 476.88 0 484.588 0H513.651C541.913 0 569.017 10.3475 589.002 28.7663C608.986 47.1851 620.213 72.1662 620.213 98.2143V125C620.213 132.104 617.151 138.917 611.701 143.94C606.251 148.964 598.858 151.786 591.151 151.786C583.443 151.786 576.051 148.964 570.6 143.94C565.15 138.917 562.088 132.104 562.088 125V98.2143C562.088 73.5714 540.388 53.5714 513.651 53.5714H484.588C476.88 53.5714 469.488 50.7494 464.038 45.7261C458.588 40.7028 455.526 33.8897 455.526 26.7857ZM29.2756 348.214C36.9835 348.214 44.3757 351.036 49.8259 356.06C55.2762 361.083 58.3381 367.896 58.3381 375V401.786C58.3381 426.429 80.0381 446.429 106.776 446.429H135.838C143.546 446.429 150.938 449.251 156.388 454.274C161.839 459.297 164.901 466.11 164.901 473.214C164.901 480.318 161.839 487.131 156.388 492.155C150.938 497.178 143.546 500 135.838 500H106.776C78.5135 500 51.4089 489.652 31.4246 471.234C11.4402 452.815 0.213135 427.834 0.213135 401.786V375C0.213135 367.896 3.27506 361.083 8.72534 356.06C14.1756 351.036 21.5678 348.214 29.2756 348.214ZM591.151 348.214C598.858 348.214 606.251 351.036 611.701 356.06C617.151 361.083 620.213 367.896 620.213 375V401.786C620.213 427.834 608.986 452.815 589.002 471.234C569.017 489.652 541.913 500 513.651 500H484.588C476.88 500 469.488 497.178 464.038 492.155C458.588 487.131 455.526 480.318 455.526 473.214C455.526 466.11 458.588 459.297 464.038 454.274C469.488 449.251 476.88 446.429 484.588 446.429H513.651C540.388 446.429 562.088 426.429 562.088 401.786V375C562.088 367.896 565.15 361.083 570.6 356.06C576.051 351.036 583.443 348.214 591.151 348.214ZM135.838 107.143C143.546 107.143 150.938 109.965 156.388 114.988C161.839 120.012 164.901 126.825 164.901 133.929V366.071C164.901 373.175 161.839 379.988 156.388 385.012C150.938 390.035 143.546 392.857 135.838 392.857C128.13 392.857 120.738 390.035 115.288 385.012C109.838 379.988 106.776 373.175 106.776 366.071V133.929C106.776 126.825 109.838 120.012 115.288 114.988C120.738 109.965 128.13 107.143 135.838 107.143ZM281.151 133.929C281.151 126.825 278.089 120.012 272.638 114.988C267.188 109.965 259.796 107.143 252.088 107.143C244.38 107.143 236.988 109.965 231.538 114.988C226.088 120.012 223.026 126.825 223.026 133.929V366.071C223.026 373.175 226.088 379.988 231.538 385.012C236.988 390.035 244.38 392.857 252.088 392.857C259.796 392.857 267.188 390.035 272.638 385.012C278.089 379.988 281.151 373.175 281.151 366.071V133.929ZM368.338 107.143C376.046 107.143 383.438 109.965 388.888 114.988C394.339 120.012 397.401 126.825 397.401 133.929V366.071C397.401 373.175 394.339 379.988 388.888 385.012C383.438 390.035 376.046 392.857 368.338 392.857C360.63 392.857 353.238 390.035 347.788 385.012C342.338 379.988 339.276 373.175 339.276 366.071V133.929C339.276 126.825 342.338 120.012 347.788 114.988C353.238 109.965 360.63 107.143 368.338 107.143ZM513.651 133.929C513.651 126.825 510.589 120.012 505.138 114.988C499.688 109.965 492.296 107.143 484.588 107.143C476.88 107.143 469.488 109.965 464.038 114.988C458.588 120.012 455.526 126.825 455.526 133.929V366.071C455.526 373.175 458.588 379.988 464.038 385.012C469.488 390.035 476.88 392.857 484.588 392.857C492.296 392.857 499.688 390.035 505.138 385.012C510.589 379.988 513.651 373.175 513.651 366.071V133.929Z"
				fill="currentColor"
			/>
		</g>
		<defs>
			<clipPath id="clip0_1111_9473">
				<rect
					width="620"
					height="500"
					fill="white"
					transform="translate(0.213135)"
				/>
			</clipPath>
		</defs>
	</symbol>
	<symbol id="delete" viewBox="0 0 501 500">
		<g clip-path="url(#clip0_915_10174)">
			<path
				d="M94.2501 500C77.0626 500 62.3438 494.556 50.0938 483.667C37.8438 472.778 31.7293 459.704 31.7501 444.444V83.3334C22.8959 83.3334 15.4689 80.6667 9.46886 75.3334C3.46886 70.0001 0.479275 63.4075 0.500108 55.5556C0.500108 47.6853 3.50011 41.0834 9.50011 35.7501C15.5001 30.4168 22.9168 27.7593 31.7501 27.7779H156.75C156.75 19.9075 159.75 13.3056 165.75 7.97231C171.75 2.63898 179.167 -0.0184224 188 9.61169e-05H313C321.854 9.61169e-05 329.281 2.66676 335.281 8.0001C341.281 13.3334 344.271 19.926 344.25 27.7779H469.25C478.104 27.7779 485.531 30.4445 491.531 35.7779C497.531 41.1112 500.521 47.7038 500.5 55.5556C500.5 63.426 497.5 70.0279 491.5 75.3612C485.5 80.6945 478.083 83.3519 469.25 83.3334V444.444C469.25 459.722 463.125 472.806 450.875 483.694C438.625 494.583 423.917 500.018 406.75 500H94.2501ZM250.5 302.778L309.875 355.556C315.604 360.648 322.896 363.194 331.75 363.194C340.604 363.194 347.896 360.648 353.625 355.556C359.354 350.463 362.219 343.981 362.219 336.111C362.219 328.241 359.354 321.759 353.625 316.667L294.25 263.889L353.625 211.111C359.354 206.019 362.219 199.537 362.219 191.667C362.219 183.796 359.354 177.315 353.625 172.222C347.896 167.13 340.604 164.583 331.75 164.583C322.896 164.583 315.604 167.13 309.875 172.222L250.5 225L191.125 172.222C185.396 167.13 178.104 164.583 169.25 164.583C160.396 164.583 153.104 167.13 147.375 172.222C141.646 177.315 138.781 183.796 138.781 191.667C138.781 199.537 141.646 206.019 147.375 211.111L206.75 263.889L147.375 316.667C141.646 321.759 138.781 328.241 138.781 336.111C138.781 343.981 141.646 350.463 147.375 355.556C153.104 360.648 160.396 363.194 169.25 363.194C178.104 363.194 185.396 360.648 191.125 355.556L250.5 302.778Z"
				fill="currentColor"
			/>
		</g>
		<defs>
			<clipPath id="clip0_915_10174">
				<rect
					width="500"
					height="500"
					fill="white"
					transform="translate(0.5)"
				/>
			</clipPath>
		</defs>
	</symbol>
	<symbol id="edit" viewBox="0 0 501 500">
		<g clip-path="url(#clip0_915_10175)">
			<path
				d="M446.439 169.178L330.167 54.1096L368.468 15.7534C378.955 5.25114 391.841 0 407.125 0C422.409 0 435.286 5.25114 445.755 15.7534L484.057 54.1096C494.544 64.6119 500.016 77.2877 500.472 92.137C500.927 106.986 495.912 119.653 485.425 130.137L446.439 169.178ZM406.77 209.589L116.772 500H0.5V383.562L290.497 93.1507L406.77 209.589Z"
				fill="currentColor"
			/>
		</g>
		<defs>
			<clipPath id="clip0_915_10175">
				<rect
					width="500"
					height="500"
					fill="white"
					transform="translate(0.5)"
				/>
			</clipPath>
		</defs>
	</symbol>
	<symbol id="email" viewBox="0 0 501 400">
		<path
			d="M450.5 0H50.5C23 0 0.75 22.5 0.75 50L0.5 350C0.5 377.5 23 400 50.5 400H450.5C478 400 500.5 377.5 500.5 350V50C500.5 22.5 478 0 450.5 0ZM440.5 106.25L263.75 216.75C255.75 221.75 245.25 221.75 237.25 216.75L60.5 106.25C57.9932 104.843 55.798 102.942 54.0472 100.661C52.2965 98.3812 51.0266 95.7694 50.3144 92.9843C49.6022 90.1991 49.4626 87.2984 49.9039 84.4577C50.3453 81.617 51.3584 78.8953 52.882 76.4575C54.4057 74.0197 56.4081 71.9164 58.7682 70.2749C61.1282 68.6334 63.7968 67.4878 66.6124 66.9075C69.428 66.3271 72.3321 66.3242 75.1489 66.8987C77.9657 67.4732 80.6366 68.6133 83 70.25L250.5 175L418 70.25C420.363 68.6133 423.034 67.4732 425.851 66.8987C428.668 66.3242 431.572 66.3271 434.388 66.9075C437.203 67.4878 439.872 68.6334 442.232 70.2749C444.592 71.9164 446.594 74.0197 448.118 76.4575C449.642 78.8953 450.655 81.617 451.096 84.4577C451.537 87.2984 451.398 90.1991 450.686 92.9843C449.973 95.7694 448.704 98.3812 446.953 100.661C445.202 102.942 443.007 104.843 440.5 106.25Z"
			fill="currentColor"
		/>
	</symbol>
	<symbol id="exit" viewBox="0 0 501 500">
		<path
			fill-rule="evenodd"
			clip-rule="evenodd"
			d="M348.448 0C341.837 8.2217 336.859 17.6313 333.781 27.7222H316.225C294.124 27.7222 272.928 36.502 257.3 52.13C241.672 67.758 232.892 88.9542 232.892 111.056C232.892 133.157 241.672 154.353 257.3 169.981C272.928 185.609 294.124 194.389 316.225 194.389H333.725C337.614 207.056 344.559 219 354.559 229C362.685 237.135 372.41 243.496 383.12 247.679C393.831 251.863 405.292 253.779 416.781 253.306V444.444H472.336C479.704 444.444 486.769 447.371 491.978 452.58C497.188 457.79 500.114 464.855 500.114 472.222C500.114 479.589 497.188 486.655 491.978 491.864C486.769 497.073 479.704 500 472.336 500H27.892C20.5249 500 13.4595 497.073 8.25018 491.864C3.04084 486.655 0.114258 479.589 0.114258 472.222C0.114258 464.855 3.04084 457.79 8.25018 452.58C13.4595 447.371 20.5249 444.444 27.892 444.444V55.5556C27.892 40.8213 33.7452 26.6905 44.1639 16.2718C54.5826 5.85316 68.7133 0 83.4476 0H348.448ZM291.781 277.778C280.73 277.778 270.132 282.168 262.318 289.982C254.504 297.796 250.114 308.394 250.114 319.444C250.114 330.495 254.504 341.093 262.318 348.907C270.132 356.721 280.73 361.111 291.781 361.111C302.832 361.111 313.43 356.721 321.244 348.907C329.058 341.093 333.448 330.495 333.448 319.444C333.448 308.394 329.058 297.796 321.244 289.982C313.43 282.168 302.832 277.778 291.781 277.778ZM433.086 32.5556L491.975 91.4444C497.174 96.6524 500.094 103.711 500.094 111.069C500.094 118.428 497.174 125.486 491.975 130.694L433.086 189.667C430.526 192.321 427.462 194.44 424.074 195.898C420.686 197.356 417.042 198.125 413.354 198.16C409.665 198.194 406.007 197.494 402.592 196.1C399.178 194.705 396.075 192.645 393.465 190.039C390.855 187.432 388.79 184.332 387.391 180.92C385.992 177.507 385.287 173.85 385.316 170.161C385.345 166.473 386.109 162.828 387.562 159.438C389.016 156.048 391.13 152.981 393.781 150.417L405.336 138.833H316.225C308.858 138.833 301.793 135.907 296.584 130.697C291.374 125.488 288.448 118.423 288.448 111.056C288.448 103.688 291.374 96.623 296.584 91.4137C301.793 86.2044 308.858 83.2778 316.225 83.2778H405.253L393.809 71.8333C388.749 66.5944 385.949 59.5777 386.012 52.2944C386.076 45.0112 388.997 38.0441 394.147 32.8939C399.297 27.7437 406.264 24.8223 413.548 24.7591C420.831 24.6958 427.848 27.4956 433.086 32.5556Z"
			fill="currentColor"
		/>
	</symbol>
	<symbol id="eye_hidden" viewBox="0 0 501 500">
		<path
			d="M246.636 157.895L318.682 241.053V236.842C318.682 215.904 311.498 195.823 298.712 181.018C285.925 166.212 268.583 157.895 250.5 157.895H246.636ZM148.909 178.947L184.136 219.737C183 225.263 182.318 230.789 182.318 236.842C182.318 257.78 189.502 277.861 202.288 292.666C215.075 307.472 232.417 315.789 250.5 315.789C255.5 315.789 260.5 315 265.273 313.684L300.5 354.474C285.273 363.158 268.455 368.421 250.5 368.421C220.362 368.421 191.458 354.558 170.147 329.882C148.836 305.207 136.864 271.739 136.864 236.842C136.864 216.053 141.409 196.579 148.909 178.947ZM23.2273 33.4211L75.0455 93.4211L85.2727 105.263C47.7727 139.474 18.2273 184.211 0.5 236.842C39.8182 352.368 136.864 434.211 250.5 434.211C285.727 434.211 319.364 426.316 350.045 412.105L359.818 423.158L426.182 500L455.045 466.579L52.0909 0M250.5 105.263C280.638 105.263 309.542 119.126 330.853 143.802C352.164 168.478 364.136 201.945 364.136 236.842C364.136 253.684 361.182 270 355.955 284.737L422.545 361.842C456.636 328.947 483.909 285.789 500.5 236.842C461.182 121.316 364.136 39.4737 250.5 39.4737C218.682 39.4737 188.227 46.0526 159.591 57.8947L208.909 114.474C221.864 108.684 235.727 105.263 250.5 105.263Z"
			fill="currentColor"
		/>
	</symbol>
	<symbol id="eye_visible" viewBox="0 0 501 400">
		<path
			d="M250.5 120C232.417 120 215.075 128.429 202.288 143.431C189.502 158.434 182.318 178.783 182.318 200C182.318 221.217 189.502 241.566 202.288 256.569C215.075 271.571 232.417 280 250.5 280C268.583 280 285.925 271.571 298.712 256.569C311.498 241.566 318.682 221.217 318.682 200C318.682 178.783 311.498 158.434 298.712 143.431C285.925 128.429 268.583 120 250.5 120ZM250.5 333.333C220.362 333.333 191.458 319.286 170.147 294.281C148.836 269.276 136.864 235.362 136.864 200C136.864 164.638 148.836 130.724 170.147 105.719C191.458 80.7142 220.362 66.6667 250.5 66.6667C280.638 66.6667 309.542 80.7142 330.853 105.719C352.164 130.724 364.136 164.638 364.136 200C364.136 235.362 352.164 269.276 330.853 294.281C309.542 319.286 280.638 333.333 250.5 333.333ZM250.5 0C136.864 0 39.8182 82.9333 0.5 200C39.8182 317.067 136.864 400 250.5 400C364.136 400 461.182 317.067 500.5 200C461.182 82.9333 364.136 0 250.5 0Z"
			fill="currentColor"
		/>
	</symbol>
	<symbol id="facebook" viewBox="0 0 501 501">
		<g clip-path="url(#clip0_678_1171)">
			<path
				d="M500.5 252.332C500.5 113.412 388.576 0.80127 250.531 0.80127C112.423 0.832516 0.5 113.412 0.5 252.364C0.5 377.879 91.9261 481.929 211.411 500.801V325.042H147.982V252.364H211.474V196.902C211.474 133.878 248.813 99.0702 305.899 99.0702C333.271 99.0702 361.861 103.976 361.861 103.976V165.843H330.334C299.306 165.843 289.62 185.247 289.62 205.151V252.332H358.924L347.863 325.011H289.589V500.77C409.074 481.897 500.5 377.848 500.5 252.332Z"
				fill="currentColor"
			/>
		</g>
		<defs>
			<clipPath id="clip0_678_1171">
				<rect
					width="500"
					height="500"
					fill="white"
					transform="translate(0.5 0.80127)"
				/>
			</clipPath>
		</defs>
	</symbol>
	<symbol id="forgot_password" viewBox="0 0 501 657">
		<path
			d="M250.572 0.321777C209.132 0.321777 169.389 16.7838 140.087 46.0863C110.784 75.3889 94.3223 115.132 94.3223 156.572V219.072H63.0723C46.4962 219.072 30.5991 225.657 18.8781 237.378C7.15707 249.099 0.572266 264.996 0.572266 281.572V594.072C0.572266 610.648 7.15707 626.545 18.8781 638.266C30.5991 649.987 46.4962 656.572 63.0723 656.572H438.072C454.648 656.572 470.545 649.987 482.266 638.266C493.987 626.545 500.572 610.648 500.572 594.072V281.572C500.572 264.996 493.987 249.099 482.266 237.378C470.545 225.657 454.648 219.072 438.072 219.072H406.822V156.572C406.822 136.053 402.781 115.735 394.928 96.7775C387.076 77.8204 375.567 60.5955 361.058 46.0863C346.549 31.5772 329.324 20.0679 310.367 12.2156C291.409 4.3633 271.091 0.321777 250.572 0.321777ZM250.572 59.6968C304.01 59.6968 347.447 103.134 347.447 156.572V219.072H153.697V156.572C153.697 103.134 197.135 59.6968 250.572 59.6968ZM256.51 297.197C285.885 297.197 309.322 303.759 326.197 316.572C343.072 329.697 351.51 347.197 351.51 369.072C351.51 382.822 346.822 395.009 337.76 406.572C328.697 417.822 316.822 426.572 302.447 433.134C294.322 437.822 289.01 442.509 286.197 447.822C283.385 453.447 281.822 460.322 281.822 469.072H219.322C219.322 453.447 222.447 442.822 228.385 435.322C234.947 427.822 245.572 419.072 261.822 409.072C269.947 404.697 276.51 399.072 281.822 392.197C286.197 385.634 288.697 377.822 288.697 369.072C288.697 359.697 285.885 352.822 280.26 347.509C274.635 341.884 266.197 339.384 256.51 339.384C248.072 339.384 241.197 341.572 234.947 345.947C229.947 350.322 226.822 356.884 226.822 365.634H165.26C163.697 344.072 172.447 325.322 189.635 314.072C206.51 302.822 228.697 297.197 256.51 297.197ZM219.322 500.322H281.822V562.822H219.322V500.322Z"
			fill="currentColor"
		/>
	</symbol>
	<symbol id="furniture" viewBox="0 0 701 501">
		<path
			d="M88.0723 0.446777C64.8658 0.446777 42.6099 9.66551 26.2004 26.0749C9.79099 42.4844 0.572266 64.7403 0.572266 87.9468V150.447H650.572V475.447C650.572 482.077 653.206 488.436 657.895 493.124C662.583 497.813 668.942 500.447 675.572 500.447C682.203 500.447 688.562 497.813 693.25 493.124C697.938 488.436 700.572 482.077 700.572 475.447V87.9468C700.572 64.7403 691.354 42.4844 674.944 26.0749C658.535 9.66551 636.279 0.446777 613.072 0.446777H88.0723ZM350.572 200.447H0.572266V412.947C0.572266 461.247 39.7723 500.447 88.0723 500.447H263.072C286.279 500.447 308.535 491.228 324.944 474.819C341.354 458.409 350.572 436.153 350.572 412.947V200.447ZM100.572 300.447C100.572 293.816 103.206 287.457 107.895 282.769C112.583 278.081 118.942 275.447 125.572 275.447H225.572C232.203 275.447 238.562 278.081 243.25 282.769C247.938 287.457 250.572 293.816 250.572 300.447C250.572 307.077 247.938 313.436 243.25 318.124C238.562 322.813 232.203 325.447 225.572 325.447H125.572C118.942 325.447 112.583 322.813 107.895 318.124C103.206 313.436 100.572 307.077 100.572 300.447Z"
			fill="currentColor"
		/>
	</symbol>
	<symbol id="gears" viewBox="0 0 546 501">
		<g clip-path="url(#clip0_1106_7382)">
			<path
				d="M254.829 250.305C254.829 230.24 247.73 213.11 233.534 198.914C219.337 184.717 202.207 177.619 182.143 177.619C162.078 177.619 144.948 184.717 130.751 198.914C116.555 213.11 109.457 230.24 109.457 250.305C109.457 270.369 116.555 287.5 130.751 301.696C144.948 315.893 162.078 322.991 182.143 322.991C202.207 322.991 219.337 315.893 233.534 301.696C247.73 287.5 254.829 270.369 254.829 250.305ZM472.887 395.677C472.887 385.834 469.29 377.316 462.097 370.123C454.904 362.93 446.386 359.334 436.544 359.334C426.701 359.334 418.183 362.93 410.99 370.123C403.797 377.316 400.201 385.834 400.201 395.677C400.201 405.709 403.75 414.274 410.848 421.372C417.946 428.471 426.511 432.02 436.544 432.02C446.576 432.02 455.141 428.471 462.239 421.372C469.337 414.274 472.887 405.709 472.887 395.677ZM472.887 104.933C472.887 95.09 469.29 86.5721 462.097 79.3792C454.904 72.1863 446.386 68.5899 436.544 68.5899C426.701 68.5899 418.183 72.1863 410.99 79.3792C403.797 86.5721 400.201 95.09 400.201 104.933C400.201 114.965 403.75 123.53 410.848 130.628C417.946 137.727 426.511 141.276 436.544 141.276C446.576 141.276 455.141 137.727 462.239 130.628C469.337 123.53 472.887 114.965 472.887 104.933ZM363.858 224.467V276.994C363.858 278.887 363.195 280.733 361.87 282.531C360.545 284.329 359.031 285.323 357.327 285.512L313.318 292.326C311.236 298.951 308.207 306.144 304.232 313.905C310.668 322.991 319.186 333.875 329.786 346.557C331.111 348.639 331.774 350.532 331.774 352.236C331.774 354.507 331.111 356.305 329.786 357.63C325.432 363.309 317.624 371.779 306.362 383.042C295.099 394.304 287.67 399.936 284.073 399.936C281.991 399.936 280.004 399.273 278.111 397.948L245.459 372.395C238.455 375.991 231.168 378.925 223.596 381.196C221.514 401.639 219.337 416.309 217.066 425.205C215.741 429.748 212.902 432.02 208.548 432.02H155.737C153.655 432.02 151.762 431.31 150.059 429.89C148.355 428.471 147.409 426.814 147.219 424.922L140.689 381.48C134.253 379.587 127.155 376.653 119.394 372.678L85.8905 397.948C84.5655 399.273 82.6727 399.936 80.2119 399.936C78.1298 399.936 76.1423 399.179 74.2494 397.664C46.9922 372.489 33.3636 357.346 33.3636 352.236C33.3636 350.532 34.0261 348.734 35.3511 346.841C37.2439 344.191 41.1243 339.175 46.9922 331.793C52.8601 324.41 57.3083 318.637 60.3369 314.473C55.9833 306.144 52.6708 298.384 50.3993 291.191L7.24204 284.376C5.34918 284.187 3.74025 283.288 2.41524 281.679C1.09024 280.07 0.427734 278.225 0.427734 276.142V223.615C0.427734 221.723 1.09024 219.877 2.41524 218.079C3.74025 216.281 5.25454 215.287 6.95811 215.098L50.9672 208.283C53.0493 201.658 56.0779 194.465 60.0529 186.705C53.6172 177.619 45.0993 166.735 34.4993 154.053C33.1743 151.971 32.5118 150.078 32.5118 148.374C32.5118 146.103 33.1743 144.21 34.4993 142.695C38.6636 137.017 46.4243 128.594 57.7815 117.426C69.1387 106.258 76.6155 100.674 80.2119 100.674C82.2941 100.674 84.2816 101.336 86.1745 102.661L118.826 128.215C125.262 124.808 132.55 121.779 140.689 119.129C142.771 98.6864 144.948 84.1114 147.219 75.4042C148.544 70.8613 151.384 68.5899 155.737 68.5899H208.548C210.63 68.5899 212.523 69.2997 214.227 70.7194C215.93 72.139 216.877 73.7953 217.066 75.6881L223.596 119.129C230.032 121.022 237.13 123.956 244.891 127.931L278.395 102.661C279.909 101.336 281.802 100.674 284.073 100.674C286.156 100.674 288.143 101.431 290.036 102.945C317.293 128.12 330.922 143.263 330.922 148.374C330.922 149.888 330.259 151.687 328.934 153.769C326.663 156.797 322.688 161.908 317.009 169.101C311.331 176.294 307.072 181.972 304.232 186.137C308.586 195.222 311.804 202.983 313.886 209.419L357.043 215.949C358.936 216.328 360.545 217.322 361.87 218.931C363.195 220.54 363.858 222.385 363.858 224.467ZM545.573 375.802V415.552C545.573 418.58 531.471 421.514 503.267 424.354C500.996 429.464 498.156 434.386 494.749 439.118C504.403 460.507 509.229 473.568 509.229 478.3C509.229 479.057 508.851 479.72 508.094 480.288C485.001 493.727 473.265 500.447 472.887 500.447C471.372 500.447 467.019 495.999 459.826 487.102C452.633 478.206 447.711 471.77 445.061 467.795C441.276 468.173 438.436 468.363 436.544 468.363C434.651 468.363 431.811 468.173 428.026 467.795C425.376 471.77 420.454 478.206 413.261 487.102C406.068 495.999 401.715 500.447 400.201 500.447C399.822 500.447 388.086 493.727 364.993 480.288C364.236 479.72 363.858 479.057 363.858 478.3C363.858 473.568 368.684 460.507 378.338 439.118C374.931 434.386 372.092 429.464 369.82 424.354C341.616 421.514 327.515 418.58 327.515 415.552V375.802C327.515 372.773 341.616 369.839 369.82 367C372.281 361.511 375.12 356.589 378.338 352.236C368.684 330.846 363.858 317.785 363.858 313.053C363.858 312.296 364.236 311.634 364.993 311.066C365.75 310.687 369.063 308.794 374.931 305.387C380.799 301.98 386.383 298.762 391.683 295.734C396.983 292.705 399.822 291.191 400.201 291.191C401.715 291.191 406.068 295.592 413.261 304.393C420.454 313.195 425.376 319.584 428.026 323.559C431.811 323.18 434.651 322.991 436.544 322.991C438.436 322.991 441.276 323.18 445.061 323.559C454.715 310.119 463.422 299.519 471.183 291.759L472.887 291.191C473.644 291.191 485.379 297.816 508.094 311.066C508.851 311.634 509.229 312.296 509.229 313.053C509.229 317.785 504.403 330.846 494.749 352.236C497.967 356.589 500.806 361.511 503.267 367C531.471 369.839 545.573 372.773 545.573 375.802ZM545.573 85.0578V124.808C545.573 127.837 531.471 130.77 503.267 133.61C500.996 138.72 498.156 143.642 494.749 148.374C504.403 169.763 509.229 182.824 509.229 187.556C509.229 188.314 508.851 188.976 508.094 189.544C485.001 202.983 473.265 209.703 472.887 209.703C471.372 209.703 467.019 205.255 459.826 196.358C452.633 187.462 447.711 181.026 445.061 177.051C441.276 177.43 438.436 177.619 436.544 177.619C434.651 177.619 431.811 177.43 428.026 177.051C425.376 181.026 420.454 187.462 413.261 196.358C406.068 205.255 401.715 209.703 400.201 209.703C399.822 209.703 388.086 202.983 364.993 189.544C364.236 188.976 363.858 188.314 363.858 187.556C363.858 182.824 368.684 169.763 378.338 148.374C374.931 143.642 372.092 138.72 369.82 133.61C341.616 130.77 327.515 127.837 327.515 124.808V85.0578C327.515 82.0292 341.616 79.0953 369.82 76.256C372.281 70.7667 375.12 65.8452 378.338 61.4916C368.684 40.1023 363.858 27.0415 363.858 22.3094C363.858 21.5522 364.236 20.8897 364.993 20.3218C365.75 19.9433 369.063 18.0504 374.931 14.6433C380.799 11.2361 386.383 8.01823 391.683 4.98965C396.983 1.96107 399.822 0.446777 400.201 0.446777C401.715 0.446777 406.068 4.84769 413.261 13.6495C420.454 22.4513 425.376 28.8397 428.026 32.8148C431.811 32.4362 434.651 32.2469 436.544 32.2469C438.436 32.2469 441.276 32.4362 445.061 32.8148C454.715 19.3754 463.422 8.77538 471.183 1.01464L472.887 0.446777C473.644 0.446777 485.379 7.0718 508.094 20.3218C508.851 20.8897 509.229 21.5522 509.229 22.3094C509.229 27.0415 504.403 40.1023 494.749 61.4916C497.967 65.8452 500.806 70.7667 503.267 76.256C531.471 79.0953 545.573 82.0292 545.573 85.0578Z"
				fill="currentColor"
			/>
		</g>
		<defs>
			<clipPath id="clip0_1106_7382">
				<rect
					width="545.145"
					height="500"
					fill="white"
					transform="translate(0.427734 0.446777)"
				/>
			</clipPath>
		</defs>
	</symbol>
	<symbol id="home" viewBox="0 0 501 500">
		<path
			d="M494.019 258.1L269.045 7.91824C259.571 -2.63941 241.373 -2.63941 231.899 7.91824L6.92388 258.1C3.68565 261.692 1.56009 266.149 0.805667 270.928C0.0512413 275.707 0.700446 280.602 2.67435 285.019C6.6739 294.051 15.6229 299.855 25.4968 299.855H75.4912V474.982C75.4912 481.617 78.1248 487.981 82.8127 492.672C87.5006 497.364 93.8587 500 100.488 500H175.48C182.11 500 188.468 497.364 193.156 492.672C197.844 487.981 200.477 481.617 200.477 474.982V374.909H300.466V474.982C300.466 481.617 303.1 487.981 307.788 492.672C312.475 497.364 318.834 500 325.463 500H400.455C407.085 500 413.443 497.364 418.131 492.672C422.819 487.981 425.452 481.617 425.452 474.982V299.855H475.447C480.288 299.876 485.03 298.486 489.096 295.856C493.162 293.225 496.375 289.468 498.344 285.041C500.313 280.615 500.952 275.711 500.184 270.927C499.416 266.143 497.274 261.686 494.019 258.1Z"
			fill="currentColor"
		/>
	</symbol>
	<symbol id="instagram" viewBox="0 0 501 501">
		<g clip-path="url(#clip0_678_1156)">
			<path
				d="M276.2 0.832028C294.443 0.762025 312.685 0.945372 330.922 1.38201L335.772 1.557C341.372 1.757 346.897 2.00699 353.571 2.30698C380.17 3.55694 398.319 7.7568 414.243 13.9316C430.742 20.2814 444.642 28.8811 458.541 42.7806C471.25 55.2703 481.085 70.3783 487.365 87.0541C493.539 102.979 497.739 121.153 498.989 147.752C499.289 154.402 499.539 159.952 499.739 165.551L499.889 170.401C500.333 188.63 500.525 206.865 500.464 225.099L500.489 243.749V276.498C500.55 294.74 500.359 312.983 499.914 331.221L499.764 336.071C499.564 341.67 499.314 347.195 499.014 353.87C497.764 380.469 493.514 398.618 487.365 414.543C481.106 431.236 471.268 446.357 458.541 458.841C446.041 471.549 430.925 481.385 414.243 487.665C398.319 493.84 380.17 498.04 353.571 499.29C346.897 499.59 341.372 499.84 335.772 500.04L330.922 500.19C312.685 500.634 294.443 500.826 276.2 500.765L257.551 500.79H224.828C206.585 500.852 188.343 500.66 170.106 500.215L165.256 500.065C159.322 499.85 153.388 499.6 147.457 499.315C120.858 498.065 102.709 493.815 86.76 487.665C70.0779 481.399 54.9676 471.562 42.4873 458.841C29.7641 446.349 19.919 431.231 13.6388 414.543C7.46407 398.618 3.26428 380.469 2.01435 353.87C1.73593 347.938 1.48594 342.005 1.26439 336.071L1.13939 331.221C0.678508 312.984 0.470163 294.741 0.514424 276.498V225.099C0.444654 206.865 0.627997 188.631 1.0644 170.401L1.23939 165.551C1.43938 159.952 1.68936 154.402 1.98935 147.752C3.23928 121.128 7.43907 103.004 13.6138 87.0541C19.8977 70.3702 29.762 55.2663 42.5123 42.8056C54.984 30.0748 70.0849 20.2207 86.76 13.9316C102.709 7.7568 120.833 3.55694 147.457 2.30698L165.256 1.557L170.106 1.43201C188.334 0.971348 206.569 0.763 224.803 0.807031L276.2 0.832028ZM250.502 125.828C233.94 125.594 217.497 128.653 202.129 134.829C186.76 141.005 172.772 150.174 160.977 161.803C149.183 173.432 139.817 187.289 133.425 202.569C127.032 217.849 123.74 234.248 123.74 250.811C123.74 267.374 127.032 283.773 133.425 299.053C139.817 314.333 149.183 328.19 160.977 339.819C172.772 351.448 186.76 360.617 202.129 366.793C217.497 372.969 233.94 376.029 250.502 375.794C283.652 375.794 315.445 362.625 338.885 339.184C362.326 315.743 375.495 283.949 375.495 250.799C375.495 217.648 362.326 185.854 338.885 162.413C315.445 138.972 283.652 125.828 250.502 125.828ZM250.502 175.826C260.464 175.643 270.363 177.446 279.62 181.131C288.877 184.816 297.308 190.309 304.418 197.289C311.529 204.269 317.178 212.596 321.034 221.783C324.891 230.97 326.878 240.834 326.879 250.798C326.881 260.762 324.897 270.627 321.044 279.815C317.19 289.004 311.545 297.333 304.436 304.315C297.328 311.297 288.899 316.793 279.643 320.481C270.387 324.169 260.489 325.976 250.527 325.796C230.636 325.796 211.561 317.895 197.496 303.83C183.432 289.765 175.53 270.689 175.53 250.799C175.53 230.908 183.432 211.832 197.496 197.767C211.561 183.703 230.636 175.801 250.527 175.801L250.502 175.826ZM381.745 88.3291C373.68 88.6518 366.053 92.0827 360.461 97.903C354.869 103.723 351.746 111.482 351.746 119.553C351.746 127.624 354.869 135.383 360.461 141.203C366.053 147.023 373.68 150.454 381.745 150.777C390.032 150.777 397.981 147.485 403.841 141.624C409.701 135.764 412.993 127.816 412.993 119.528C412.993 111.24 409.701 103.292 403.841 97.4317C397.981 91.5714 390.032 88.2791 381.745 88.2791V88.3291Z"
				fill="currentColor"
			/>
		</g>
		<defs>
			<clipPath id="clip0_678_1156">
				<rect
					width="500"
					height="500"
					fill="white"
					transform="translate(0.5 0.80127)"
				/>
			</clipPath>
		</defs>
	</symbol>
	<symbol id="interrogant" viewBox="0 0 501 501">
		<path
			d="M250.573 0.446777C388.648 0.446777 500.572 112.328 500.572 250.348C500.624 315.959 474.861 378.959 428.845 425.745C382.829 472.532 320.252 499.352 254.623 500.414C188.995 501.477 125.581 476.699 78.0723 431.427C30.5637 386.155 2.77198 324.023 0.69727 258.445L0.572266 250.348L0.672262 243.351C4.37227 108.579 114.822 0.446777 250.573 0.446777ZM250.822 325.318L247.648 325.494C241.571 326.217 235.971 329.141 231.907 333.715C227.845 338.288 225.6 344.192 225.6 350.309C225.6 356.426 227.845 362.329 231.907 366.904C235.971 371.477 241.571 374.402 247.648 375.125L250.573 375.299L253.747 375.125C259.823 374.402 265.424 371.477 269.488 366.904C273.55 362.329 275.794 356.426 275.794 350.309C275.794 344.192 273.55 338.288 269.488 333.715C265.424 329.141 259.823 326.217 253.747 325.494L250.822 325.318ZM250.573 125.397C244.448 125.398 238.538 127.645 233.963 131.713C229.387 135.781 226.463 141.385 225.748 147.464L225.572 150.388V250.348L225.748 253.272C226.47 259.346 229.397 264.944 233.972 269.006C238.547 273.067 244.454 275.31 250.573 275.31C256.691 275.31 262.598 273.067 267.173 269.006C271.748 264.944 274.675 259.346 275.398 253.272L275.572 250.348V150.388L275.398 147.464C274.68 141.385 271.758 135.781 267.182 131.713C262.605 127.645 256.695 125.398 250.573 125.397Z"
			fill="currentColor"
		/>
	</symbol>
	<symbol id="twitter" viewBox="0 0 501 453">
		<path
			d="M394.279 0.755127H470.949L303.448 192.198L500.5 452.709H346.187L225.341 294.711L87.0665 452.709H10.3503L189.509 247.939L0.5 0.755127H158.684L267.918 145.172L394.233 0.755127H394.279ZM367.371 406.818H409.854L135.623 44.2354H90.0332L367.371 406.818Z"
			fill="currentColor"
		/>
	</symbol>
	<symbol id="location" viewBox="0 0 501 500">
		<g clip-path="url(#clip0_1099_12990)">
			<path
				d="M247.024 500V253.172H0.214844L500.177 0L247.024 500Z"
				fill="currentColor"
			/>
		</g>
		<defs>
			<clipPath id="clip0_1099_12990">
				<rect
					width="499.962"
					height="500"
					fill="white"
					transform="translate(0.214844)"
				/>
			</clipPath>
		</defs>
	</symbol>
	<symbol id="logo" viewBox="0 0 501 697">
		<g clip-path="url(#clip0_917_17773)">
			<path
				d="M428.781 430.579L428.589 430.759L428.464 430.992L283.681 677.137C268.976 702.156 232.169 702.156 217.463 677.137L72.6731 430.992L72.5385 430.759L72.3539 430.579C27.9672 386.282 0.572266 325.512 0.572266 258.465C0.572266 122.936 112.505 13.0605 250.572 13.0605C388.639 13.0605 500.572 122.936 500.572 258.465C500.572 325.512 473.176 386.282 428.781 430.579Z"
				fill="#002C17"
			/>
			<path
				d="M428.781 418.309L428.589 418.489L428.464 418.722L283.681 664.867C268.976 689.886 232.169 689.886 217.463 664.867L72.6731 418.722L72.5385 418.489L72.3539 418.309C27.9672 374.011 0.572266 313.242 0.572266 246.195C0.572266 110.666 112.505 0.790527 250.572 0.790527C388.639 0.790527 500.572 110.666 500.572 246.195C500.572 313.242 473.176 374.011 428.781 418.309Z"
				fill="#198754"
			/>
			<path
				d="M458.801 255.909C458.801 368.853 365.527 460.413 250.468 460.413C135.409 460.413 42.1348 368.853 42.1348 255.909C42.1348 142.965 135.409 51.4053 250.468 51.4053C365.527 51.4053 458.801 142.965 458.801 255.909Z"
				fill="#65000A"
			/>
			<path
				d="M458.801 245.684C458.801 358.628 365.527 450.188 250.468 450.188C135.409 450.188 42.1348 358.628 42.1348 245.684C42.1348 132.74 135.409 41.1802 250.468 41.1802C365.527 41.1802 458.801 132.74 458.801 245.684Z"
				fill="#DC3545"
			/>
			<path
				d="M186.051 191.133L186.029 200.975C185.985 214.589 176.588 226.609 162.851 230.598L130.288 240.039C109.363 246.12 88.3281 231.324 88.4052 210.589L88.4935 179.892C88.5048 172.077 90.5585 164.382 95.7264 158.268C112.036 138.964 157.894 97.591 251.409 97.3198C339.592 97.0814 385.207 126.293 403.724 142.519C410.957 148.86 413.917 158.052 413.906 167.428L413.795 201.354C413.74 220.269 395.962 234.793 376.263 232.018L343.766 227.433C327.854 225.189 316.139 212.237 316.194 196.964V190.764C316.194 190.764 316.271 167.362 251.2 167.547C186.129 167.731 186.051 191.133 186.051 191.133ZM135.101 369.998C138.312 370.621 141.425 370.932 144.438 370.932C150.861 370.932 156.551 369.57 161.508 366.845C166.464 364.081 170.329 360.092 173.105 354.877C175.881 349.7 177.269 343.434 177.269 336.078V317.629C177.269 310.429 176.02 304.279 173.522 299.18C171.024 294.082 167.534 290.19 163.054 287.504C158.613 284.819 153.419 283.476 147.471 283.476C141.881 283.476 136.885 284.819 132.484 287.504C128.122 290.151 124.692 293.771 122.194 298.363C119.657 302.956 118.388 308.113 118.388 313.834C118.388 319.945 119.459 325.18 121.6 329.539C123.741 333.898 126.734 337.246 130.581 339.581C134.426 341.955 138.907 343.142 144.022 343.142C150.723 343.142 156.036 340.651 159.961 335.669L160.08 336.954C160.001 344.115 158.514 349.389 155.619 352.775C152.725 356.161 148.76 357.855 143.724 357.855C138.57 357.855 133.416 356.92 128.261 355.052L126.298 367.371C128.994 368.538 131.929 369.414 135.101 369.998ZM154.906 329.072C152.804 330.123 150.425 330.648 147.769 330.648C142.535 330.648 138.986 328.021 137.123 322.767C136.211 320.198 135.755 317.221 135.755 313.834C135.755 310.682 136.251 307.802 137.242 305.194C138.273 302.547 139.68 300.446 141.464 298.888C143.209 297.371 145.251 296.612 147.59 296.612C151.397 296.612 154.41 298.227 156.631 301.457C158.851 304.649 159.961 309.378 159.961 315.644V324.752C158.692 326.542 157.007 327.982 154.906 329.072ZM223.897 326.795V339.931H190.353V326.795H223.897ZM281.528 369.706V359.489L266.898 357.738V284.702L234.781 290.423V300.173H249.591V357.738L234.959 359.489V369.706H281.528ZM326.313 326.795V339.931H292.769V326.795H326.313ZM383.945 369.706V359.489L369.314 357.738V284.702L337.197 290.423V300.173H352.006V357.738L337.376 359.489V369.706H383.945Z"
				fill="#9A999E"
			/>
			<path
				d="M186.051 191.133L186.029 200.975C185.985 214.589 176.588 226.609 162.851 230.598L130.288 240.039C109.363 246.12 88.3281 231.324 88.4052 210.589L88.4935 179.892C88.5048 172.077 90.5585 164.382 95.7264 158.268C112.036 138.964 157.894 97.591 251.409 97.3198C339.592 97.0814 385.207 126.293 403.724 142.519C410.957 148.86 413.917 158.052 413.906 167.428L413.795 201.354C413.74 220.269 395.962 234.793 376.263 232.018L343.766 227.433C327.854 225.189 316.139 212.237 316.194 196.964V190.764C316.194 190.764 316.271 167.362 251.2 167.547C186.129 167.731 186.051 191.133 186.051 191.133ZM135.101 369.998C138.312 370.621 141.425 370.932 144.438 370.932C150.861 370.932 156.551 369.57 161.508 366.845C166.464 364.081 170.329 360.092 173.105 354.877C175.881 349.7 177.269 343.434 177.269 336.078V317.629C177.269 310.429 176.02 304.279 173.522 299.18C171.024 294.082 167.534 290.19 163.054 287.504C158.613 284.819 153.419 283.476 147.471 283.476C141.881 283.476 136.885 284.819 132.484 287.504C128.122 290.151 124.692 293.771 122.194 298.363C119.657 302.956 118.388 308.113 118.388 313.834C118.388 319.945 119.459 325.18 121.6 329.539C123.741 333.898 126.734 337.246 130.581 339.581C134.426 341.955 138.907 343.142 144.022 343.142C150.723 343.142 156.036 340.651 159.961 335.669L160.08 336.954C160.001 344.115 158.514 349.389 155.619 352.775C152.725 356.161 148.76 357.855 143.724 357.855C138.57 357.855 133.416 356.92 128.261 355.052L126.298 367.371C128.994 368.538 131.929 369.414 135.101 369.998ZM154.906 329.072C152.804 330.123 150.425 330.648 147.769 330.648C142.535 330.648 138.986 328.021 137.123 322.767C136.211 320.198 135.755 317.221 135.755 313.834C135.755 310.682 136.251 307.802 137.242 305.194C138.273 302.547 139.68 300.446 141.464 298.888C143.209 297.371 145.251 296.612 147.59 296.612C151.397 296.612 154.41 298.227 156.631 301.457C158.851 304.649 159.961 309.378 159.961 315.644V324.752C158.692 326.542 157.007 327.982 154.906 329.072ZM223.897 326.795V339.931H190.353V326.795H223.897ZM281.528 369.706V359.489L266.898 357.738V284.702L234.781 290.423V300.173H249.591V357.738L234.959 359.489V369.706H281.528ZM326.313 326.795V339.931H292.769V326.795H326.313ZM383.945 369.706V359.489L369.314 357.738V284.702L337.197 290.423V300.173H352.006V357.738L337.376 359.489V369.706H383.945Z"
				stroke="#7C7C7C"
			/>
			<path
				d="M185.634 184.18L185.612 194.021C185.568 207.636 176.171 219.656 162.435 223.645L129.871 233.086C108.946 239.167 87.9114 224.371 87.9885 203.636L88.0768 172.939C88.0881 165.124 90.1418 157.429 95.3098 151.315C111.619 132.011 157.477 90.6379 250.993 90.3667C339.175 90.1282 384.79 119.34 403.308 135.566C410.541 141.907 413.5 151.099 413.489 160.475L413.378 194.401C413.323 213.316 395.546 227.84 375.846 225.065L343.349 220.48C327.437 218.236 315.722 205.284 315.777 190.011V183.811C315.777 183.811 315.854 160.409 250.783 160.594C185.712 160.778 185.634 184.18 185.634 184.18Z"
				fill="white"
			/>
			<path
				fill-rule="evenodd"
				clip-rule="evenodd"
				d="M134.684 363.045C137.896 363.668 141.008 363.979 144.021 363.979C150.445 363.979 156.135 362.617 161.091 359.892C166.047 357.128 169.913 353.139 172.689 347.924C175.464 342.747 176.852 336.481 176.852 329.125V310.676C176.852 303.476 175.603 297.326 173.105 292.228C170.607 287.129 167.118 283.237 162.637 280.551C158.196 277.866 153.002 276.523 147.055 276.523C141.464 276.523 136.468 277.866 132.067 280.551C127.706 283.198 124.276 286.818 121.778 291.41C119.24 296.003 117.971 301.16 117.971 306.882C117.971 312.992 119.042 318.227 121.183 322.586C123.324 326.945 126.318 330.293 130.164 332.628C134.01 335.002 138.49 336.189 143.605 336.189C150.306 336.189 155.619 333.698 159.544 328.716L159.664 330.001C159.584 337.162 158.097 342.436 155.203 345.822C152.309 349.208 148.344 350.902 143.308 350.902C138.153 350.902 132.999 349.967 127.844 348.099L125.881 360.418C128.578 361.585 131.512 362.461 134.684 363.045ZM154.489 322.119C152.388 323.17 150.009 323.695 147.352 323.695C142.118 323.695 138.57 321.068 136.706 315.814C135.794 313.245 135.338 310.268 135.338 306.882C135.338 303.729 135.834 300.849 136.825 298.241C137.856 295.594 139.264 293.493 141.048 291.936C142.792 290.418 144.834 289.659 147.174 289.659C150.98 289.659 153.994 291.274 156.214 294.505C158.434 297.696 159.544 302.425 159.544 308.691V317.799C158.276 319.589 156.591 321.029 154.489 322.119Z"
				fill="white"
			/>
			<path
				d="M223.48 332.978V319.842H189.936V332.978H223.48Z"
				fill="white"
			/>
			<path
				d="M281.111 362.753V352.536L266.481 350.785V277.749L234.364 283.47V293.22H249.174V350.785L234.543 352.536V362.753H281.111Z"
				fill="white"
			/>
			<path
				d="M325.896 332.978V319.842H292.353V332.978H325.896Z"
				fill="white"
			/>
			<path
				d="M383.528 362.753V352.536L368.897 350.785V277.749L336.781 283.47V293.22H351.59V350.785L336.959 352.536V362.753H383.528Z"
				fill="white"
			/>
		</g>
		<defs>
			<clipPath id="clip0_917_17773">
				<rect
					width="500"
					height="695.312"
					fill="white"
					transform="translate(0.572266 0.790527)"
				/>
			</clipPath>
		</defs>
	</symbol>
	<symbol id="money_retail" viewBox="0 0 626 438">
		<g clip-path="url(#clip0_1099_12980)">
			<path
				d="M606.706 22.1836C568.825 6.29492 530.915 0.250001 493.024 0.250001C372.741 0.240236 252.468 61.1289 132.185 61.1289C102.019 61.1289 71.8721 57.3008 41.7061 47.7305C38.3174 46.6563 34.9189 46.1484 31.5986 46.1484C14.792 46.1484 0.104492 59.1562 0.104492 77.2129V387.037C0.104492 399.371 7.16504 411.061 18.5029 415.807C56.3838 431.705 94.2939 437.75 132.185 437.75C252.468 437.75 372.751 376.861 493.034 376.861C523.2 376.861 553.347 380.689 583.513 390.26C586.901 391.334 590.3 391.842 593.62 391.842C610.427 391.842 625.114 378.834 625.114 360.777V50.9629C625.104 38.6191 618.044 26.9395 606.706 22.1836ZM46.9795 98.1211C66.6279 103.043 87.1357 105.514 108.229 106.842C102.487 135.543 77.2529 157.174 46.9795 157.174V98.1211ZM46.9795 376.441V329.781C80.5439 329.781 107.702 356.412 109.196 389.742C87.1943 387.975 66.6279 383.58 46.9795 376.441ZM312.604 312.75C269.45 312.75 234.479 270.768 234.479 219C234.479 167.223 269.46 125.25 312.604 125.25C355.749 125.25 390.729 167.223 390.729 219C390.729 270.787 355.739 312.75 312.604 312.75ZM578.229 339.879C561.12 335.592 543.356 333.189 525.183 331.637C530.915 306.168 552.038 286.832 578.229 283.512V339.879ZM578.229 109.303C548.063 105.484 524.655 80.2988 523.728 49.1953C542.81 51.3145 560.925 55.2793 578.229 61.5586V109.303Z"
				fill="currentColor"
			/>
		</g>
		<defs>
			<clipPath id="clip0_1099_12980">
				<rect
					width="625.01"
					height="437.5"
					fill="white"
					transform="translate(0.104492 0.25)"
				/>
			</clipPath>
		</defs>
	</symbol>
	<symbol id="money_total" viewBox="0 0 483 500">
		<g clip-path="url(#clip0_1099_12979)">
			<path
				fill-rule="evenodd"
				clip-rule="evenodd"
				d="M242.394 0H239.888C218.225 0 200.177 1.07719e-06 185.864 1.92771C170.731 3.95181 157.068 8.43374 146.104 19.3976C135.117 30.3855 130.635 44.0482 128.61 59.1566C127.237 69.4458 126.827 94 126.731 115.06C78.0081 116.675 48.731 122.361 28.4177 142.699C0.176755 170.916 0.176758 216.361 0.176758 307.229C0.176758 398.096 0.176755 443.542 28.4177 471.759C56.6346 500 102.08 500 192.948 500H289.333C380.201 500 425.647 500 453.863 471.759C482.104 443.542 482.104 398.096 482.104 307.229C482.104 216.361 482.104 170.916 453.863 142.699C433.55 122.361 404.273 116.675 355.55 115.084C355.454 94 355.068 69.4458 353.671 59.1807C351.647 44.0482 347.165 30.3855 336.177 19.4217C325.213 8.43373 311.55 3.95181 296.418 1.92771C282.104 1.07719e-06 264.032 0 242.394 0ZM319.406 114.506C319.285 94.0964 318.948 72.1446 317.864 63.9759C316.345 52.8675 313.767 48.0964 310.635 44.9639C307.502 41.8313 302.731 39.253 291.598 37.7349C279.984 36.1928 264.37 36.1446 241.141 36.1446C217.912 36.1446 202.297 36.1928 190.659 37.759C179.55 39.253 174.779 41.8313 171.647 44.988C168.514 48.1205 165.936 52.8675 164.418 63.9759C163.333 72.1687 162.972 94.0964 162.876 114.506C172.297 114.458 182.345 114.458 192.948 114.458H289.333C299.96 114.458 309.984 114.458 319.406 114.506ZM241.141 192.771C245.934 192.771 250.53 194.675 253.92 198.064C257.309 201.454 259.213 206.05 259.213 210.843V211.084C285.454 217.687 307.406 238.386 307.406 267.06C307.406 271.853 305.502 276.45 302.112 279.839C298.723 283.228 294.126 285.133 289.333 285.133C284.54 285.133 279.944 283.228 276.554 279.839C273.165 276.45 271.261 271.853 271.261 267.06C271.261 257.807 260.996 244.988 241.141 244.988C221.285 244.988 211.02 257.807 211.02 267.06C211.02 276.313 221.285 289.157 241.141 289.157C274.514 289.157 307.406 312.289 307.406 347.398C307.406 376.072 285.454 396.747 259.213 403.374V403.614C259.213 408.408 257.309 413.004 253.92 416.394C250.53 419.783 245.934 421.687 241.141 421.687C236.348 421.687 231.751 419.783 228.362 416.394C224.972 413.004 223.068 408.408 223.068 403.614V403.374C196.827 396.771 174.876 376.072 174.876 347.398C174.876 342.605 176.78 338.008 180.169 334.619C183.558 331.229 188.155 329.325 192.948 329.325C197.741 329.325 202.338 331.229 205.727 334.619C209.116 338.008 211.02 342.605 211.02 347.398C211.02 356.651 221.285 369.47 241.141 369.47C260.996 369.47 271.261 356.651 271.261 347.398C271.261 338.145 260.996 325.301 241.141 325.301C207.767 325.301 174.876 302.169 174.876 267.06C174.876 238.386 196.827 217.687 223.068 211.084V210.843C223.068 206.05 224.972 201.454 228.362 198.064C231.751 194.675 236.348 192.771 241.141 192.771Z"
				fill="currentColor"
			/>
		</g>
		<defs>
			<clipPath id="clip0_1099_12979">
				<rect
					width="481.928"
					height="500"
					fill="white"
					transform="translate(0.176758)"
				/>
			</clipPath>
		</defs>
	</symbol>
	<symbol id="moon" viewBox="0 0 501 500">
		<path
			d="M491.816 290.979C488.184 287.34 483.629 284.759 478.641 283.512C473.652 282.265 468.418 282.4 463.5 283.902C429.146 294.271 392.623 295.129 357.819 286.385C323.016 277.641 291.237 259.622 265.867 234.248C240.497 208.874 222.487 177.096 213.754 142.297C205.022 107.498 205.894 70.9829 216.278 36.6406C217.793 31.7219 217.938 26.4834 216.698 21.4884C215.457 16.4934 212.878 11.9309 209.238 8.2917C205.598 4.65249 201.035 2.07419 196.039 0.834094C191.043 -0.406002 185.803 -0.260974 180.883 1.25358C129.216 17.1305 83.8743 48.8977 51.3136 92.0332C22.8396 129.871 5.47549 174.894 1.16972 222.049C-3.13605 269.204 5.78688 316.625 26.9373 358.993C48.0877 401.36 80.6287 436.996 120.909 461.903C161.189 486.81 207.615 500.002 254.977 499.999C310.272 500.161 364.094 482.186 408.19 448.829C451.312 416.243 483.053 370.887 498.895 319.218C500.384 314.312 500.512 309.093 499.265 304.119C498.018 299.146 495.444 294.604 491.816 290.979ZM374.116 403.605C335.949 432.331 288.688 446.309 241.031 442.966C193.374 439.623 148.528 419.184 114.747 385.41C80.9658 351.636 60.522 306.801 57.1782 259.155C53.8344 211.509 67.8155 164.258 96.5485 126.099C111.668 106.105 130.405 89.1238 151.788 76.0382C151.364 82.0776 151.151 88.1406 151.151 94.2272C151.226 161.778 178.1 226.54 225.876 274.306C273.652 322.072 338.429 348.939 405.995 349.014C412.083 349.014 418.148 348.802 424.188 348.377C411.106 369.76 394.121 388.495 374.116 403.605Z"
			fill="currentColor"
		/>
	</symbol>
	<symbol id="name" viewBox="0 0 501 501">
		<path
			d="M188.072 0.446777C182.547 0.446777 177.248 2.64172 173.341 6.54872C169.434 10.4557 167.239 15.7548 167.239 21.2801C167.239 26.8055 169.434 32.1045 173.341 36.0115C177.248 39.9185 182.547 42.1134 188.072 42.1134H229.739V458.78H188.072C182.547 458.78 177.248 460.975 173.341 464.882C169.434 468.789 167.239 474.088 167.239 479.613C167.239 485.139 169.434 490.438 173.341 494.345C177.248 498.252 182.547 500.447 188.072 500.447H313.072C318.598 500.447 323.897 498.252 327.804 494.345C331.711 490.438 333.906 485.139 333.906 479.613C333.906 474.088 331.711 468.789 327.804 464.882C323.897 460.975 318.598 458.78 313.072 458.78H271.406V42.1134H313.072C318.598 42.1134 323.897 39.9185 327.804 36.0115C331.711 32.1045 333.906 26.8055 333.906 21.2801C333.906 15.7548 331.711 10.4557 327.804 6.54872C323.897 2.64172 318.598 0.446777 313.072 0.446777H188.072ZM83.9056 83.7801H188.072V417.113H83.9056C61.8042 417.113 40.6081 408.334 24.98 392.706C9.352 377.078 0.572266 355.882 0.572266 333.78V167.113C0.572266 145.012 9.352 123.816 24.98 108.188C40.6081 92.5598 61.8042 83.7801 83.9056 83.7801ZM417.239 417.113H313.072V83.7801H417.239C439.34 83.7801 460.536 92.5598 476.164 108.188C491.793 123.816 500.572 145.012 500.572 167.113V333.78C500.572 355.882 491.793 377.078 476.164 392.706C460.536 408.334 439.34 417.113 417.239 417.113Z"
			fill="currentColor"
		/>
	</symbol>
	<symbol id="number" viewBox="0 0 360 501">
		<g clip-path="url(#clip0_1038_5124)">
			<path
				d="M187.766 149.313C187.766 143.099 190.235 137.139 194.629 132.745C199.023 128.351 204.983 125.883 211.197 125.883H336.159C340.79 125.887 345.316 127.263 349.165 129.838C353.014 132.413 356.014 136.071 357.786 140.349C359.558 144.628 360.022 149.336 359.119 153.878C358.217 158.421 355.989 162.594 352.716 165.87L293.672 224.977C303.419 227.352 312.541 230.601 320.757 234.943C343.938 247.158 359.62 268.152 359.62 297.58C359.62 317.98 352.404 335.319 339.97 348.409C327.911 361.155 312.041 368.809 295.983 372.683C264.431 380.274 226.473 374.651 198.388 356.219C193.585 352.65 190.328 347.381 189.282 341.489C188.236 335.598 189.48 329.53 192.76 324.525C196.041 319.521 201.109 315.959 206.928 314.568C212.748 313.178 218.879 314.063 224.068 317.043C240.75 327.977 265.305 331.851 285.018 327.103C294.578 324.822 301.575 320.823 305.949 316.2C309.979 311.951 312.76 306.203 312.76 297.58C312.76 287.958 308.917 281.679 298.889 276.399C287.236 270.245 268.273 266.465 242.468 266.465C237.837 266.461 233.311 265.084 229.462 262.51C225.613 259.935 222.613 256.277 220.841 251.998C219.069 247.719 218.605 243.011 219.508 238.469C220.41 233.927 222.638 229.754 225.911 226.477L279.645 172.743H211.197C204.983 172.743 199.023 170.275 194.629 165.881C190.235 161.487 187.766 155.527 187.766 149.313ZM75.7067 329.352C64.7725 327.79 51.6515 332.882 44.9972 347.222C43.7424 350.076 41.9305 352.651 39.6677 354.796C37.4049 356.941 34.7367 358.613 31.8194 359.714C28.9022 360.815 25.7946 361.322 22.6788 361.206C19.5629 361.091 16.5015 360.354 13.6739 359.04C10.8463 357.726 8.30943 355.861 6.21191 353.554C4.11438 351.247 2.49842 348.545 1.4587 345.605C0.41899 342.666 -0.0235577 339.548 0.156992 336.435C0.337543 333.323 1.13756 330.277 2.51016 327.478C18.3803 293.3 52.1513 278.586 82.4234 282.96C113.664 287.49 140.906 312.482 140.906 352.376C140.906 397.144 106.916 420.855 84.9851 436.132C75.363 442.88 67.1468 448.534 60.8674 454.033H125.285C131.499 454.033 137.459 456.501 141.853 460.895C146.247 465.289 148.716 471.249 148.716 477.463C148.716 483.677 146.247 489.637 141.853 494.031C137.459 498.425 131.499 500.894 125.285 500.894H23.7537C17.5396 500.894 11.58 498.425 7.18592 494.031C2.79188 489.637 0.323328 483.677 0.323328 477.463C0.323328 455.907 9.69548 439.631 21.2545 427.166C32.1262 415.545 46.2469 406.047 57.181 398.425C82.1734 380.93 94.0448 370.183 94.0448 352.376C94.0448 337.599 85.7036 330.82 75.7067 329.352ZM81.6736 3.701C85.4109 5.7019 88.5353 8.67924 90.7139 12.3158C92.8925 15.9523 94.0437 20.1118 94.0448 24.351V173.368H116.257C122.471 173.368 128.431 175.837 132.825 180.231C137.219 184.625 139.687 190.584 139.687 196.799C139.687 203.013 137.219 208.972 132.825 213.366C128.431 217.76 122.471 220.229 116.257 220.229H24.0349C17.8207 220.229 11.8611 217.76 7.46709 213.366C3.07304 208.972 0.604495 203.013 0.604495 196.799C0.604495 190.584 3.07304 184.625 7.46709 180.231C11.8611 175.837 17.8207 173.368 24.0349 173.368H47.1841V68.0877L36.7497 75.0543C31.5791 78.4199 25.2897 79.6103 19.2467 78.3671C13.2038 77.1239 7.89502 73.5475 4.4728 68.4142C1.05058 63.2808 -0.208897 57.0049 0.967764 50.9486C2.14443 44.8924 5.66226 39.5446 10.7577 36.0662L57.6184 4.82566C61.148 2.47382 65.2497 1.12413 69.4861 0.920563C73.7226 0.716994 77.9348 1.66717 81.6736 3.66976V3.701Z"
				fill="currentColor"
			/>
		</g>
		<defs>
			<clipPath id="clip0_1038_5124">
				<rect
					width="359.503"
					height="500"
					fill="white"
					transform="translate(0.117676 0.893555)"
				/>
			</clipPath>
		</defs>
	</symbol>
	<symbol id="office" viewBox="0 0 585 501">
		<g clip-path="url(#clip0_1038_5118)">
			<path
				d="M48.6708 500.512C38.3446 499.782 28.5823 495.892 20.3126 489.196C17.2983 486.765 12.3297 481.445 10.0398 478.236C6.05322 472.687 3.00495 465.398 1.60964 458.25L0.977631 454.895V373.654V292.412H110.293H219.608V320.047C219.608 350.463 219.627 348.873 221.601 353.099C224.032 358.317 229.346 362.849 235.034 364.594C236.735 365.129 239.312 365.129 292.708 365.129H348.579L351.058 364.303C357.189 362.212 362.658 356.663 364.744 350.381L365.473 348.29V320.358V292.422H474.798H584.118V374.266V456.11L583.437 459.125C581.833 466.108 579.451 471.778 575.877 477.098C571.745 483.21 566.951 488.02 560.825 492.138C553.115 497.332 545.701 499.821 535.856 500.531C530.887 501.018 54.0671 501.017 48.797 500.512H48.6708ZM250.761 313.201V292.422H292.47H334.183V313.201V333.984H292.47H250.761V313.201ZM0.870663 195.368C0.870663 124.041 0.870665 128.948 2.57227 122.257C5.14897 112.079 12.2568 101.634 21.2557 94.6999C27.6586 89.774 34.076 86.7932 42.1561 84.9891L45.8024 84.1625H106.71H167.612V55.1807V26.199L168.293 23.7677C171.453 12.6127 180.748 3.81604 191.843 1.42845C194.273 0.893556 198.62 0.893555 292.732 0.893555H391.07L393.987 1.72021C406.656 5.22136 415.568 15.4136 417.128 28.1684C417.128 29.7731 417.615 40.8601 417.615 57.4614V84.1965H476.485C517.143 84.1965 536.313 84.1965 538.452 84.6828C549.269 85.8498 559.542 90.6931 567.69 98.4928C576.159 106.604 580.992 115.138 583.316 126.074L583.996 129.381V195.411V261.442H292.295H0.59375V195.713L0.870663 195.368ZM375.746 63.0778V42.1439H292.47H209.199V63.0778V84.0068H292.47H375.746V63.0778Z"
				fill="currentColor"
			/>
		</g>
		<defs>
			<clipPath id="clip0_1038_5118">
				<rect
					width="583.524"
					height="500"
					fill="white"
					transform="translate(0.59375 0.893555)"
				/>
			</clipPath>
		</defs>
	</symbol>
	<symbol id="padlock" viewBox="0 0 401 501">
		<path
			d="M400.62 250.894C400.62 223.319 378.195 200.894 350.62 200.894H325.62V125.894C325.62 56.9686 269.545 0.893555 200.62 0.893555C131.695 0.893555 75.6204 56.9686 75.6204 125.894V200.894H50.6204C23.0454 200.894 0.620361 223.319 0.620361 250.894V450.894C0.620361 478.469 23.0454 500.894 50.6204 500.894H350.62C378.195 500.894 400.62 478.469 400.62 450.894V250.894ZM125.62 125.894C125.62 84.5436 159.27 50.8936 200.62 50.8936C241.97 50.8936 275.62 84.5436 275.62 125.894V200.894H125.62V125.894Z"
			fill="currentColor"
		/>
	</symbol>
	<symbol id="paperclip" viewBox="0 0 251 500">
		<g clip-path="url(#clip0_1139_7855)">
			<path
				d="M216.795 113.636V375C216.795 399.111 207.217 422.234 190.168 439.282C173.12 456.331 149.997 465.909 125.886 465.909C101.775 465.909 78.6523 456.331 61.6035 439.282C44.5548 422.234 34.9769 399.111 34.9769 375V90.9091C34.9769 75.84 40.9631 61.388 51.6186 50.7326C62.274 40.0771 76.726 34.0909 91.7951 34.0909C106.864 34.0909 121.316 40.0771 131.972 50.7326C142.627 61.388 148.613 75.84 148.613 90.9091V329.545C148.613 335.573 146.219 341.354 141.957 345.616C137.694 349.878 131.914 352.273 125.886 352.273C119.858 352.273 114.078 349.878 109.815 345.616C105.553 341.354 103.159 335.573 103.159 329.545V113.636H69.0678V329.545C69.0678 344.615 75.054 359.066 85.7095 369.722C96.3649 380.377 110.817 386.364 125.886 386.364C140.955 386.364 155.407 380.377 166.062 369.722C176.718 359.066 182.704 344.615 182.704 329.545V90.9091C182.704 66.7985 173.126 43.6754 156.078 26.6267C139.029 9.5779 115.906 0 91.7951 0C67.6845 0 44.5614 9.5779 27.5126 26.6267C10.4639 43.6754 0.885986 66.7985 0.885986 90.9091V375C0.885986 408.152 14.0556 439.946 37.4976 463.388C60.9397 486.83 92.7339 500 125.886 500C159.038 500 190.832 486.83 214.274 463.388C237.716 439.946 250.886 408.152 250.886 375V113.636H216.795Z"
				fill="currentColor"
			/>
		</g>
		<defs>
			<clipPath id="clip0_1139_7855">
				<rect
					width="250"
					height="500"
					fill="white"
					transform="translate(0.885986)"
				/>
			</clipPath>
		</defs>
	</symbol>
	<symbol id="pc" viewBox="0 0 542 500">
		<g clip-path="url(#clip0_1118_7039)">
			<path
				d="M541.117 0H363.793L354.955 8.87585V360.514L361.323 406.63H354.338V411.338H348.414V405.434H336.644V410.142H330.624V403.06H321.266V408.965H299.925L260.948 401.883V384.132H277.485L283.312 355.767H335.93C337.67 355.767 339.339 355.076 340.569 353.846C341.799 352.616 342.491 350.947 342.491 349.207V90.4565C342.493 89.5961 342.325 88.7437 341.996 87.9487C341.666 87.1538 341.183 86.4321 340.572 85.8254C339.962 85.2188 339.238 84.7393 338.441 84.4148C337.644 84.0902 336.791 83.927 335.93 83.9347H7.40781C5.67968 83.9398 4.02378 84.6285 2.80181 85.8505C1.57983 87.0725 0.891077 88.7284 0.885986 90.4565V349.246C0.885986 352.854 3.81888 355.806 7.4464 355.806H65.6218L69.4809 384.17H96.6487L31.0446 449.774L17.4414 478.717C17.4414 478.717 74.1697 500 146.296 500C218.402 500 333.074 483.464 348.434 483.464H441.823V459.808L439.179 439.22H472.831C468.971 441.265 466.656 443.928 466.656 446.861V465.732C466.656 472.292 478.291 477.56 492.705 477.56C507.041 477.56 518.753 472.35 518.753 465.751V446.841C518.753 440.32 507.08 435.071 492.705 435.071C489.096 435.071 485.701 435.457 482.594 436.036V432.756H438.408L437.346 424.401H541.213L541.117 0ZM24.5228 328.6V107.552H315.303V328.6H24.5228Z"
				fill="currentColor"
			/>
		</g>
		<defs>
			<clipPath id="clip0_1118_7039">
				<rect
					width="540.327"
					height="500"
					fill="white"
					transform="translate(0.885986)"
				/>
			</clipPath>
		</defs>
	</symbol>
	<symbol id="report" viewBox="0 0 376 501">
		<path
			fill-rule="evenodd"
			clip-rule="evenodd"
			d="M63.0723 0.446777C46.4962 0.446777 30.5991 7.03158 18.8781 18.7526C7.15707 30.4736 0.572266 46.3707 0.572266 62.9468V437.947C0.572266 454.523 7.15707 470.42 18.8781 482.141C30.5991 493.862 46.4962 500.447 63.0723 500.447H313.072C329.648 500.447 345.545 493.862 357.266 482.141C368.987 470.42 375.572 454.523 375.572 437.947V169.634C375.569 153.06 368.982 137.165 357.26 125.447L250.572 18.7593C238.854 7.03744 222.959 0.450317 206.385 0.446777H63.0723ZM125.572 312.947C125.572 304.659 122.28 296.71 116.419 290.85C110.559 284.989 102.61 281.697 94.3223 281.697C86.0342 281.697 78.0857 284.989 72.2252 290.85C66.3647 296.71 63.0723 304.659 63.0723 312.947V406.697C63.0723 414.985 66.3647 422.933 72.2252 428.794C78.0857 434.654 86.0342 437.947 94.3223 437.947C102.61 437.947 110.559 434.654 116.419 428.794C122.28 422.933 125.572 414.985 125.572 406.697V312.947ZM188.072 219.197C196.36 219.197 204.309 222.489 210.169 228.35C216.03 234.21 219.322 242.159 219.322 250.447V406.697C219.322 414.985 216.03 422.933 210.169 428.794C204.309 434.654 196.36 437.947 188.072 437.947C179.784 437.947 171.836 434.654 165.975 428.794C160.115 422.933 156.822 414.985 156.822 406.697V250.447C156.822 242.159 160.115 234.21 165.975 228.35C171.836 222.489 179.784 219.197 188.072 219.197ZM313.072 187.947C313.072 179.659 309.78 171.71 303.919 165.85C298.059 159.989 290.11 156.697 281.822 156.697C273.534 156.697 265.586 159.989 259.725 165.85C253.865 171.71 250.572 179.659 250.572 187.947V406.697C250.572 414.985 253.865 422.933 259.725 428.794C265.586 434.654 273.534 437.947 281.822 437.947C290.11 437.947 298.059 434.654 303.919 428.794C309.78 422.933 313.072 414.985 313.072 406.697V187.947Z"
			fill="currentColor"
		/>
	</symbol>
	<symbol id="rol" viewBox="0 0 501 400">
		<g clip-path="url(#clip0_915_10177)">
			<path
				d="M113.018 125C129.596 125 145.496 118.415 157.219 106.694C168.942 94.9732 175.527 79.076 175.527 62.5C175.527 45.924 168.942 30.0268 157.219 18.3058C145.496 6.5848 129.596 0 113.018 0C96.439 0 80.5394 6.5848 68.8165 18.3058C57.0936 30.0268 50.5078 45.924 50.5078 62.5C50.5078 79.076 57.0936 94.9732 68.8165 106.694C80.5394 118.415 96.439 125 113.018 125ZM400.562 125C417.141 125 433.041 118.415 444.764 106.694C456.486 94.9732 463.072 79.076 463.072 62.5C463.072 45.924 456.486 30.0268 444.764 18.3058C433.041 6.5848 417.141 0 400.562 0C383.984 0 368.084 6.5848 356.361 18.3058C344.639 30.0268 338.053 45.924 338.053 62.5C338.053 79.076 344.639 94.9732 356.361 106.694C368.084 118.415 383.984 125 400.562 125ZM0.5 233.359C0.5 242.5 8.00117 250 17.1432 250H183.888C184.044 250 184.201 250 184.435 250C163.65 231.641 150.602 204.844 150.602 175C150.602 169.062 151.149 163.281 152.086 157.578C141.46 152.656 129.661 150 117.237 150H83.8724C37.8496 150 0.5 187.344 0.5 233.359ZM250.539 250C269.292 250 286.404 243.125 299.531 231.797C301.485 228.906 303.594 226.094 305.782 223.438C307.892 220.859 310.236 218.672 312.814 216.953C320.863 204.922 325.551 190.547 325.551 175C325.551 133.594 291.952 100 250.539 100C209.126 100 175.527 133.594 175.527 175C175.527 216.406 209.126 250 250.539 250ZM301.641 297.031C293.593 292.422 287.498 284.375 285.388 275H204.673C147.164 275 100.516 321.641 100.516 379.141C100.516 390.625 109.814 400 121.378 400H356.181C354.54 395.938 353.68 391.484 353.68 387.188V384.844C352.664 384.297 351.57 383.672 350.555 383.047L348.523 384.219C335.396 391.797 316.878 390.469 305.782 376.641C302.266 372.266 299.062 367.656 296.093 362.891L296.015 362.734L295.937 362.578L294.061 359.375L293.983 359.219L293.905 359.062C291.249 354.219 288.904 349.219 286.873 343.984C280.466 327.422 288.592 310.703 301.719 303.125L303.829 301.953C303.829 301.328 303.829 300.781 303.829 300.156C303.829 299.531 303.829 298.984 303.829 298.359L301.719 297.188L301.641 297.031ZM417.206 150H383.919C371.495 150 359.697 152.734 349.07 157.578C350.086 163.203 350.555 169.062 350.555 175C350.555 188.594 347.82 201.484 342.975 213.281C344.929 213.984 346.804 214.844 348.523 215.859L350.555 217.031C351.57 216.406 352.586 215.781 353.68 215.234V212.891C353.68 197.734 364.072 182.344 381.653 179.609C387.826 178.672 394.155 178.125 400.562 178.125C406.97 178.125 413.299 178.594 419.472 179.609C437.053 182.344 447.445 197.734 447.445 212.891V215.234C448.461 215.781 449.555 216.406 450.57 217.031L452.602 215.859C465.729 208.281 484.247 209.609 495.343 223.438C497.14 225.625 498.859 227.969 500.5 230.234C498.859 185.625 462.213 150 417.206 150ZM488.545 278.047C493.468 275.234 495.968 269.375 493.858 263.984C492.217 259.688 490.264 255.547 488.076 251.562L486.279 248.438C483.857 244.453 481.2 240.703 478.309 237.109C474.715 232.656 468.386 231.875 463.463 234.766L449.32 242.969C442.366 237.031 434.396 232.344 425.566 229.219V212.812C425.566 207.109 421.738 202.031 416.112 201.172C411.033 200.391 405.876 200 400.562 200C395.249 200 390.092 200.391 385.013 201.172C379.387 202.031 375.559 207.109 375.559 212.812V229.219C366.807 232.344 358.759 237.031 351.805 242.969L337.584 234.766C332.661 231.953 326.332 232.734 322.738 237.109C319.847 240.703 317.19 244.531 314.768 248.516L312.971 251.562C310.783 255.547 308.829 259.688 307.189 263.984C305.157 269.297 307.579 275.156 312.502 277.969L326.723 286.172C325.941 290.625 325.473 295.234 325.473 299.922C325.473 304.609 325.941 309.219 326.723 313.594L312.502 321.797C307.579 324.609 305.079 330.469 307.189 335.781C308.829 340.078 310.783 344.141 312.971 348.125L314.846 351.328C317.19 355.312 319.847 359.062 322.738 362.656C326.332 367.109 332.661 367.891 337.584 365L351.805 357.031C358.759 362.969 366.807 367.656 375.559 370.781V387.188C375.559 392.891 379.387 397.969 385.013 398.828C390.092 399.609 395.249 400 400.562 400C405.876 400 411.033 399.609 416.112 398.828C421.738 397.969 425.566 392.891 425.566 387.188V370.781C434.318 367.656 442.366 362.969 449.32 357.031L463.541 365.234C468.464 368.047 474.793 367.266 478.387 362.891C481.278 359.297 483.935 355.547 486.279 351.562L488.154 348.281C490.342 344.297 492.296 340.234 493.936 335.938C495.968 330.625 493.546 324.766 488.623 321.953L474.402 313.75C475.184 309.297 475.652 304.688 475.652 300.078C475.652 295.469 475.184 290.781 474.402 286.328L488.623 278.125L488.545 278.047ZM369.308 300C369.308 291.712 372.601 283.763 378.462 277.903C384.323 272.042 392.273 268.75 400.562 268.75C408.852 268.75 416.802 272.042 422.663 277.903C428.525 283.763 431.817 291.712 431.817 300C431.817 308.288 428.525 316.237 422.663 322.097C416.802 327.958 408.852 331.25 400.562 331.25C392.273 331.25 384.323 327.958 378.462 322.097C372.601 316.237 369.308 308.288 369.308 300Z"
				fill="currentColor"
			/>
		</g>
		<defs>
			<clipPath id="clip0_915_10177">
				<rect
					width="500"
					height="400"
					fill="white"
					transform="translate(0.5)"
				/>
			</clipPath>
		</defs>
	</symbol>
	<symbol id="save" viewBox="0 0 501 500">
		<path
			d="M500.5 111.111V444.444C500.5 459.722 495.056 472.806 484.167 483.694C473.278 494.583 460.204 500.018 444.944 500H56.0556C40.7778 500 27.6945 494.556 16.8056 483.667C5.91671 472.778 0.481529 459.704 0.500047 444.444V55.5556C0.500047 40.2778 5.94449 27.1945 16.8334 16.3056C27.7223 5.41671 40.7963 -0.0184714 56.0556 4.71609e-05H389.389L500.5 111.111ZM250.5 416.667C273.648 416.667 293.324 408.565 309.528 392.361C325.732 376.157 333.833 356.481 333.833 333.333C333.833 310.185 325.732 290.509 309.528 274.306C293.324 258.102 273.648 250 250.5 250C227.352 250 207.676 258.102 191.472 274.306C175.269 290.509 167.167 310.185 167.167 333.333C167.167 356.481 175.269 376.157 191.472 392.361C207.676 408.565 227.352 416.667 250.5 416.667ZM83.8334 194.444H333.833V83.3334H83.8334V194.444Z"
			fill="currentColor"
		/>
	</symbol>
	<symbol id="search" viewBox="0 0 501 500">
		<g clip-path="url(#clip0_915_10178)">
			<path
				fill-rule="evenodd"
				clip-rule="evenodd"
				d="M398.734 336.681C433.752 300.97 454.977 254.193 454.977 202.989C454.977 90.8811 353.239 0 227.738 0C102.238 0 0.5 90.8811 0.5 202.989C0.5 315.097 102.238 405.978 227.738 405.978C263.505 405.978 297.342 398.596 327.444 385.445C328.876 387.801 330.593 390.065 332.597 392.198L420.237 485.497C436.37 502.673 465.037 504.913 484.265 490.501C503.492 476.089 506 450.482 489.866 433.306L402.227 340.007C401.12 338.828 399.953 337.719 398.734 336.681ZM227.738 345.081C139.888 345.081 68.6715 281.464 68.6715 202.989C68.6715 124.514 139.888 60.8966 227.738 60.8966C315.588 60.8966 386.805 124.514 386.805 202.989C386.805 281.464 315.588 345.081 227.738 345.081Z"
				fill="currentColor"
			/>
		</g>
		<defs>
			<clipPath id="clip0_915_10178">
				<rect
					width="500"
					height="500"
					fill="white"
					transform="translate(0.5)"
				/>
			</clipPath>
		</defs>
	</symbol>
	<symbol id="shield" viewBox="0 0 401 500">
		<g clip-path="url(#clip0_1100_13007)">
			<path
				d="M200.213 500C142.296 485.417 94.4798 452.183 56.7631 400.3C19.0465 348.417 0.196479 290.817 0.213146 227.5V75L200.213 0L400.213 75V227.5C400.213 290.833 381.355 348.442 343.638 400.325C305.921 452.208 258.113 485.433 200.213 500Z"
				fill="currentColor"
			/>
		</g>
		<defs>
			<clipPath id="clip0_1100_13007">
				<rect
					width="400"
					height="500"
					fill="white"
					transform="translate(0.213135)"
				/>
			</clipPath>
		</defs>
	</symbol>
	<symbol id="sun" viewBox="0 0 501 501">
		<path
			d="M226.379 56.8984V24.6403C226.379 18.2238 228.928 12.0701 233.465 7.5329C238.002 2.99573 244.156 0.446777 250.572 0.446777C256.989 0.446777 263.142 2.99573 267.68 7.5329C272.217 12.0701 274.766 18.2238 274.766 24.6403V56.8984C274.766 63.3149 272.217 69.4686 267.68 74.0058C263.142 78.543 256.989 81.0919 250.572 81.0919C244.156 81.0919 238.002 78.543 233.465 74.0058C228.928 69.4686 226.379 63.3149 226.379 56.8984ZM387.669 250.447C387.669 277.562 379.628 304.068 364.564 326.614C349.5 349.159 328.088 366.731 303.037 377.108C277.986 387.484 250.42 390.199 223.826 384.909C197.232 379.619 172.804 366.562 153.63 347.389C134.457 328.216 121.4 303.787 116.11 277.193C110.82 250.599 113.535 223.033 123.911 197.982C134.288 172.931 151.86 151.519 174.405 136.455C196.951 121.391 223.457 113.35 250.572 113.35C286.921 113.387 321.771 127.843 347.473 153.546C373.176 179.249 387.632 214.098 387.669 250.447ZM339.282 250.447C339.282 232.902 334.079 215.751 324.332 201.162C314.584 186.574 300.73 175.204 284.52 168.49C268.31 161.775 250.474 160.019 233.266 163.442C216.058 166.865 200.251 175.313 187.845 187.72C175.439 200.126 166.99 215.932 163.567 233.14C160.144 250.348 161.901 268.185 168.615 284.395C175.329 300.604 186.7 314.459 201.288 324.206C215.876 333.954 233.027 339.156 250.572 339.156C274.091 339.13 296.639 329.775 313.27 313.145C329.901 296.514 339.255 273.966 339.282 250.447ZM96.3586 130.467C98.609 132.717 101.281 134.503 104.221 135.721C107.162 136.938 110.313 137.565 113.496 137.565C116.678 137.565 119.83 136.938 122.77 135.721C125.711 134.503 128.382 132.717 130.633 130.467C132.883 128.216 134.668 125.545 135.886 122.604C137.104 119.664 137.731 116.512 137.731 113.33C137.731 110.147 137.104 106.996 135.886 104.055C134.668 101.115 132.883 98.4432 130.633 96.1927L106.439 71.9992C101.894 67.4542 95.7298 64.9008 89.3021 64.9008C82.8744 64.9008 76.71 67.4542 72.165 71.9992C67.62 76.5442 65.0666 82.7086 65.0666 89.1363C65.0666 95.564 67.62 101.728 72.165 106.273L96.3586 130.467ZM96.3586 370.386L72.165 394.58C69.9145 396.83 68.1293 399.502 66.9114 402.442C65.6935 405.383 65.0666 408.534 65.0666 411.717C65.0666 414.9 65.6935 418.051 66.9114 420.991C68.1293 423.932 69.9145 426.604 72.165 428.854C76.71 433.399 82.8744 435.952 89.3021 435.952C92.4848 435.952 95.6362 435.326 98.5766 434.108C101.517 432.89 104.189 431.104 106.439 428.854L130.633 404.66C135.178 400.115 137.731 393.951 137.731 387.523C137.731 381.096 135.178 374.931 130.633 370.386C126.088 365.841 119.923 363.288 113.496 363.288C107.068 363.288 100.904 365.841 96.3586 370.386ZM387.669 137.544C390.847 137.546 393.995 136.922 396.932 135.708C399.868 134.494 402.537 132.713 404.786 130.467L428.979 106.273C431.23 104.023 433.015 101.351 434.233 98.4108C435.451 95.4704 436.078 92.3189 436.078 89.1363C436.078 85.9536 435.451 82.8021 434.233 79.8618C433.015 76.9214 431.23 74.2497 428.979 71.9992C426.729 69.7487 424.057 67.9635 421.117 66.7456C418.177 65.5276 415.025 64.9008 411.842 64.9008C408.66 64.9008 405.508 65.5276 402.568 66.7456C399.628 67.9635 396.956 69.7487 394.705 71.9992L370.512 96.1927C367.108 99.5766 364.788 103.896 363.846 108.603C362.904 113.309 363.383 118.189 365.223 122.622C367.062 127.055 370.178 130.841 374.175 133.498C378.172 136.155 382.869 137.563 387.669 137.544ZM404.786 370.427C400.241 365.882 394.077 363.328 387.649 363.328C381.221 363.328 375.057 365.882 370.512 370.427C365.967 374.972 363.413 381.136 363.413 387.564C363.413 393.991 365.967 400.156 370.512 404.701L394.705 428.894C399.25 433.439 405.415 435.993 411.842 435.993C418.27 435.993 424.434 433.439 428.979 428.894C433.525 424.349 436.078 418.185 436.078 411.757C436.078 405.33 433.525 399.165 428.979 394.62L404.786 370.427ZM81.2174 250.447C81.2174 244.03 78.6685 237.877 74.1313 233.339C69.5941 228.802 63.4404 226.253 57.0239 226.253H24.7658C18.3493 226.253 12.1956 228.802 7.65839 233.339C3.12122 237.877 0.572266 244.03 0.572266 250.447C0.572266 256.863 3.12122 263.017 7.65839 267.554C12.1956 272.091 18.3493 274.64 24.7658 274.64H57.0239C63.4404 274.64 69.5941 272.091 74.1313 267.554C78.6685 263.017 81.2174 256.863 81.2174 250.447ZM250.572 419.802C244.156 419.802 238.002 422.351 233.465 426.888C228.928 431.425 226.379 437.579 226.379 443.995V476.253C226.379 482.67 228.928 488.823 233.465 493.361C238.002 497.898 244.156 500.447 250.572 500.447C256.989 500.447 263.142 497.898 267.68 493.361C272.217 488.823 274.766 482.67 274.766 476.253V443.995C274.766 437.579 272.217 431.425 267.68 426.888C263.142 422.351 256.989 419.802 250.572 419.802ZM476.379 226.253H444.121C437.704 226.253 431.55 228.802 427.013 233.339C422.476 237.877 419.927 244.03 419.927 250.447C419.927 256.863 422.476 263.017 427.013 267.554C431.55 272.091 437.704 274.64 444.121 274.64H476.379C482.795 274.64 488.949 272.091 493.486 267.554C498.023 263.017 500.572 256.863 500.572 250.447C500.572 244.03 498.023 237.877 493.486 233.339C488.949 228.802 482.795 226.253 476.379 226.253Z"
			fill="currentColor"
		/>
	</symbol>
	<symbol id="time" viewBox="0 0 501 501">
		<g clip-path="url(#clip0_1111_9469)">
			<path
				d="M250.62 0.893555C388.695 0.893555 500.62 112.819 500.62 250.894C500.62 388.969 388.695 500.894 250.62 500.894C112.545 500.894 0.620361 388.969 0.620361 250.894C0.620361 112.819 112.545 0.893555 250.62 0.893555ZM227.37 140.419C222.742 140.419 218.304 142.257 215.031 145.53C211.759 148.802 209.92 153.241 209.92 157.869V297.394C209.92 307.044 217.72 314.844 227.37 314.844H366.895C369.241 314.932 371.58 314.547 373.773 313.711C375.966 312.875 377.968 311.604 379.659 309.976C381.35 308.348 382.695 306.396 383.614 304.236C384.532 302.076 385.006 299.753 385.006 297.406C385.006 295.059 384.532 292.736 383.614 290.576C382.695 288.416 381.35 286.464 379.659 284.836C377.968 283.208 375.966 281.938 373.773 281.101C371.58 280.265 369.241 279.88 366.895 279.969H244.795V157.869C244.795 153.245 242.96 148.81 239.693 145.538C236.426 142.267 231.994 140.425 227.37 140.419Z"
				fill="currentColor"
			/>
		</g>
		<defs>
			<clipPath id="clip0_1111_9469">
				<rect
					width="500"
					height="500"
					fill="white"
					transform="translate(0.620361 0.893555)"
				/>
			</clipPath>
		</defs>
	</symbol>
	<symbol id="user" viewBox="0 0 501 501">
		<path
			d="M250.572 0.446777C283.724 0.446777 315.519 13.6164 338.961 37.0584C362.403 60.5005 375.572 92.2947 375.572 125.447C375.572 158.599 362.403 190.393 338.961 213.835C315.519 237.277 283.724 250.447 250.572 250.447C217.42 250.447 185.626 237.277 162.184 213.835C138.742 190.393 125.572 158.599 125.572 125.447C125.572 92.2947 138.742 60.5005 162.184 37.0584C185.626 13.6164 217.42 0.446777 250.572 0.446777ZM250.572 312.947C388.697 312.947 500.572 368.884 500.572 437.947V500.447H0.572266V437.947C0.572266 368.884 112.447 312.947 250.572 312.947Z"
			fill="currentColor"
		/>
	</symbol>
	<symbol id="user_add" viewBox="0 0 501 400">
		<g clip-path="url(#clip0_915_10176)">
			<path
				d="M75.5 100C75.5 73.4783 86.0357 48.043 104.789 29.2893C123.543 10.5357 148.978 0 175.5 0C202.022 0 227.457 10.5357 246.211 29.2893C264.964 48.043 275.5 73.4783 275.5 100C275.5 126.522 264.964 151.957 246.211 170.711C227.457 189.464 202.022 200 175.5 200C148.978 200 123.543 189.464 104.789 170.711C86.0357 151.957 75.5 126.522 75.5 100ZM0.5 376.797C0.5 299.844 62.8438 237.5 139.797 237.5H211.203C288.156 237.5 350.5 299.844 350.5 376.797C350.5 389.609 340.109 400 327.297 400H23.7031C10.8906 400 0.5 389.609 0.5 376.797ZM394.25 243.75V193.75H344.25C333.859 193.75 325.5 185.391 325.5 175C325.5 164.609 333.859 156.25 344.25 156.25H394.25V106.25C394.25 95.8594 402.609 87.5 413 87.5C423.391 87.5 431.75 95.8594 431.75 106.25V156.25H481.75C492.141 156.25 500.5 164.609 500.5 175C500.5 185.391 492.141 193.75 481.75 193.75H431.75V243.75C431.75 254.141 423.391 262.5 413 262.5C402.609 262.5 394.25 254.141 394.25 243.75Z"
				fill="currentColor"
			/>
		</g>
		<defs>
			<clipPath id="clip0_915_10176">
				<rect
					width="500"
					height="400"
					fill="white"
					transform="translate(0.5)"
				/>
			</clipPath>
		</defs>
	</symbol>
	<symbol id="youtube" viewBox="0 0 501 301">
		<path
			d="M200.5 215.087L330.25 150.801L200.5 86.5156V215.087ZM489.5 47.3013C492.75 57.3727 495 70.8727 496.5 88.0155C498.25 105.158 499 119.944 499 132.801L500.5 150.801C500.5 197.73 496.5 232.23 489.5 254.301C483.25 273.587 468.75 286.016 446.25 291.373C434.5 294.158 413 296.087 380 297.373C347.5 298.873 317.75 299.516 290.25 299.516L250.5 300.801C145.75 300.801 80.5 297.373 54.75 291.373C32.25 286.016 17.75 273.587 11.5 254.301C8.25 244.23 6 230.73 4.5 213.587C2.75 196.444 2 181.658 2 168.801L0.5 150.801C0.5 103.873 4.5 69.3727 11.5 47.3013C17.75 28.0156 32.25 15.587 54.75 10.2298C66.5 7.44413 88 5.51555 121 4.22984C153.5 2.72984 183.25 2.08698 210.75 2.08698L250.5 0.80127C355.25 0.80127 420.5 4.22984 446.25 10.2298C468.75 15.587 483.25 28.0156 489.5 47.3013Z"
			fill="currentColor"
		/>
	</symbol>
	<symbol id="location__gps" viewBox="0 0 378 501">
		<g clip-path="url(#clip0_1206_10967)">
			<path
				d="M188.906 0.893555C85.3594 0.893555 1.40625 84.8467 1.40625 188.394C1.40625 229.167 14.7734 266.581 36.9922 297.222C37.3906 297.956 37.4531 298.776 37.9062 299.479L162.906 486.979C168.703 495.675 178.469 500.894 188.906 500.894C199.344 500.894 209.109 495.675 214.906 486.979L339.906 299.479C340.367 298.776 340.422 297.956 340.82 297.222C363.039 266.581 376.406 229.167 376.406 188.394C376.406 84.8467 292.453 0.893555 188.906 0.893555ZM188.906 250.894C154.391 250.894 126.406 222.909 126.406 188.394C126.406 153.878 154.391 125.894 188.906 125.894C223.422 125.894 251.406 153.878 251.406 188.394C251.406 222.909 223.422 250.894 188.906 250.894Z"
				fill="currentColor"
			/>
		</g>
		<defs>
			<clipPath id="clip0_1206_10967">
				<rect
					width="377"
					height="500"
					fill="currentColor"
					transform="translate(0.40625 0.893555)"
				/>
			</clipPath>
		</defs>
	</symbol>
	<symbol id="description" viewBox="0 0 500 625" fill="none">
		<path
			d="M125 500H375V437.5H125V500ZM125 375H375V312.5H125V375ZM62.5 625C45.3125 625 30.5938 618.875 18.3438 606.625C6.0938 594.375 -0.0207803 579.667 5.3056e-05 562.5V62.5C5.3056e-05 45.3125 6.12505 30.5938 18.375 18.3438C30.625 6.0938 45.3334 -0.0207803 62.5 5.3056e-05H312.5L500 187.5V562.5C500 579.687 493.875 594.406 481.625 606.656C469.375 618.906 454.667 625.021 437.5 625H62.5ZM281.25 218.75H437.5L281.25 62.5V218.75Z"
			fill="currentColor"
		/>
	</symbol>
	<symbol id="bs" viewBox="0 0 500 389" fill="none">
		<path
			d="M500.001 298.802C500.001 353.323 456.854 388.582 390.093 388.582C360.199 388.582 330.858 381.405 309.635 368.929L305.59 366.535C304.404 365.838 303.868 364.443 304.309 363.127L320.425 314.015C320.714 313.182 321.388 312.487 322.242 312.171C323.082 311.882 324.032 312 324.782 312.501L331.127 316.644C344.943 325.686 368.856 334.783 391.194 334.783C418.644 334.783 435.015 323.016 435.015 303.26C435.015 284.501 423.757 274.021 390.396 261.703C326.565 238.933 313.147 203.053 313.147 176.929C313.147 125.057 355.123 88.816 415.226 88.816C440.631 88.816 467.18 95.5323 486.214 106.808L490.274 109.216C491.471 109.936 491.995 111.367 491.541 112.685L475.314 159.905C475.024 160.741 474.377 161.418 473.525 161.707C472.684 161.997 471.762 161.883 471.005 161.418L464.785 157.493C457.986 153.175 439.42 143.183 414.11 143.183C392.242 143.183 377.558 154.493 377.558 171.325C377.558 187.038 387.838 195.496 423.374 209.028C476.371 229.202 500.001 256.893 500.001 298.802ZM242.016 174.785L230.714 180.5L242.288 185.685C274.087 199.847 289.741 228.487 290.163 273.243C290.43 302.241 281.381 326.216 263.243 344.521C234.271 373.767 185.036 388.589 116.927 388.589C112.055 388.589 107.214 388.508 102.05 388.371L5.46112 388.095C4.01633 388.095 2.66352 387.543 1.64833 386.539C0.58541 385.466 0.000976562 384.076 0.000976562 382.603V6.14781C0.000976562 3.13367 2.46794 0.673695 5.48906 0.673695L122.366 0.645752C208.559 0.645752 288.654 12.4276 291.042 97.8246C292.212 140.251 265.03 163.094 242.016 174.785ZM212.03 275.762C212.03 239.732 180.824 226.975 154.11 226.975L72.707 226.575V327.594L152.2 327.621C153.625 327.691 154.75 327.732 156.316 327.732C164.801 327.732 185.995 326.245 199.551 312.441C208.121 303.721 212.312 291.377 212.03 275.762ZM212.03 101.55C212.03 65.5237 181.126 52.7476 154.653 52.7476L72.7059 52.5823V153.37L151.425 153.356C151.48 153.356 151.529 153.356 151.58 153.37C153.389 153.442 154.391 153.469 156.266 153.315L159.576 153.054C172.484 152.059 187.101 150.931 199.557 138.241C208.121 129.519 212.312 117.171 212.03 101.55Z"
			fill="currentColor"
		/>
	</symbol>
</svg>