<svg  viewBox="0 0 1200 1700" fill="none" xmlns="http://www.w3.org/2000/svg">
<path d="M1027.7 1050.81L1027.24 1051.25L1026.94 1051.82L679.462 1653.63C644.168 1714.8 555.832 1714.8 520.538 1653.63L173.042 1051.82L172.719 1051.25L172.276 1050.81C65.7479 942.506 0 793.927 0 630.001C0 298.639 268.639 30 600 30C931.361 30 1200 298.639 1200 630.001C1200 793.927 1134.25 942.506 1027.7 1050.81Z" fill="#002C17"/>
<path d="M1027.7 1020.81L1027.24 1021.25L1026.94 1021.82L679.462 1623.63C644.168 1684.8 555.832 1684.8 520.538 1623.63L173.042 1021.82L172.719 1021.25L172.276 1020.81C65.7479 912.504 0 763.926 0 600C0 268.639 268.639 0 600 0C931.361 0 1200 268.639 1200 600C1200 763.926 1134.25 912.504 1027.7 1020.81Z" fill="#198754"/>
<path d="M1099.75 623.75C1099.75 899.891 875.891 1123.75 599.75 1123.75C323.609 1123.75 99.75 899.891 99.75 623.75C99.75 347.609 323.609 123.75 599.75 123.75C875.891 123.75 1099.75 347.609 1099.75 623.75Z" fill="#65000A"/>
<path d="M1099.75 598.75C1099.75 874.891 875.891 1098.75 599.75 1098.75C323.609 1098.75 99.75 874.891 99.75 598.75C99.75 322.609 323.609 98.75 599.75 98.75C875.891 98.75 1099.75 322.609 1099.75 598.75Z" fill="#DC3545"/>
<path d="M445.149 465.377L445.095 489.439C444.99 522.725 422.437 552.114 389.47 561.867L311.318 584.95C261.098 599.817 210.614 563.642 210.799 512.946L211.011 437.894C211.038 418.787 215.967 399.972 228.37 385.025C267.512 337.826 377.571 236.672 602.009 236.009C813.647 235.426 923.123 306.847 967.565 346.519C984.924 362.022 992.027 384.495 992 407.419L991.734 490.367C991.602 536.612 948.936 572.123 901.658 565.339L823.665 554.129C785.476 548.643 757.359 516.975 757.491 479.634V464.475C757.491 464.475 757.676 407.259 601.506 407.71C445.335 408.161 445.149 465.377 445.149 465.377ZM322.868 902.691C330.576 904.214 338.046 904.975 345.278 904.975C360.694 904.975 374.35 901.645 386.245 894.983C398.139 888.226 407.417 878.473 414.079 865.721C420.74 853.064 424.071 837.744 424.071 819.759V774.653C424.071 757.048 421.074 742.013 415.079 729.547C409.084 717.081 400.709 707.565 389.956 700.999C379.298 694.433 366.832 691.15 352.558 691.15C339.14 691.15 327.15 694.433 316.587 700.999C306.12 707.47 297.888 716.32 291.893 727.548C285.803 738.777 282.758 751.386 282.758 765.375C282.758 780.315 285.327 793.114 290.466 803.772C295.604 814.429 302.789 822.614 312.02 828.323C321.25 834.128 332.003 837.03 344.279 837.03C360.361 837.03 373.113 830.941 382.533 818.759L382.819 821.9C382.629 839.409 379.06 852.303 372.113 860.583C365.167 868.862 355.651 873.002 343.565 873.002C331.194 873.002 318.824 870.717 306.453 866.15L301.742 896.268C308.213 899.123 315.255 901.263 322.868 902.691ZM370.4 802.63C365.357 805.2 359.647 806.484 353.272 806.484C340.71 806.484 332.194 800.061 327.721 787.214C325.532 780.933 324.438 773.654 324.438 765.375C324.438 757.667 325.628 750.625 328.007 744.249C330.481 737.778 333.859 732.64 338.141 728.833C342.328 725.122 347.229 723.266 352.843 723.266C361.979 723.266 369.211 727.215 374.54 735.114C379.869 742.917 382.533 754.479 382.533 769.8V792.067C379.488 796.444 375.444 799.965 370.4 802.63ZM535.979 797.063V829.18H455.473V797.063H535.979ZM674.294 901.977V876.998L639.181 872.716V694.147L562.101 708.136V731.973H597.644V872.716L562.529 876.998V901.977H674.294ZM781.778 797.063V829.18H701.273V797.063H781.778ZM920.094 901.977V876.998L884.979 872.716V694.147L807.9 708.136V731.973H843.442V872.716L808.328 876.998V901.977H920.094Z" fill="#9A999E"/>
<path d="M445.149 465.377L445.095 489.439C444.99 522.725 422.437 552.114 389.47 561.867L311.318 584.95C261.098 599.817 210.614 563.642 210.799 512.946L211.011 437.894C211.038 418.787 215.967 399.972 228.37 385.025C267.512 337.826 377.571 236.672 602.009 236.009C813.647 235.426 923.123 306.847 967.565 346.519C984.924 362.022 992.027 384.495 992 407.419L991.734 490.367C991.602 536.612 948.936 572.123 901.658 565.339L823.665 554.129C785.476 548.643 757.359 516.975 757.491 479.634V464.475C757.491 464.475 757.676 407.259 601.506 407.71C445.335 408.161 445.149 465.377 445.149 465.377ZM322.868 902.691C330.576 904.214 338.046 904.975 345.278 904.975C360.694 904.975 374.35 901.645 386.245 894.983C398.139 888.226 407.417 878.473 414.079 865.721C420.74 853.064 424.071 837.744 424.071 819.759V774.653C424.071 757.048 421.074 742.013 415.079 729.547C409.084 717.081 400.709 707.565 389.956 700.999C379.298 694.433 366.832 691.15 352.558 691.15C339.14 691.15 327.15 694.433 316.587 700.999C306.12 707.47 297.888 716.32 291.893 727.548C285.803 738.777 282.758 751.386 282.758 765.375C282.758 780.315 285.327 793.114 290.466 803.772C295.604 814.429 302.789 822.614 312.02 828.323C321.25 834.128 332.003 837.03 344.279 837.03C360.361 837.03 373.113 830.941 382.533 818.759L382.819 821.9C382.629 839.409 379.06 852.303 372.113 860.583C365.167 868.862 355.651 873.002 343.565 873.002C331.194 873.002 318.824 870.717 306.453 866.15L301.742 896.268C308.213 899.123 315.255 901.263 322.868 902.691ZM370.4 802.63C365.357 805.2 359.647 806.484 353.272 806.484C340.71 806.484 332.194 800.061 327.721 787.214C325.532 780.933 324.438 773.654 324.438 765.375C324.438 757.667 325.628 750.625 328.007 744.249C330.481 737.778 333.859 732.64 338.141 728.833C342.328 725.122 347.229 723.266 352.843 723.266C361.979 723.266 369.211 727.215 374.54 735.114C379.869 742.917 382.533 754.479 382.533 769.8V792.067C379.488 796.444 375.444 799.965 370.4 802.63ZM535.979 797.063V829.18H455.473V797.063H535.979ZM674.294 901.977V876.998L639.181 872.716V694.147L562.101 708.136V731.973H597.644V872.716L562.529 876.998V901.977H674.294ZM781.778 797.063V829.18H701.273V797.063H781.778ZM920.094 901.977V876.998L884.979 872.716V694.147L807.9 708.136V731.973H843.442V872.716L808.328 876.998V901.977H920.094Z" stroke="#7C7C7C"/>
<path d="M444.149 448.377L444.095 472.439C443.99 505.725 421.437 535.114 388.47 544.867L310.318 567.95C260.098 582.817 209.614 546.642 209.799 495.946L210.011 420.894C210.038 401.787 214.967 382.972 227.37 368.025C266.512 320.826 376.571 219.672 601.009 219.009C812.647 218.426 922.123 289.847 966.565 329.519C983.924 345.022 991.027 367.495 991 390.419L990.734 473.367C990.602 519.612 947.936 555.123 900.658 548.339L822.665 537.129C784.476 531.643 756.359 499.975 756.491 462.634V447.475C756.491 447.475 756.676 390.259 600.506 390.71C444.335 391.161 444.149 448.377 444.149 448.377Z" fill="white"/>
<path fill-rule="evenodd" clip-rule="evenodd" d="M321.868 885.691C329.576 887.214 337.046 887.975 344.278 887.975C359.694 887.975 373.35 884.644 385.245 877.983C397.139 871.226 406.417 861.473 413.079 848.721C419.74 836.064 423.071 820.744 423.071 802.759V757.653C423.071 740.048 420.074 725.013 414.079 712.547C408.084 700.081 399.709 690.565 388.956 683.999C378.298 677.433 365.832 674.15 351.558 674.15C338.14 674.15 326.15 677.433 315.587 683.999C305.12 690.47 296.888 699.32 290.893 710.548C284.803 721.777 281.758 734.386 281.758 748.375C281.758 763.315 284.327 776.114 289.466 786.772C294.604 797.429 301.789 805.614 311.02 811.323C320.25 817.128 331.003 820.03 343.279 820.03C359.361 820.03 372.113 813.941 381.533 801.759L381.819 804.9C381.629 822.409 378.06 835.303 371.113 843.583C364.167 851.862 354.651 856.002 342.565 856.002C330.194 856.002 317.824 853.717 305.453 849.15L300.742 879.268C307.213 882.123 314.255 884.263 321.868 885.691ZM369.4 785.63C364.357 788.2 358.647 789.484 352.272 789.484C339.71 789.484 331.194 783.061 326.721 770.214C324.532 763.933 323.438 756.654 323.438 748.375C323.438 740.667 324.628 733.625 327.007 727.249C329.481 720.778 332.859 715.64 337.141 711.833C341.328 708.122 346.229 706.266 351.843 706.266C360.979 706.266 368.211 710.215 373.54 718.114C378.869 725.917 381.533 737.479 381.533 752.8V775.067C378.488 779.444 374.444 782.965 369.4 785.63Z" fill="white"/>
<path d="M534.979 812.18V780.063H454.473V812.18H534.979Z" fill="white"/>
<path d="M673.294 884.977V859.998L638.181 855.716V677.147L561.101 691.136V714.973H596.644V855.716L561.529 859.998V884.977H673.294Z" fill="white"/>
<path d="M780.778 812.18V780.063H700.273V812.18H780.778Z" fill="white"/>
<path d="M919.094 884.977V859.998L883.979 855.716V677.147L806.9 691.136V714.973H842.442V855.716L807.328 859.998V884.977H919.094Z" fill="white"/>
</svg>
