<svg width="60" height="85" viewBox="0 0 60 85" fill="none" xmlns="http://www.w3.org/2000/svg">
<g filter="url(#filter0_d_728_17647)">
<path d="M51.3851 51.0399C56.7129 45.6252 60 38.1965 60 30C60 13.4315 46.5685 0 30 0C13.4315 0 0 13.4315 0 30C0 38.1965 3.28707 45.6252 8.61489 51.0399L25.8431 80.88C27.6906 84.08 32.3094 84.08 34.1569 80.88L51.3851 51.0399Z" fill="#198754"/>
<path d="M51.2069 50.8646L51.1845 50.8873L51.1686 50.9149L33.9404 80.755C32.1891 83.7883 27.8109 83.7883 26.0596 80.755L8.8314 50.9149L8.81545 50.8873L8.79309 50.8646C3.50941 45.4947 0.25 38.1283 0.25 30C0.25 13.5695 13.5695 0.25 30 0.25C46.4305 0.25 59.75 13.5695 59.75 30C59.75 38.1283 56.4906 45.4947 51.2069 50.8646Z" stroke="#222222" stroke-width="0.5"/>
</g>
<g filter="url(#filter1_d_728_17647)">
<circle cx="30" cy="30" r="25" fill="#DC3545"/>
<circle cx="30" cy="30" r="24.75" stroke="#222222" stroke-width="0.5"/>
</g>
<g filter="url(#filter2_d_728_17647)">
<mask id="path-5-inside-1_728_17647" fill="white">
<path d="M13.0183 22.5658C12.8844 24.5819 13.489 26.5778 14.7191 28.1807C15.0341 28.5827 15.4709 28.872 15.964 29.0052C16.4571 29.1384 16.9801 29.1085 17.4548 28.9197L24.5863 26.2018L24.6062 26.1945C24.9712 26.0481 25.294 25.8131 25.5453 25.5107C25.7967 25.2082 25.9686 24.8479 26.0457 24.4623C26.0549 24.4171 26.0616 24.3713 26.0655 24.3253L26.445 19.6159C28.842 18.7891 32.1559 18.7744 34.5299 19.5825L34.9334 24.3389C34.9386 24.386 34.9449 24.432 34.9543 24.479C35.0352 24.8612 35.2094 25.2174 35.4615 25.5159C35.7136 25.8143 36.0357 26.0456 36.399 26.1892L36.4116 26.2018L43.5483 28.9229C44.0229 29.1105 44.5455 29.1396 45.0379 29.0058C45.5304 28.8721 45.9665 28.5826 46.2809 28.1807C47.511 26.5778 48.1156 24.5819 47.9817 22.5658C47.8478 20.5497 46.9846 18.6513 45.5533 17.2252C37.2531 8.92494 23.7469 8.92494 15.4467 17.2252C14.0154 18.6513 13.1522 20.5497 13.0183 22.5658Z"/>
<path fill-rule="evenodd" clip-rule="evenodd" d="M15.0365 41.9905C15.152 42.1465 15.2877 42.2244 15.4436 42.2244C15.7497 42.2244 16.3416 42.0223 17.2194 41.6181C18.1029 41.2081 18.9374 40.4891 19.7228 39.4612C20.5081 38.4275 20.9008 37.0329 20.9008 35.2773C20.9008 34.3418 20.7247 33.5737 20.3724 32.9732C20.026 32.3726 19.5784 31.9366 19.0298 31.6652C18.4812 31.3938 17.8922 31.258 17.2627 31.258C16.6448 31.258 16.0587 31.3793 15.5043 31.6219C14.9557 31.8586 14.5081 32.2369 14.1616 32.7566C13.8151 33.2706 13.6419 33.9231 13.6419 34.7143C13.6419 35.4823 13.8065 36.1118 14.1356 36.6026C14.4648 37.0877 14.8604 37.4371 15.3224 37.6508C15.7901 37.8644 16.2434 37.9713 16.6823 37.9713C16.9422 37.9713 17.1934 37.9453 17.4359 37.8933C17.6843 37.8356 17.947 37.7316 18.2242 37.5815C17.9759 38.3206 17.5514 38.953 16.9509 39.4785C16.3503 40.004 15.6602 40.3851 14.8806 40.6219C14.794 40.645 14.7391 40.6768 14.716 40.7172C14.6929 40.7576 14.6814 40.8356 14.6814 40.9511C14.6814 41.0723 14.7102 41.2369 14.768 41.4448C14.8315 41.6469 14.921 41.8288 15.0365 41.9905ZM18.562 35.8057C18.1174 36.0483 17.7103 36.1695 17.3407 36.1695C16.9018 36.1695 16.5582 36.0338 16.3099 35.7624C16.0673 35.491 15.946 35.1185 15.946 34.645C15.946 34.3389 16.0038 34.0675 16.1193 33.8307C16.2348 33.5882 16.3907 33.4005 16.587 33.2677C16.7892 33.1291 17.0115 33.0598 17.254 33.0598C17.6525 33.0598 17.973 33.2215 18.2155 33.5449C18.4581 33.8625 18.5794 34.3793 18.5794 35.0954C18.5794 35.413 18.5736 35.6498 18.562 35.8057Z"/>
<path d="M21.9923 38.6989C22.0673 38.8202 22.1857 38.8808 22.3474 38.8808H25.4832C25.6448 38.8808 25.7603 38.8202 25.8296 38.6989C25.9047 38.5776 25.9422 38.3813 25.9422 38.1099V38.0059C25.9422 37.7345 25.9047 37.5382 25.8296 37.4169C25.7603 37.2898 25.6448 37.2263 25.4832 37.2263H22.3474C22.1857 37.2263 22.0673 37.2898 21.9923 37.4169C21.9172 37.5382 21.8797 37.7345 21.8797 38.0059V38.1099C21.8797 38.3813 21.9172 38.5776 21.9923 38.6989Z"/>
<path d="M27.1376 41.9646C27.2127 42.0858 27.3311 42.1465 27.4928 42.1465H33.4697C33.6314 42.1465 33.7498 42.0858 33.8249 41.9646C33.8999 41.8375 33.9375 41.6412 33.9375 41.3755V41.1157C33.9375 40.85 33.8999 40.6566 33.8249 40.5353C33.7498 40.4082 33.6314 40.3447 33.4697 40.3447H31.8239V31.6738C31.8239 31.5872 31.7488 31.5035 31.5987 31.4226C31.4543 31.3418 31.3186 31.3014 31.1916 31.3014L27.3542 32.0117C27.2271 32.0348 27.129 32.0838 27.0597 32.1589C26.9904 32.2282 26.9557 32.3206 26.9557 32.4361C26.9557 32.7422 26.9933 33.0367 27.0683 33.3197C27.1492 33.5968 27.2762 33.7354 27.4495 33.7354L29.5457 33.4236V40.3447H27.4928C27.3311 40.3447 27.2127 40.4054 27.1376 40.5266C27.0683 40.6479 27.0337 40.8442 27.0337 41.1157V41.3755C27.0337 41.6469 27.0683 41.8433 27.1376 41.9646Z"/>
<path d="M35.1762 38.6989C35.2513 38.8202 35.3696 38.8808 35.5313 38.8808H38.6671C38.8287 38.8808 38.9442 38.8202 39.0135 38.6989C39.0886 38.5776 39.1262 38.3813 39.1262 38.1099V38.0059C39.1262 37.7345 39.0886 37.5382 39.0135 37.4169C38.9442 37.2898 38.8287 37.2263 38.6671 37.2263H35.5313C35.3696 37.2263 35.2513 37.2898 35.1762 37.4169C35.1011 37.5382 35.0636 37.7345 35.0636 38.0059V38.1099C35.0636 38.3813 35.1011 38.5776 35.1762 38.6989Z"/>
<path d="M40.3215 41.9646C40.3966 42.0858 40.515 42.1465 40.6767 42.1465H46.6536C46.8153 42.1465 46.9337 42.0858 47.0088 41.9646C47.0838 41.8375 47.1214 41.6412 47.1214 41.3755V41.1157C47.1214 40.85 47.0838 40.6566 47.0088 40.5353C46.9337 40.4082 46.8153 40.3447 46.6536 40.3447H45.0078V31.6738C45.0078 31.5872 44.9327 31.5035 44.7826 31.4226C44.6382 31.3418 44.5025 31.3014 44.3755 31.3014L40.5381 32.0117C40.411 32.0348 40.3129 32.0838 40.2436 32.1589C40.1743 32.2282 40.1396 32.3206 40.1396 32.4361C40.1396 32.7422 40.1772 33.0367 40.2522 33.3197C40.3331 33.5968 40.4601 33.7354 40.6334 33.7354L42.7296 33.4236V40.3447H40.6767C40.515 40.3447 40.3966 40.4054 40.3215 40.5266C40.2522 40.6479 40.2176 40.8442 40.2176 41.1157V41.3755C40.2176 41.6469 40.2522 41.8433 40.3215 41.9646Z"/>
</mask>
<path d="M13.0183 22.5658C12.8844 24.5819 13.489 26.5778 14.7191 28.1807C15.0341 28.5827 15.4709 28.872 15.964 29.0052C16.4571 29.1384 16.9801 29.1085 17.4548 28.9197L24.5863 26.2018L24.6062 26.1945C24.9712 26.0481 25.294 25.8131 25.5453 25.5107C25.7967 25.2082 25.9686 24.8479 26.0457 24.4623C26.0549 24.4171 26.0616 24.3713 26.0655 24.3253L26.445 19.6159C28.842 18.7891 32.1559 18.7744 34.5299 19.5825L34.9334 24.3389C34.9386 24.386 34.9449 24.432 34.9543 24.479C35.0352 24.8612 35.2094 25.2174 35.4615 25.5159C35.7136 25.8143 36.0357 26.0456 36.399 26.1892L36.4116 26.2018L43.5483 28.9229C44.0229 29.1105 44.5455 29.1396 45.0379 29.0058C45.5304 28.8721 45.9665 28.5826 46.2809 28.1807C47.511 26.5778 48.1156 24.5819 47.9817 22.5658C47.8478 20.5497 46.9846 18.6513 45.5533 17.2252C37.2531 8.92494 23.7469 8.92494 15.4467 17.2252C14.0154 18.6513 13.1522 20.5497 13.0183 22.5658Z" fill="#FCFCFC"/>
<path fill-rule="evenodd" clip-rule="evenodd" d="M15.0365 41.9905C15.152 42.1465 15.2877 42.2244 15.4436 42.2244C15.7497 42.2244 16.3416 42.0223 17.2194 41.6181C18.1029 41.2081 18.9374 40.4891 19.7228 39.4612C20.5081 38.4275 20.9008 37.0329 20.9008 35.2773C20.9008 34.3418 20.7247 33.5737 20.3724 32.9732C20.026 32.3726 19.5784 31.9366 19.0298 31.6652C18.4812 31.3938 17.8922 31.258 17.2627 31.258C16.6448 31.258 16.0587 31.3793 15.5043 31.6219C14.9557 31.8586 14.5081 32.2369 14.1616 32.7566C13.8151 33.2706 13.6419 33.9231 13.6419 34.7143C13.6419 35.4823 13.8065 36.1118 14.1356 36.6026C14.4648 37.0877 14.8604 37.4371 15.3224 37.6508C15.7901 37.8644 16.2434 37.9713 16.6823 37.9713C16.9422 37.9713 17.1934 37.9453 17.4359 37.8933C17.6843 37.8356 17.947 37.7316 18.2242 37.5815C17.9759 38.3206 17.5514 38.953 16.9509 39.4785C16.3503 40.004 15.6602 40.3851 14.8806 40.6219C14.794 40.645 14.7391 40.6768 14.716 40.7172C14.6929 40.7576 14.6814 40.8356 14.6814 40.9511C14.6814 41.0723 14.7102 41.2369 14.768 41.4448C14.8315 41.6469 14.921 41.8288 15.0365 41.9905ZM18.562 35.8057C18.1174 36.0483 17.7103 36.1695 17.3407 36.1695C16.9018 36.1695 16.5582 36.0338 16.3099 35.7624C16.0673 35.491 15.946 35.1185 15.946 34.645C15.946 34.3389 16.0038 34.0675 16.1193 33.8307C16.2348 33.5882 16.3907 33.4005 16.587 33.2677C16.7892 33.1291 17.0115 33.0598 17.254 33.0598C17.6525 33.0598 17.973 33.2215 18.2155 33.5449C18.4581 33.8625 18.5794 34.3793 18.5794 35.0954C18.5794 35.413 18.5736 35.6498 18.562 35.8057Z" fill="#FCFCFC"/>
<path d="M21.9923 38.6989C22.0673 38.8202 22.1857 38.8808 22.3474 38.8808H25.4832C25.6448 38.8808 25.7603 38.8202 25.8296 38.6989C25.9047 38.5776 25.9422 38.3813 25.9422 38.1099V38.0059C25.9422 37.7345 25.9047 37.5382 25.8296 37.4169C25.7603 37.2898 25.6448 37.2263 25.4832 37.2263H22.3474C22.1857 37.2263 22.0673 37.2898 21.9923 37.4169C21.9172 37.5382 21.8797 37.7345 21.8797 38.0059V38.1099C21.8797 38.3813 21.9172 38.5776 21.9923 38.6989Z" fill="#FCFCFC"/>
<path d="M27.1376 41.9646C27.2127 42.0858 27.3311 42.1465 27.4928 42.1465H33.4697C33.6314 42.1465 33.7498 42.0858 33.8249 41.9646C33.8999 41.8375 33.9375 41.6412 33.9375 41.3755V41.1157C33.9375 40.85 33.8999 40.6566 33.8249 40.5353C33.7498 40.4082 33.6314 40.3447 33.4697 40.3447H31.8239V31.6738C31.8239 31.5872 31.7488 31.5035 31.5987 31.4226C31.4543 31.3418 31.3186 31.3014 31.1916 31.3014L27.3542 32.0117C27.2271 32.0348 27.129 32.0838 27.0597 32.1589C26.9904 32.2282 26.9557 32.3206 26.9557 32.4361C26.9557 32.7422 26.9933 33.0367 27.0683 33.3197C27.1492 33.5968 27.2762 33.7354 27.4495 33.7354L29.5457 33.4236V40.3447H27.4928C27.3311 40.3447 27.2127 40.4054 27.1376 40.5266C27.0683 40.6479 27.0337 40.8442 27.0337 41.1157V41.3755C27.0337 41.6469 27.0683 41.8433 27.1376 41.9646Z" fill="#FCFCFC"/>
<path d="M35.1762 38.6989C35.2513 38.8202 35.3696 38.8808 35.5313 38.8808H38.6671C38.8287 38.8808 38.9442 38.8202 39.0135 38.6989C39.0886 38.5776 39.1262 38.3813 39.1262 38.1099V38.0059C39.1262 37.7345 39.0886 37.5382 39.0135 37.4169C38.9442 37.2898 38.8287 37.2263 38.6671 37.2263H35.5313C35.3696 37.2263 35.2513 37.2898 35.1762 37.4169C35.1011 37.5382 35.0636 37.7345 35.0636 38.0059V38.1099C35.0636 38.3813 35.1011 38.5776 35.1762 38.6989Z" fill="#FCFCFC"/>
<path d="M40.3215 41.9646C40.3966 42.0858 40.515 42.1465 40.6767 42.1465H46.6536C46.8153 42.1465 46.9337 42.0858 47.0088 41.9646C47.0838 41.8375 47.1214 41.6412 47.1214 41.3755V41.1157C47.1214 40.85 47.0838 40.6566 47.0088 40.5353C46.9337 40.4082 46.8153 40.3447 46.6536 40.3447H45.0078V31.6738C45.0078 31.5872 44.9327 31.5035 44.7826 31.4226C44.6382 31.3418 44.5025 31.3014 44.3755 31.3014L40.5381 32.0117C40.411 32.0348 40.3129 32.0838 40.2436 32.1589C40.1743 32.2282 40.1396 32.3206 40.1396 32.4361C40.1396 32.7422 40.1772 33.0367 40.2522 33.3197C40.3331 33.5968 40.4601 33.7354 40.6334 33.7354L42.7296 33.4236V40.3447H40.6767C40.515 40.3447 40.3966 40.4054 40.3215 40.5266C40.2522 40.6479 40.2176 40.8442 40.2176 41.1157V41.3755C40.2176 41.6469 40.2522 41.8433 40.3215 41.9646Z" fill="#FCFCFC"/>
<path d="M13.0183 22.5658C12.8844 24.5819 13.489 26.5778 14.7191 28.1807C15.0341 28.5827 15.4709 28.872 15.964 29.0052C16.4571 29.1384 16.9801 29.1085 17.4548 28.9197L24.5863 26.2018L24.6062 26.1945C24.9712 26.0481 25.294 25.8131 25.5453 25.5107C25.7967 25.2082 25.9686 24.8479 26.0457 24.4623C26.0549 24.4171 26.0616 24.3713 26.0655 24.3253L26.445 19.6159C28.842 18.7891 32.1559 18.7744 34.5299 19.5825L34.9334 24.3389C34.9386 24.386 34.9449 24.432 34.9543 24.479C35.0352 24.8612 35.2094 25.2174 35.4615 25.5159C35.7136 25.8143 36.0357 26.0456 36.399 26.1892L36.4116 26.2018L43.5483 28.9229C44.0229 29.1105 44.5455 29.1396 45.0379 29.0058C45.5304 28.8721 45.9665 28.5826 46.2809 28.1807C47.511 26.5778 48.1156 24.5819 47.9817 22.5658C47.8478 20.5497 46.9846 18.6513 45.5533 17.2252C37.2531 8.92494 23.7469 8.92494 15.4467 17.2252C14.0154 18.6513 13.1522 20.5497 13.0183 22.5658Z" stroke="#222222" mask="url(#path-5-inside-1_728_17647)"/>
<path fill-rule="evenodd" clip-rule="evenodd" d="M15.0365 41.9905C15.152 42.1465 15.2877 42.2244 15.4436 42.2244C15.7497 42.2244 16.3416 42.0223 17.2194 41.6181C18.1029 41.2081 18.9374 40.4891 19.7228 39.4612C20.5081 38.4275 20.9008 37.0329 20.9008 35.2773C20.9008 34.3418 20.7247 33.5737 20.3724 32.9732C20.026 32.3726 19.5784 31.9366 19.0298 31.6652C18.4812 31.3938 17.8922 31.258 17.2627 31.258C16.6448 31.258 16.0587 31.3793 15.5043 31.6219C14.9557 31.8586 14.5081 32.2369 14.1616 32.7566C13.8151 33.2706 13.6419 33.9231 13.6419 34.7143C13.6419 35.4823 13.8065 36.1118 14.1356 36.6026C14.4648 37.0877 14.8604 37.4371 15.3224 37.6508C15.7901 37.8644 16.2434 37.9713 16.6823 37.9713C16.9422 37.9713 17.1934 37.9453 17.4359 37.8933C17.6843 37.8356 17.947 37.7316 18.2242 37.5815C17.9759 38.3206 17.5514 38.953 16.9509 39.4785C16.3503 40.004 15.6602 40.3851 14.8806 40.6219C14.794 40.645 14.7391 40.6768 14.716 40.7172C14.6929 40.7576 14.6814 40.8356 14.6814 40.9511C14.6814 41.0723 14.7102 41.2369 14.768 41.4448C14.8315 41.6469 14.921 41.8288 15.0365 41.9905ZM18.562 35.8057C18.1174 36.0483 17.7103 36.1695 17.3407 36.1695C16.9018 36.1695 16.5582 36.0338 16.3099 35.7624C16.0673 35.491 15.946 35.1185 15.946 34.645C15.946 34.3389 16.0038 34.0675 16.1193 33.8307C16.2348 33.5882 16.3907 33.4005 16.587 33.2677C16.7892 33.1291 17.0115 33.0598 17.254 33.0598C17.6525 33.0598 17.973 33.2215 18.2155 33.5449C18.4581 33.8625 18.5794 34.3793 18.5794 35.0954C18.5794 35.413 18.5736 35.6498 18.562 35.8057Z" stroke="#222222" mask="url(#path-5-inside-1_728_17647)"/>
<path d="M21.9923 38.6989C22.0673 38.8202 22.1857 38.8808 22.3474 38.8808H25.4832C25.6448 38.8808 25.7603 38.8202 25.8296 38.6989C25.9047 38.5776 25.9422 38.3813 25.9422 38.1099V38.0059C25.9422 37.7345 25.9047 37.5382 25.8296 37.4169C25.7603 37.2898 25.6448 37.2263 25.4832 37.2263H22.3474C22.1857 37.2263 22.0673 37.2898 21.9923 37.4169C21.9172 37.5382 21.8797 37.7345 21.8797 38.0059V38.1099C21.8797 38.3813 21.9172 38.5776 21.9923 38.6989Z" stroke="#222222" mask="url(#path-5-inside-1_728_17647)"/>
<path d="M27.1376 41.9646C27.2127 42.0858 27.3311 42.1465 27.4928 42.1465H33.4697C33.6314 42.1465 33.7498 42.0858 33.8249 41.9646C33.8999 41.8375 33.9375 41.6412 33.9375 41.3755V41.1157C33.9375 40.85 33.8999 40.6566 33.8249 40.5353C33.7498 40.4082 33.6314 40.3447 33.4697 40.3447H31.8239V31.6738C31.8239 31.5872 31.7488 31.5035 31.5987 31.4226C31.4543 31.3418 31.3186 31.3014 31.1916 31.3014L27.3542 32.0117C27.2271 32.0348 27.129 32.0838 27.0597 32.1589C26.9904 32.2282 26.9557 32.3206 26.9557 32.4361C26.9557 32.7422 26.9933 33.0367 27.0683 33.3197C27.1492 33.5968 27.2762 33.7354 27.4495 33.7354L29.5457 33.4236V40.3447H27.4928C27.3311 40.3447 27.2127 40.4054 27.1376 40.5266C27.0683 40.6479 27.0337 40.8442 27.0337 41.1157V41.3755C27.0337 41.6469 27.0683 41.8433 27.1376 41.9646Z" stroke="#222222" mask="url(#path-5-inside-1_728_17647)"/>
<path d="M35.1762 38.6989C35.2513 38.8202 35.3696 38.8808 35.5313 38.8808H38.6671C38.8287 38.8808 38.9442 38.8202 39.0135 38.6989C39.0886 38.5776 39.1262 38.3813 39.1262 38.1099V38.0059C39.1262 37.7345 39.0886 37.5382 39.0135 37.4169C38.9442 37.2898 38.8287 37.2263 38.6671 37.2263H35.5313C35.3696 37.2263 35.2513 37.2898 35.1762 37.4169C35.1011 37.5382 35.0636 37.7345 35.0636 38.0059V38.1099C35.0636 38.3813 35.1011 38.5776 35.1762 38.6989Z" stroke="#222222" mask="url(#path-5-inside-1_728_17647)"/>
<path d="M40.3215 41.9646C40.3966 42.0858 40.515 42.1465 40.6767 42.1465H46.6536C46.8153 42.1465 46.9337 42.0858 47.0088 41.9646C47.0838 41.8375 47.1214 41.6412 47.1214 41.3755V41.1157C47.1214 40.85 47.0838 40.6566 47.0088 40.5353C46.9337 40.4082 46.8153 40.3447 46.6536 40.3447H45.0078V31.6738C45.0078 31.5872 44.9327 31.5035 44.7826 31.4226C44.6382 31.3418 44.5025 31.3014 44.3755 31.3014L40.5381 32.0117C40.411 32.0348 40.3129 32.0838 40.2436 32.1589C40.1743 32.2282 40.1396 32.3206 40.1396 32.4361C40.1396 32.7422 40.1772 33.0367 40.2522 33.3197C40.3331 33.5968 40.4601 33.7354 40.6334 33.7354L42.7296 33.4236V40.3447H40.6767C40.515 40.3447 40.3966 40.4054 40.3215 40.5266C40.2522 40.6479 40.2176 40.8442 40.2176 41.1157V41.3755C40.2176 41.6469 40.2522 41.8433 40.3215 41.9646Z" stroke="#222222" mask="url(#path-5-inside-1_728_17647)"/>
</g>
<defs>
<filter id="filter0_d_728_17647" x="0" y="0" width="60" height="84.28" filterUnits="userSpaceOnUse" color-interpolation-filters="sRGB">
<feFlood flood-opacity="0" result="BackgroundImageFix"/>
<feColorMatrix in="SourceAlpha" type="matrix" values="0 0 0 0 0 0 0 0 0 0 0 0 0 0 0 0 0 0 127 0" result="hardAlpha"/>
<feOffset dy="1"/>
<feComposite in2="hardAlpha" operator="out"/>
<feColorMatrix type="matrix" values="0 0 0 0 0.0980392 0 0 0 0 0.529412 0 0 0 0 0.329412 0 0 0 0.5 0"/>
<feBlend mode="normal" in2="BackgroundImageFix" result="effect1_dropShadow_728_17647"/>
<feBlend mode="normal" in="SourceGraphic" in2="effect1_dropShadow_728_17647" result="shape"/>
</filter>
<filter id="filter1_d_728_17647" x="5" y="5" width="50" height="51" filterUnits="userSpaceOnUse" color-interpolation-filters="sRGB">
<feFlood flood-opacity="0" result="BackgroundImageFix"/>
<feColorMatrix in="SourceAlpha" type="matrix" values="0 0 0 0 0 0 0 0 0 0 0 0 0 0 0 0 0 0 127 0" result="hardAlpha"/>
<feOffset dy="1"/>
<feComposite in2="hardAlpha" operator="out"/>
<feColorMatrix type="matrix" values="0 0 0 0 0.862745 0 0 0 0 0.207843 0 0 0 0 0.270588 0 0 0 0.5 0"/>
<feBlend mode="normal" in2="BackgroundImageFix" result="effect1_dropShadow_728_17647"/>
<feBlend mode="normal" in="SourceGraphic" in2="effect1_dropShadow_728_17647" result="shape"/>
</filter>
<filter id="filter2_d_728_17647" x="13" y="11" width="35" height="32.2244" filterUnits="userSpaceOnUse" color-interpolation-filters="sRGB">
<feFlood flood-opacity="0" result="BackgroundImageFix"/>
<feColorMatrix in="SourceAlpha" type="matrix" values="0 0 0 0 0 0 0 0 0 0 0 0 0 0 0 0 0 0 127 0" result="hardAlpha"/>
<feOffset dy="1"/>
<feComposite in2="hardAlpha" operator="out"/>
<feColorMatrix type="matrix" values="0 0 0 0 1 0 0 0 0 1 0 0 0 0 1 0 0 0 0.5 0"/>
<feBlend mode="normal" in2="BackgroundImageFix" result="effect1_dropShadow_728_17647"/>
<feBlend mode="normal" in="SourceGraphic" in2="effect1_dropShadow_728_17647" result="shape"/>
</filter>
</defs>
</svg>
